<svg width="21" height="23" viewBox="0 0 21 23" fill="none" xmlns="http://www.w3.org/2000/svg">
<path d="M17.9688 2.875H15.8125V0.539062C15.8125 0.241365 15.5711 0 15.2734 0H13.4766C13.1789 0 12.9375 0.241365 12.9375 0.539062V2.875H7.1875V0.539062C7.1875 0.241365 6.94613 0 6.64844 0H4.85156C4.55387 0 4.3125 0.241365 4.3125 0.539062V2.875H2.15625C0.965371 2.875 0 3.84037 0 5.03125V20.8438C0 22.0346 0.965371 23 2.15625 23H17.9688C19.1596 23 20.125 22.0346 20.125 20.8438V5.03125C20.125 3.84037 19.1596 2.875 17.9688 2.875ZM17.6992 20.8438H2.42578C2.3543 20.8438 2.28574 20.8154 2.23519 20.7648C2.18465 20.7143 2.15625 20.6457 2.15625 20.5742V7.1875H17.9688V20.5742C17.9687 20.6457 17.9404 20.7143 17.8898 20.7648C17.8393 20.8154 17.7707 20.8438 17.6992 20.8438V20.8438ZM15.3251 11.8302L8.93236 18.1718C8.721 18.3814 8.37968 18.3801 8.16999 18.1687L4.79676 14.7682C4.58711 14.5568 4.58846 14.2155 4.79981 14.0058L5.82039 12.9934C6.03175 12.7838 6.37307 12.7851 6.58272 12.9965L8.56395 14.9938L13.5535 10.0443C13.7649 9.83461 14.1062 9.83596 14.3159 10.0473L15.3282 11.0679C15.5379 11.2792 15.5365 11.6205 15.3251 11.8302Z" fill="white"/>
</svg>
