<svg width="374" height="313" viewBox="0 0 374 313" fill="none" xmlns="http://www.w3.org/2000/svg">
<path d="M133.479 247.084C133.479 247.329 133.479 247.575 133.479 247.698C133.357 247.329 133.234 246.839 133.234 246.471C132.007 243.158 130.535 239.846 128.94 236.779C128.572 236.165 128.204 235.552 127.959 234.938C126.364 234.448 122.56 234.448 121.579 234.202C119.493 233.712 116.794 233.098 114.954 231.871C114.218 231.381 112.378 229.54 113.114 228.436C113.973 227.209 117.776 229.295 118.757 229.786C120.843 230.89 122.683 232.362 124.769 233.221C125.75 233.589 126.854 233.957 127.713 234.448C126.118 231.626 124.401 228.927 122.561 226.351C120.966 225.86 117.04 225.86 116.058 225.492C113.973 225.001 111.274 224.388 109.433 223.161C108.697 222.67 106.857 220.83 107.593 219.726C108.452 218.499 112.255 220.585 113.237 221.075C115.322 222.179 117.162 223.652 119.248 224.51C120.23 224.878 121.211 225.246 122.192 225.737C120.107 223.038 118.021 220.462 115.568 218.008C113.973 216.413 112.255 214.818 110.415 213.346C108.575 213.592 106.121 214.205 105.262 214.205C103.054 214.205 100.355 214.45 98.2692 213.714C97.4104 213.469 95.0794 212.119 95.6929 210.893C96.3063 209.543 100.478 210.402 101.459 210.647C103.667 211.261 105.876 212.119 108.207 212.365C108.575 212.365 109.065 212.487 109.433 212.487C106.98 210.525 104.403 208.807 101.704 207.212C100.968 207.457 100.109 207.58 99.3734 207.703C97.4104 208.071 95.5702 209.052 93.7299 209.666C92.8712 209.911 89.436 211.015 88.8226 209.911C88.3319 208.93 90.1721 207.703 90.9082 207.335C92.6258 206.599 94.9568 206.599 96.797 206.476C97.4104 206.476 99.3734 206.721 100.968 206.844C99.7414 206.108 98.3919 205.372 97.0424 204.758C94.9568 203.777 92.7485 202.795 90.5402 202.059C89.6814 202.427 88.6999 202.55 87.7185 202.673C85.7555 203.041 83.9153 204.022 82.075 204.636C81.2162 204.881 77.7811 205.985 77.1677 204.881C76.677 203.9 78.5172 202.673 79.2533 202.305C80.9709 201.569 83.3019 201.569 85.1421 201.446C85.8782 201.446 88.3319 201.814 89.9268 201.814C86.9824 200.833 83.9153 199.974 80.8482 199.36C80.1121 199.606 79.1306 199.728 78.3945 199.851C76.4316 200.219 74.5913 201.078 72.7511 201.691C71.8923 201.937 68.3345 202.918 67.8438 201.814C67.353 200.833 69.1933 199.606 69.9294 199.36C71.6469 198.624 73.9779 198.624 75.8182 198.624C76.0635 198.624 76.4316 198.624 76.9223 198.747C78.5172 198.747 80.1121 198.87 81.707 199.115C81.707 199.115 81.8297 199.115 81.8297 198.992C81.8297 198.992 81.707 198.992 81.707 199.115C83.9153 199.36 86.1236 199.728 88.2092 200.342C87.5958 199.851 86.9824 199.238 86.3689 198.747C84.8967 197.397 83.0565 196.539 81.4616 195.434C80.7255 194.944 77.7811 192.735 78.3945 191.631C78.8853 190.65 80.9709 191.386 81.707 191.754C83.3019 192.613 84.7741 194.576 86.0009 195.925C86.6143 196.661 87.9638 199.36 88.9453 200.464C90.9082 200.955 92.9938 201.569 94.8341 202.305C94.098 201.691 93.6073 200.833 92.9938 200.096C91.767 198.624 90.0494 197.397 88.5772 196.048C87.9638 195.434 85.3875 192.858 86.1236 191.754C86.737 190.773 88.6999 191.877 89.3133 192.367C90.7855 193.472 91.8897 195.557 92.8711 197.152C93.3619 198.011 94.466 201.323 95.2021 202.305C95.9382 202.55 96.797 202.918 97.5331 203.286C100.723 204.636 103.79 206.353 106.734 208.316C106.612 207.825 106.366 207.212 106.244 206.721C105.63 204.758 104.526 203.164 103.79 201.323C103.422 200.464 102.072 197.152 103.054 196.416C104.035 195.803 105.385 197.52 105.753 198.256C106.612 199.851 106.98 202.182 107.225 204.022C107.348 204.758 107.225 207.212 107.225 208.807C110.047 210.77 112.746 212.855 115.2 215.186C114.954 214.573 114.709 213.96 114.463 213.346C113.85 211.874 113.114 210.525 112.255 209.175C111.028 207.089 109.556 205.004 107.716 203.409C106.857 202.55 107.593 201.078 108.82 201.201H108.943C110.906 201.691 112.132 203.654 112.991 205.494C113.727 206.844 117.53 214.328 116.672 216.659C119.371 219.48 121.947 222.425 124.155 225.615C123.542 223.774 122.56 222.179 121.702 220.339C121.334 219.48 119.984 216.168 121.088 215.432C122.07 214.818 123.419 216.536 123.787 217.272C124.646 218.867 125.014 221.198 125.26 223.038C125.382 223.652 125.26 225.737 125.26 227.332C126.977 229.908 128.449 232.607 129.799 235.429C129.799 235.061 129.799 234.693 129.799 234.325C129.676 232.362 129.063 230.399 128.817 228.436C128.695 227.577 128.204 223.897 129.431 223.529C130.535 223.161 131.394 225.246 131.639 225.983C132.13 227.823 131.762 230.154 131.639 231.994C131.516 232.73 130.78 235.061 130.535 236.656C131.516 238.864 132.375 240.95 133.234 243.281C133.234 241.563 132.866 239.723 132.743 238.006C132.621 237.147 132.375 233.466 133.725 233.221C134.829 232.976 135.565 235.061 135.688 235.797C136.056 237.638 135.565 239.968 135.197 241.686C135.074 242.299 134.461 243.894 133.97 245.244C135.32 249.538 139.982 253.218 140.595 257.512C139.736 253.832 134.829 250.765 133.479 247.084Z" fill="#B0AFFD"/>
<path opacity="0.4" d="M351.365 266.345C351.365 270.517 284.257 273.338 201.569 272.602C165.622 272.357 132.743 271.375 106.98 270.149C86.001 268.431 78.1492 268.431 67.7212 267.45C65.2675 267.204 69.8068 267.695 67.7212 267.45C57.5385 266.345 51.895 265.119 51.895 264.014C51.895 259.843 119.003 257.022 201.691 257.758C284.38 258.248 351.365 262.174 351.365 266.345Z" fill="#B0AFFD"/>
<path d="M169.548 265.241C169.548 265.364 169.302 258.984 159.733 253.464C150.041 247.452 130.044 249.538 127.099 243.404C124.032 236.779 136.791 237.637 141.944 232.239C147.097 226.841 148.814 224.265 141.208 223.283C133.602 222.302 128.94 221.934 128.694 215.677C128.326 209.298 116.058 213.101 109.556 208.93C102.808 204.636 105.998 198.256 118.144 197.888C130.167 197.765 130.412 195.802 126.854 194.208C123.419 192.613 112.746 190.036 116.917 186.601C121.211 183.043 128.081 185.62 124.278 181.694C120.597 177.768 112.009 175.314 115.813 170.652C119.616 165.868 130.044 165.745 136.669 177.032C143.171 188.319 145.257 191.509 151.145 192.367C156.789 193.349 161.819 186.969 168.812 189.055C175.805 191.263 174.946 197.888 171.02 202.427C167.094 207.089 160.592 216.168 165.131 219.726C169.425 223.406 174.087 217.272 179.976 215.922C186.478 214.328 194.453 219.603 188.686 229.05C182.798 238.374 173.228 245.98 174.21 266.713C172.738 266.223 171.143 265.732 169.548 265.241Z" fill="#B0AFFD"/>
<g opacity="0.7">
<path opacity="0.7" d="M172.248 266.468C172.125 266.468 171.88 266.345 171.88 266.223C151.514 195.557 121.702 171.143 121.334 170.898C121.212 170.775 121.212 170.53 121.334 170.407C121.457 170.284 121.702 170.284 121.825 170.407C122.07 170.652 152.128 195.312 172.616 266.1C172.616 266.223 172.493 266.345 172.248 266.468C172.37 266.468 172.37 266.468 172.248 266.468Z" fill="#9797EF"/>
</g>
<g opacity="0.7">
<path opacity="0.7" d="M139.736 192.613C139.614 192.613 139.614 192.613 139.491 192.613C130.044 187.337 119.616 188.074 119.494 188.074C119.248 188.074 119.125 187.951 119.125 187.705C119.125 187.46 119.248 187.337 119.494 187.337C119.616 187.337 130.29 186.479 139.982 191.999C140.104 192.122 140.227 192.367 140.104 192.49C139.982 192.613 139.859 192.613 139.736 192.613Z" fill="#9797EF"/>
</g>
<g opacity="0.7">
<path opacity="0.7" d="M151.514 212.733C151.391 212.733 151.269 212.733 151.269 212.733C151.146 212.61 151.023 212.365 151.146 212.242C151.269 212.119 158.752 201.691 169.303 192.245C169.426 192.122 169.671 192.122 169.794 192.245C169.917 192.367 169.917 192.613 169.794 192.735C159.366 202.059 151.882 212.487 151.759 212.61C151.637 212.61 151.514 212.733 151.514 212.733Z" fill="#9797EF"/>
</g>
<g opacity="0.7">
<path opacity="0.7" d="M149.06 208.194H148.938C131.885 203.286 113.359 204.881 113.237 204.881C112.991 204.881 112.869 204.758 112.869 204.513C112.869 204.268 112.991 204.145 113.237 204.145C113.482 204.145 132.007 202.55 149.183 207.457C149.428 207.457 149.428 207.703 149.428 207.948C149.306 208.071 149.183 208.194 149.06 208.194Z" fill="#9797EF"/>
</g>
<g opacity="0.7">
<path opacity="0.7" d="M165.132 244.262H165.009C153.231 240.091 134.093 241.195 133.97 241.195C133.725 241.195 133.602 241.073 133.602 240.827C133.602 240.582 133.725 240.459 133.97 240.459C134.215 240.459 153.354 239.355 165.254 243.526C165.5 243.649 165.5 243.772 165.5 244.017C165.377 244.14 165.254 244.262 165.132 244.262Z" fill="#9797EF"/>
</g>
<g opacity="0.7">
<path opacity="0.7" d="M166.849 249.17H166.727C166.481 249.17 166.481 248.924 166.481 248.679C170.285 234.08 182.921 221.689 183.044 221.566C183.166 221.443 183.412 221.443 183.534 221.566C183.657 221.689 183.657 221.934 183.534 222.057C183.412 222.179 171.021 234.448 167.218 248.802C167.095 249.047 166.972 249.17 166.849 249.17Z" fill="#9797EF"/>
</g>
<path d="M151.637 227.332C151.637 227.332 152.25 201.691 132.007 199.36C111.765 197.029 119.126 226.228 127.713 235.797C127.713 235.797 116.427 222.547 108.943 231.503C101.459 240.459 122.438 250.642 122.438 250.642C122.438 250.642 105.63 244.998 100.968 248.802C94.957 253.832 103.79 259.843 103.79 259.843C103.79 259.843 88.2094 253.832 92.0126 266.713L178.504 266.468L151.637 227.332Z" fill="#7777DB"/>
<path d="M257.266 223.038C257.389 223.161 257.389 223.284 257.389 223.406C257.389 223.038 257.389 222.793 257.266 222.425C257.266 219.849 257.266 217.272 257.512 214.696C257.512 214.205 257.635 213.592 257.635 213.101C258.616 212.365 261.192 211.261 261.806 210.893C263.033 210.034 264.75 208.93 265.609 207.58C265.977 207.089 266.713 205.249 265.854 204.758C264.873 204.145 262.91 206.599 262.419 207.212C261.315 208.562 260.456 210.034 259.229 211.138C258.616 211.629 258.003 212.119 257.635 212.733C257.88 210.402 258.371 208.071 258.984 205.863C259.966 205.127 262.542 204.022 263.155 203.532C264.382 202.673 266.1 201.569 266.958 200.219C267.326 199.728 268.063 197.888 267.204 197.397C266.222 196.784 264.259 199.238 263.769 199.851C262.665 201.201 261.806 202.673 260.579 203.777C260.088 204.268 259.352 204.758 258.984 205.372C259.597 203.041 260.334 200.71 261.315 198.379C261.928 196.784 262.665 195.312 263.523 193.84C264.873 193.472 266.713 193.226 267.204 192.981C268.676 192.49 270.639 191.877 271.743 190.773C272.234 190.282 273.461 188.932 272.725 188.196C271.988 187.337 269.412 189.178 268.799 189.546C267.449 190.527 266.222 191.754 264.75 192.49C264.505 192.613 264.259 192.736 263.891 192.858C264.996 190.895 266.345 188.932 267.695 187.215C268.308 187.215 268.799 186.969 269.412 186.969C270.884 186.724 272.357 186.847 273.829 186.724C274.442 186.724 277.141 186.479 277.264 185.497C277.264 184.638 275.669 184.393 275.178 184.27C273.829 184.27 272.234 184.884 270.884 185.252C270.394 185.375 269.167 186.111 268.185 186.601C268.799 185.743 269.535 184.884 270.271 184.148C271.375 182.921 272.602 181.694 273.951 180.59C274.687 180.59 275.424 180.467 276.037 180.344C277.509 180.099 278.981 180.222 280.454 180.099C281.067 180.099 283.766 179.854 283.889 178.872C283.889 178.014 282.294 177.768 281.803 177.645C280.454 177.645 278.859 178.259 277.509 178.627C277.018 178.75 275.424 179.731 274.319 180.222C276.037 178.75 277.877 177.4 279.84 176.173C280.454 176.173 281.067 175.928 281.68 175.805C283.153 175.56 284.625 175.683 285.974 175.56C286.588 175.56 289.287 175.314 289.287 174.333C289.287 173.474 287.692 173.229 287.201 173.229C285.852 173.229 284.257 173.842 283.03 174.333C282.907 174.333 282.539 174.578 282.294 174.701C281.19 175.192 280.208 175.683 279.104 176.173H278.981H279.104C277.632 176.909 276.282 177.768 275.056 178.75C275.424 178.259 275.546 177.768 275.792 177.155C276.405 175.805 277.387 174.824 278.245 173.597C278.613 173.106 280.086 170.775 279.349 170.162C278.736 169.548 277.509 170.653 277.141 171.143C276.282 172.247 275.792 173.842 275.424 175.069C275.178 175.683 275.056 178.014 274.687 178.995C273.461 179.854 272.234 180.835 271.13 181.817C271.498 181.203 271.62 180.467 271.866 179.854C272.357 178.504 273.093 177.277 273.706 175.928C273.951 175.314 275.056 172.861 274.197 172.37C273.461 171.879 272.479 173.106 272.234 173.597C271.498 174.824 271.375 176.419 271.13 177.768C271.007 178.504 271.252 180.958 271.007 181.939C270.516 182.307 270.148 182.798 269.657 183.166C267.817 185.006 266.222 186.969 264.75 189.055C264.75 188.687 264.627 188.196 264.627 187.828C264.505 186.356 264.75 184.884 264.75 183.534C264.75 182.921 264.75 180.222 263.891 180.099C263.033 179.976 262.542 181.449 262.542 182.062C262.419 183.412 262.787 185.129 263.155 186.356C263.278 186.847 264.014 188.442 264.382 189.668C263.033 191.754 261.806 193.84 260.702 196.171C260.702 195.68 260.702 195.189 260.702 194.698C260.702 193.594 260.824 192.367 261.07 191.263C261.315 189.546 261.806 187.705 262.542 186.111C262.91 185.252 261.928 184.393 261.192 184.884C261.192 184.884 261.192 184.884 261.07 184.884C259.843 185.743 259.597 187.46 259.475 188.932C259.352 190.036 258.739 196.171 260.088 197.52C258.984 200.097 258.125 202.796 257.512 205.617C257.389 204.268 257.635 202.796 257.635 201.446C257.635 200.833 257.635 198.134 256.776 198.011C255.917 197.888 255.426 199.36 255.426 199.974C255.304 201.323 255.672 203.041 256.04 204.268C256.162 204.758 256.776 206.108 257.144 207.212C256.653 209.42 256.408 211.629 256.285 213.96C256.162 213.714 256.04 213.469 256.04 213.224C255.549 211.874 255.426 210.402 255.181 208.93C255.058 208.316 254.445 205.74 253.463 205.74C252.605 205.74 252.604 207.457 252.604 207.948C252.727 209.298 253.586 210.77 254.322 211.997C254.567 212.488 255.672 213.837 256.408 214.819C256.285 216.536 256.285 218.254 256.408 219.971C255.917 218.744 255.672 217.518 255.304 216.291C255.058 215.677 254.322 213.101 253.341 213.224C252.482 213.346 252.604 214.941 252.727 215.555C252.973 216.904 253.954 218.254 254.69 219.48C254.935 219.849 255.794 220.707 256.53 221.566C256.776 224.756 254.567 228.559 255.426 231.749C254.935 229.295 257.266 225.86 257.266 223.038Z" fill="#B0AFFD"/>
<path d="M229.663 239.723C229.786 239.723 227.577 233.834 234.325 225.124C241.073 216.045 260.457 210.525 260.825 203.654C261.193 196.416 249.66 201.814 242.913 198.747C236.043 195.68 233.589 193.962 240.214 190.159C246.961 186.479 251.01 184.393 249.047 178.504C247.084 172.493 259.843 171.511 264.26 165.132C268.922 158.752 263.646 153.968 252.114 158.139C240.95 162.555 239.968 160.838 242.668 157.893C245.367 155.072 254.2 148.815 249.047 147.097C243.649 145.38 238.251 150.287 240.337 145.257C242.299 140.227 249.292 134.829 244.14 131.885C238.864 128.94 229.05 132.621 227.087 145.625C225.246 158.507 224.388 162.187 219.358 165.254C214.45 168.322 207.457 164.15 201.691 168.812C196.048 173.474 199.36 179.24 204.636 182.062C210.034 184.884 219.358 190.895 216.536 195.925C213.837 200.955 207.335 197.029 201.323 197.888C194.698 198.87 189.3 206.599 198.133 213.346C207.089 219.848 218.867 223.406 225.615 242.913C226.964 241.809 228.314 240.705 229.663 239.723Z" fill="#B0AFFD"/>
<g opacity="0.7">
<path opacity="0.7" d="M227.578 241.809C227.701 241.809 227.824 241.564 227.824 241.441C220.585 168.322 239.11 134.461 239.356 134.093C239.478 133.97 239.356 133.725 239.233 133.602C239.11 133.48 238.865 133.602 238.742 133.725C238.497 134.093 219.849 168.076 227.087 241.441C227.087 241.686 227.333 241.809 227.578 241.809C227.578 241.809 227.456 241.809 227.578 241.809Z" fill="#9797EF"/>
</g>
<g opacity="0.7">
<path opacity="0.7" d="M230.4 161.206C230.523 161.206 230.523 161.206 230.645 161.083C237.393 152.618 247.453 149.551 247.576 149.428C247.821 149.428 247.821 149.183 247.821 148.938C247.821 148.692 247.576 148.692 247.33 148.692C247.208 148.692 237.025 152.005 230.032 160.592C229.909 160.715 229.909 160.96 230.032 161.083C230.155 161.206 230.277 161.206 230.4 161.206Z" fill="#9797EF"/>
</g>
<g opacity="0.7">
<path opacity="0.7" d="M226.964 184.148C227.087 184.148 227.087 184.025 227.21 184.025C227.332 183.903 227.21 183.657 227.087 183.534C226.964 183.412 216.046 176.542 202.796 171.757C202.673 171.634 202.428 171.757 202.305 172.002C202.182 172.248 202.305 172.37 202.55 172.493C215.677 177.278 226.596 184.148 226.596 184.271C226.719 184.148 226.842 184.148 226.964 184.148Z" fill="#9797EF"/>
</g>
<g opacity="0.7">
<path opacity="0.7" d="M227.456 179.118C227.456 179.118 227.578 179.118 227.578 178.995C241.687 168.076 259.353 162.678 259.476 162.678C259.721 162.678 259.721 162.433 259.721 162.188C259.721 161.942 259.476 161.942 259.231 161.942C259.108 161.942 241.196 167.463 227.088 178.382C226.965 178.504 226.842 178.75 226.965 178.872C227.21 179.118 227.333 179.118 227.456 179.118Z" fill="#9797EF"/>
</g>
<g opacity="0.7">
<path opacity="0.7" d="M225.983 218.499C225.983 218.499 226.106 218.499 226.106 218.376C235.552 210.157 253.587 204.145 253.832 204.022C254.077 203.9 254.077 203.777 254.077 203.532C253.955 203.286 253.832 203.286 253.587 203.286C253.464 203.286 235.184 209.421 225.615 217.763C225.492 217.886 225.492 218.131 225.615 218.254C225.738 218.499 225.86 218.622 225.983 218.499Z" fill="#9797EF"/>
</g>
<g opacity="0.7">
<path opacity="0.7" d="M226.228 223.652C226.228 223.652 226.351 223.652 226.351 223.529C226.474 223.406 226.597 223.161 226.474 223.038C217.518 210.893 201.201 204.145 201.078 204.022C200.956 203.9 200.71 204.022 200.588 204.268C200.465 204.391 200.588 204.636 200.833 204.759C200.956 204.881 217.027 211.506 225.983 223.529C225.86 223.652 226.106 223.775 226.228 223.652Z" fill="#9797EF"/>
</g>
<path d="M231.748 221.075C231.748 221.075 231.135 195.435 251.378 193.104C271.621 190.773 264.26 219.971 255.672 229.541C255.672 229.541 266.959 216.291 274.442 225.247C281.926 234.203 260.947 244.385 260.947 244.385C260.947 244.385 277.755 238.742 282.417 242.545C288.428 247.575 277.019 254.813 277.019 254.813C277.019 254.813 295.176 247.575 291.373 260.457L204.881 260.211L231.748 221.075Z" fill="#8888E9"/>
<path d="M371.976 183.166C372.344 183.044 371.976 182.553 371.608 182.553C371.608 182.553 371.485 182.553 371.362 182.553C371.976 182.43 372.589 182.308 372.712 182.185C373.08 182.062 372.835 181.572 372.467 181.572C372.712 181.449 372.957 181.449 372.957 181.449C373.448 181.203 373.08 180.835 372.589 180.835C372.467 180.835 372.221 180.835 371.853 180.958C371.976 180.958 372.221 180.835 372.221 180.835C372.589 180.713 372.344 180.222 371.976 180.222C371.853 180.222 371.608 180.222 371.117 180.345C370.749 180.345 370.258 180.467 369.768 180.467C369.399 180.467 367.559 180.59 367.069 179.731C366.455 178.504 368.909 178.627 369.154 177.646C369.277 177.278 367.314 177.523 366.332 177.768C365.351 178.014 364.86 178.136 364.247 178.382C363.633 178.627 362.897 179.241 362.529 179.241C362.161 179.241 361.057 179.118 361.057 179.118L360.689 182.553C360.689 182.553 362.775 182.676 363.265 182.921C364.615 183.657 365.842 184.025 367.314 184.025C368.295 184.025 369.154 183.78 370.136 183.657C370.626 183.657 371.853 183.289 371.976 183.166Z" fill="#FFE1BD"/>
<path d="M318.977 255.181C318.977 255.181 321.063 258.126 321.921 258.985C322.903 259.843 325.97 257.144 325.847 256.286C325.725 255.427 321.921 251.01 321.921 251.01" fill="#ED9C80"/>
<path d="M327.442 256.408C328.301 257.39 329.896 259.353 329.896 259.353L327.32 262.665L326.461 262.42C326.461 262.42 326.215 263.892 325.479 264.873C324.866 265.61 323.516 266.959 322.658 267.572C319.836 269.413 317.382 270.026 317.014 269.658C315.297 268.309 318.977 265.732 319.59 265.119C321.431 263.401 321.676 260.825 321.185 259.353C320.817 258.371 320.572 258.249 321.063 258.126C321.063 258.126 321.431 257.881 322.167 258.126C323.148 258.494 324.252 258.249 324.866 257.39C325.234 256.899 325.479 256.408 325.479 255.795C325.602 255.795 326.583 255.427 327.442 256.408Z" fill="#3A3A3A"/>
<path d="M267.695 257.881C267.695 257.881 266.714 261.316 266.714 262.542C266.591 263.769 270.64 264.505 271.253 263.892C271.866 263.279 272.848 257.512 272.848 257.512" fill="#ED9C80"/>
<path d="M272.111 265.241C271.989 266.591 271.375 269.044 271.375 269.044L267.204 269.167L266.836 268.308C266.836 268.308 265.487 269.044 264.26 269.044C263.278 269.044 261.438 268.799 260.457 268.554C257.267 267.572 255.181 266.1 255.181 265.487C255.181 263.278 259.475 264.505 260.334 264.628C262.91 264.996 264.996 263.524 265.855 262.297C266.468 261.438 266.223 261.193 266.713 261.438C266.713 261.438 267.204 261.561 267.449 262.297C267.818 263.278 268.676 264.014 269.658 263.892C270.271 263.892 270.885 263.769 271.375 263.401C271.375 263.401 272.234 263.892 272.111 265.241Z" fill="#3A3A3A"/>
<path d="M285.975 184.761C285.975 184.761 274.197 214.573 272.848 221.075C271.376 227.455 265.855 259.843 265.855 259.843C265.855 259.843 271.008 261.316 272.848 260.702C274.197 255.427 287.447 214.328 296.035 203.286C304.746 192.245 285.975 184.761 285.975 184.761Z" fill="#313133"/>
<path d="M294.194 201.201C294.194 201.201 291.495 215.677 300.451 230.399C309.407 245.121 318.608 256.163 318.608 256.163C318.608 256.163 322.411 254.322 323.884 252.237C321.185 248.556 309.039 227.455 309.039 219.235C309.039 211.015 312.229 191.509 312.229 191.509L298.611 188.319L294.194 201.201Z" fill="#313133"/>
<path d="M361.302 182.553C361.302 182.553 345.844 183.289 337.992 181.08C330.018 178.872 316.523 169.18 316.523 169.18L300.574 156.912C296.525 151.759 291.25 137.282 290.514 134.583C289.655 131.884 286.833 113.85 286.833 113.85L290.269 113.482C290.269 113.482 294.194 126.364 296.157 133.602C297.998 140.35 308.426 149.674 311.002 152.004C311.125 152.127 311.37 152.25 311.37 152.373C312.965 153.722 311.738 156.298 311.738 156.298L314.437 157.28C314.437 157.28 317.382 155.808 319.222 157.403C319.345 157.525 319.59 157.771 319.835 158.016C322.289 160.715 328.423 170.407 340.814 175.314C349.893 177.523 359.83 179.117 362.284 179.24C361.425 181.571 361.302 182.553 361.302 182.553Z" fill="#ED9C80"/>
<path d="M319.59 158.016C319.099 158.875 315.787 161.083 312.965 159.979C307.322 157.403 310.512 152.25 310.757 152.005C310.88 152.128 311.125 152.25 311.125 152.373C312.72 153.722 313.824 150.533 313.824 150.533L319.467 153.6C319.467 153.6 317.014 155.808 318.854 157.403C319.099 157.526 319.345 157.771 319.59 158.016Z" fill="#ED9C80"/>
<path d="M320.081 175.56C320.081 175.56 315.051 187.092 313.088 194.944C299.225 198.256 290.023 191.877 285.975 187.706C284.257 185.988 283.398 184.761 283.398 184.761C283.398 184.761 287.202 178.014 289.41 172.984C291.618 167.954 295.053 161.329 297.507 156.912C297.63 156.176 295.421 152.741 293.09 147.711C296.28 146.484 301.188 141.331 301.188 141.331L310.634 152.005C310.634 152.005 307.812 156.667 311.493 159.243C315.173 161.697 317.627 159.611 319.467 158.016C320.94 160.102 328.914 167.217 333.699 170.53L327.442 180.958C327.564 180.958 322.044 177.891 320.081 175.56Z" fill="#7762EF"/>
<path d="M317.627 135.933C316.768 135.81 315.909 136.056 315.418 136.669C314.928 137.283 314.682 138.141 314.928 139C314.314 138.632 313.455 139.123 313.21 139.736C312.965 140.35 312.965 141.086 313.087 141.822C313.21 142.681 313.455 143.539 314.192 143.907C314.682 144.275 315.296 144.275 315.909 144.153C316.277 144.03 316.768 143.907 317.013 143.662C317.381 143.417 317.749 143.049 317.995 142.558C318.976 141.208 320.08 139.859 321.062 138.509C321.307 138.264 321.43 137.896 321.43 137.528" fill="#2C1E56"/>
<path d="M325.233 151.514C324.374 152.25 323.638 153.109 322.657 153.722C321.307 154.703 319.958 154.949 318.363 154.213C316.645 153.354 314.805 152.495 313.333 151.146C311.738 149.673 311.492 148.447 312.351 146.361C312.842 145.134 313.455 143.907 313.946 142.681C315.173 140.104 316.522 137.528 318.117 135.197C318.485 134.583 318.853 133.847 319.712 134.215C322.166 135.32 324.619 136.546 326.95 138.141C328.545 139.245 330.14 140.472 330.876 142.312C331.49 144.153 331.122 146.116 330.754 148.079C330.631 148.324 330.508 148.815 330.263 148.815" fill="#ED9C80"/>
<path d="M324.987 147.465C325.478 146.974 326.337 147.465 326.46 148.201C326.582 148.815 326.214 149.551 325.969 150.042C325.601 150.778 324.742 151.268 324.006 151.636C323.27 152.004 322.534 152.004 322.288 151.146C321.552 152.127 321.92 153.477 322.656 153.967C323.392 154.458 324.374 154.458 324.987 153.845C327.318 156.912 331.122 153.109 332.716 150.9C333.943 149.183 334.679 146.729 334.679 144.643C334.679 143.539 334.311 142.313 333.452 141.576C334.066 140.35 333.821 138.877 333.207 137.651C332.594 136.424 331.858 135.688 330.876 134.706C330.263 134.093 328.054 133.479 327.318 133.97C326.46 132.375 324.865 132.375 323.761 131.884C322.656 131.394 320.816 131.639 320.693 132.866C319.344 131.394 316.4 132.13 315.909 134.093C315.418 136.056 317.381 138.141 319.344 137.896C319.099 139.245 319.957 140.595 321.184 141.331C322.411 142.067 323.761 142.313 325.233 142.313C324.497 142.681 323.883 143.417 323.761 144.398C323.638 145.257 323.515 145.993 324.742 146.484C324.742 146.484 323.638 148.079 324.129 148.079C324.374 148.079 324.987 147.465 324.987 147.465Z" fill="#2C1E56"/>
<path d="M284.502 103.913C284.625 103.545 285.116 103.79 285.239 104.158C285.239 104.158 285.239 104.281 285.239 104.404C285.239 103.668 285.361 103.177 285.361 103.054C285.484 102.686 285.975 102.931 286.097 103.177C286.097 102.931 286.097 102.686 286.22 102.563C286.343 102.073 286.833 102.318 286.956 102.809C286.956 102.931 286.956 103.177 286.956 103.545C286.956 103.422 286.956 103.177 286.956 103.177C287.079 102.809 287.569 102.931 287.569 103.299C287.569 103.422 287.569 103.668 287.569 104.158C287.569 104.526 287.569 105.017 287.569 105.508C287.569 105.876 287.815 107.716 288.674 108.084C290.023 108.575 289.41 106.121 290.514 105.753C290.882 105.63 290.882 107.471 290.759 108.575C290.637 109.556 290.637 110.17 290.391 110.66C290.269 111.274 289.778 112.01 289.778 112.501C289.778 112.869 290.023 113.973 290.023 113.973L286.711 114.832C286.711 114.832 286.343 112.746 285.975 112.255C285.116 111.029 284.502 109.802 284.257 108.33C284.134 107.348 284.134 106.489 284.257 105.508C284.257 105.262 284.502 104.036 284.502 103.913Z" fill="#ED9C80"/>
<path d="M313.211 194.944C299.347 198.256 290.146 191.877 286.098 187.705C300.574 198.747 310.266 193.717 311.738 193.349C312.107 189.914 318.854 173.965 318.854 173.965C318.854 173.965 319.958 175.314 320.204 175.437C320.081 175.56 315.174 187.092 313.211 194.944Z" fill="#5F52DD"/>
<path opacity="0.4" d="M170.284 304.132C170.284 305.359 153.967 306.463 133.847 306.585C113.727 306.708 97.2876 305.849 97.2876 304.623C97.2876 303.396 113.604 302.292 133.725 302.169C153.967 302.046 170.284 302.905 170.284 304.132Z" fill="#B0AFFD"/>
<path d="M118.143 289.287C118.143 289.287 117.898 292.722 118.389 295.298C119.002 297.139 118.757 297.629 118.757 297.629L111.764 298.12C111.764 298.12 114.585 296.157 113.359 289.042C111.886 281.926 118.143 289.287 118.143 289.287Z" fill="#ED9C80"/>
<path d="M118.511 295.912C118.511 295.912 115.689 297.507 112.5 297.139C109.187 299.347 106.856 300.328 103.667 301.187C100.477 302.046 101.458 304.622 106.856 303.396C112.254 302.169 116.058 301.923 117.407 301.801C118.634 301.678 120.597 301.555 120.597 300.697C120.597 299.96 119.493 295.544 118.511 295.912Z" fill="#2C1E56"/>
<path d="M153.967 284.134C153.967 284.134 155.194 287.324 156.789 289.532C158.138 290.882 158.138 291.495 158.138 291.495L152.004 294.93C152.004 294.93 153.722 291.863 149.551 285.974C145.257 280.208 153.967 284.134 153.967 284.134Z" fill="#ED9C80"/>
<path d="M157.156 290.023C157.156 290.023 155.193 292.722 152.249 293.703C150.163 297.016 148.446 298.979 145.992 301.187C143.539 303.273 145.501 305.236 149.918 301.8C154.335 298.365 157.647 296.402 158.751 295.912C159.855 295.298 161.573 294.317 161.205 293.581C160.837 292.722 157.893 289.164 157.156 290.023Z" fill="#2C1E56"/>
<path d="M107.347 152.25C107.347 152.25 109.432 148.569 110.291 147.097C111.273 145.625 115.321 149.305 115.321 149.305C115.321 149.305 115.689 150.9 113.726 152.004C111.763 153.109 110.537 153.109 110.046 154.458C109.678 155.808 107.224 153.967 107.224 153.967L107.347 152.25Z" fill="#ED9C80"/>
<path d="M135.441 153.109C135.441 153.109 133.601 149.06 132.742 147.588C131.884 145.993 127.59 149.551 127.59 149.551C127.59 149.551 127.099 151.146 129.062 152.372C131.025 153.477 132.252 153.599 132.62 154.949C132.988 156.298 135.441 154.581 135.441 154.581V153.109Z" fill="#ED9C80"/>
<path d="M112.377 150.655C112.377 150.655 113.726 150.287 113.972 149.796C114.217 149.183 114.585 148.324 115.199 148.447C116.057 148.569 115.321 150.532 114.953 150.9" fill="#ED9C80"/>
<path d="M130.412 151.023C130.412 151.023 129.062 150.655 128.817 150.042C128.571 149.428 128.326 148.569 127.59 148.569C126.731 148.692 127.59 150.778 127.958 151.268" fill="#ED9C80"/>
<path d="M121.21 229.54C121.21 229.54 127.345 251.991 131.148 257.88C134.828 263.892 151.268 289.778 151.268 289.778C151.268 289.778 154.212 288.183 155.93 287.324C147.833 266.468 145.379 260.579 140.349 252.359C137.405 240.582 139.245 224.633 131.884 214.45C129.676 211.383 119.37 217.272 119.37 217.272L121.21 229.54Z" fill="#242472"/>
<path d="M110.782 216.536C110.782 216.536 109.923 248.679 109.923 254.69C109.923 260.824 112.99 293.336 112.99 293.336C112.99 293.336 115.199 294.317 118.879 292.477C119.002 284.993 120.351 273.829 119.247 256.285C123.173 239.6 125.504 223.161 125.504 223.161L125.136 214.45L110.782 216.536Z" fill="#242472"/>
<path d="M113.972 172.125C113.972 172.125 110.414 175.192 111.886 181.816C112.377 183.779 109.801 186.601 107.961 188.073C106.243 189.546 104.771 192.981 106.366 195.925C107.961 198.869 108.451 199.115 107.592 202.059C106.856 205.004 106.734 211.015 115.076 209.788C123.296 208.561 123.173 188.441 123.173 188.441L122.069 179.731L113.972 172.125Z" fill="#2C1E56"/>
<path d="M126.24 183.534C126.24 183.534 125.872 183.779 125.259 184.025C125.259 184.27 125.259 184.638 125.259 184.884C125.259 186.601 125.259 187.705 125.259 187.705C123.909 189.914 121.456 189.914 120.352 189.423C120.229 189.423 120.106 189.3 120.106 189.3C119.738 188.932 119.493 188.441 119.616 187.951C119.738 187.092 119.861 186.356 119.738 185.62C118.634 185.62 117.407 185.497 116.303 185.006C111.886 183.166 114.463 171.266 114.463 171.266C114.463 171.266 121.946 168.076 124.277 171.143C126.608 174.087 126.24 183.534 126.24 183.534Z" fill="#ED9C80"/>
<path d="M118.879 172.247C118.879 172.247 118.634 174.456 120.597 175.805C122.56 177.155 125.75 177.645 125.995 179.486C126.118 180.59 125.259 181.571 125.259 181.571C125.259 181.571 127.345 181.448 127.467 181.203C127.59 181.08 128.326 176.909 128.326 176.909C128.326 176.909 123.787 172.615 123.296 172.37C122.805 172.125 118.879 172.247 118.879 172.247Z" fill="#D8836C"/>
<path d="M125.381 187.583C124.032 189.791 121.578 189.791 120.474 189.3C123.173 190.036 123.05 186.724 122.682 186.11C122.314 185.497 120.965 185.252 120.965 185.252C122.069 185.129 123.541 184.761 123.541 184.761C123.541 184.761 125.013 184.393 125.627 184.393C125.75 186.11 125.381 187.583 125.381 187.583Z" fill="#D8836C"/>
<path d="M121.947 165.745C119.861 166.113 117.653 167.585 116.672 169.303C116.058 170.284 119.493 171.266 119.493 172.738C119.616 175.682 122.928 176.786 125.505 177.891C126.241 178.136 127.1 179.486 125.505 180.958C125.505 180.958 123.174 183.166 123.419 185.742C123.664 187.951 127.836 187.583 127.836 187.583C127.836 187.583 121.947 205.372 122.683 207.825C123.051 209.175 134.461 216.045 142.312 209.543C145.502 206.844 145.993 201.814 143.171 198.624C141.085 196.17 141.085 194.576 141.208 193.962C143.294 186.356 139.491 181.08 135.074 178.995C133.356 178.136 132.13 176.418 132.007 174.456C131.884 172.37 131.393 169.794 129.553 168.076C127.222 165.868 124.401 165.377 121.947 165.745Z" fill="#2C1E56"/>
<path d="M111.886 167.463C110.169 168.812 110.291 171.388 112.009 172.615C113.849 173.842 116.671 174.578 121.087 172.247C126.24 169.548 124.645 165.5 121.21 165.868C114.708 168.199 113.849 165.99 111.886 167.463Z" fill="#2C1E56"/>
<path d="M119.615 187.95C119.615 187.95 119.861 190.036 122.683 189.545C124.155 189.055 124.4 188.073 124.768 187.337C125.995 187.46 128.817 187.46 131.27 184.147C133.111 181.571 135.81 177.154 137.159 174.823C137.65 173.842 137.773 172.738 137.527 171.756C136.3 166.849 131.516 154.703 131.516 154.703L136.3 152.986C136.3 152.986 141.085 165.009 143.539 171.02C144.397 172.983 144.275 175.191 143.293 177.154C140.717 182.307 135.687 191.14 133.356 195.68C132.62 198.379 136.423 217.64 136.423 217.64C136.423 217.64 125.995 224.142 110.905 219.357C110.905 213.591 111.518 202.918 111.396 197.029C111.273 190.895 108.083 191.508 99.9861 174.823C99.25 173.228 99.0047 171.388 99.3727 169.671C100.231 165.745 102.931 159.243 107.47 152.372C110.66 153.845 111.15 154.335 111.15 154.335C111.15 154.335 106.856 165.009 105.384 169.425C105.016 170.284 105.139 171.388 105.63 172.124C107.961 176.541 115.322 187.828 119.615 187.95Z" fill="#FFC064"/>
<path d="M299.47 201.201C299.47 201.201 299.225 204.513 299.102 206.599C298.366 207.948 297.752 208.93 297.752 208.93C297.752 208.93 297.998 205.372 299.47 201.201Z" fill="#2C1E56"/>
<path d="M142.19 0C144.03 2.69903 146.484 3.18977 146.484 3.18977C145.012 4.29391 145.012 5.03001 145.012 6.6249C143.417 6.01148 142.067 4.90733 141.086 3.43513C140.472 1.96293 140.963 0.858783 142.19 0Z" fill="#F9D04E"/>
<path d="M218.622 115.199C220.462 117.898 222.915 118.389 222.915 118.389C221.443 119.493 221.443 120.229 221.443 121.824C219.848 121.211 218.499 120.107 217.517 118.635C217.027 117.285 217.517 116.181 218.622 115.199Z" fill="#F9D04E"/>
<path d="M133.111 51.2817C135.81 53.122 138.264 52.6313 138.264 52.6313C137.282 54.2261 137.65 54.8396 138.141 56.4344C136.424 56.4344 134.829 55.9437 133.234 54.9622C132.252 53.7354 132.375 52.5086 133.111 51.2817Z" fill="#B0AFFD"/>
<path d="M170.652 139.982C173.474 138.509 174.21 136.056 174.21 136.056C175.192 137.651 175.928 137.651 177.523 137.896C176.664 139.368 175.56 140.595 173.965 141.454C172.37 141.822 171.388 141.208 170.652 139.982Z" fill="#F9D04E"/>
<path d="M199.115 60.9735C202.182 61.7096 204.39 60.3601 204.39 60.3601C204.145 62.2004 204.635 62.6911 205.739 63.9179C204.145 64.5313 202.427 64.654 200.709 64.286C199.237 63.5499 198.869 62.323 199.115 60.9735Z" fill="#B0AFFD"/>
<path d="M136.178 104.649C137.773 107.348 140.349 108.084 140.349 108.084C138.877 109.066 138.877 109.802 138.632 111.519C137.037 110.783 135.81 109.679 134.829 108.084C134.338 106.489 134.951 105.385 136.178 104.649Z" fill="#B0AFFD"/>
<path d="M350.138 101.214C351.732 103.913 354.309 104.649 354.309 104.649C352.837 105.63 352.837 106.366 352.591 108.084C350.996 107.348 349.77 106.244 348.788 104.649C348.297 103.177 348.911 102.072 350.138 101.214Z" fill="#B0AFFD"/>
<path d="M334.311 64.4087C335.906 67.1077 338.483 67.8438 338.483 67.8438C337.01 68.8253 337.01 69.5614 336.765 71.279C335.17 70.5429 333.943 69.4387 332.962 67.8438C332.594 66.3716 333.085 65.2675 334.311 64.4087Z" fill="#F9D04E"/>
<path d="M287.324 86.2464C290.513 86.6144 292.599 85.0195 292.599 85.0195C292.476 86.8598 293.09 87.3505 294.194 88.4547C292.722 89.1908 291.004 89.5588 289.164 89.3134C287.814 88.8227 287.324 87.7186 287.324 86.2464Z" fill="#F9D04E"/>
<path d="M271.988 142.067C275.055 141.086 276.282 138.877 276.282 138.877C276.896 140.595 277.632 140.718 279.227 141.331C278.122 142.681 276.773 143.662 275.055 144.276C273.46 144.276 272.479 143.417 271.988 142.067Z" fill="#F9D04E"/>
<path d="M302.414 15.7036C305.359 16.9304 307.812 15.949 307.812 15.949C307.199 17.6665 307.69 18.28 308.549 19.6295C306.831 19.9975 305.236 19.8748 303.518 19.1387C302.169 18.28 301.924 17.1758 302.414 15.7036Z" fill="#B0AFFD"/>
<path d="M198.502 15.7036C201.446 16.9304 203.9 15.949 203.9 15.949C203.286 17.6665 203.777 18.28 204.513 19.6295C202.796 19.9975 201.201 19.8748 199.483 19.1387C198.256 18.28 198.011 17.1758 198.502 15.7036Z" fill="#F9D04E"/>
<path d="M32.8789 111.028C35.8233 112.255 38.277 111.274 38.277 111.274C37.6636 112.991 38.1543 113.605 38.8904 114.954C37.1729 115.322 35.578 115.2 33.8604 114.463C32.5109 113.727 32.3882 112.501 32.8789 111.028Z" fill="#F9D04E"/>
<path d="M89.0678 140.595C89.3132 143.785 91.1534 145.503 91.1534 145.503C89.3132 145.748 88.9451 146.361 88.0863 147.711C86.9822 146.361 86.3688 144.766 86.2461 142.926C86.6141 141.454 87.5956 140.718 89.0678 140.595Z" fill="#F9D04E"/>
<path d="M85.2646 61.0963C88.209 59.8694 89.1905 57.4158 89.1905 57.4158C90.0493 59.0107 90.7854 59.1333 92.3803 59.5014C91.3988 60.9736 90.172 62.0777 88.4544 62.8138C86.9822 63.1819 86.0007 62.4458 85.2646 61.0963Z" fill="#B0AFFD"/>
<path d="M203.654 172.125C206.844 171.634 208.316 169.548 208.316 169.548C208.684 171.389 209.42 171.634 210.893 172.37C209.666 173.597 208.071 174.333 206.353 174.578C204.758 174.456 204.022 173.597 203.654 172.125Z" fill="#B0AFFD"/>
<path opacity="0.4" d="M72.9965 309.653C72.9965 310.879 56.6797 311.984 36.5596 312.106C16.3169 312.229 0 311.37 0 310.143C0 308.916 16.3169 307.812 36.4369 307.69C56.6797 307.567 72.9965 308.426 72.9965 309.653Z" fill="#B0AFFD"/>
<path d="M77.6587 132.253C77.6587 131.762 77.0453 132.007 76.9226 132.375C76.9226 132.375 76.9226 132.498 76.7999 132.743C76.7999 132.007 76.9226 131.394 76.7999 131.271C76.7999 130.903 76.1865 131.026 76.0639 131.394C76.0639 131.148 76.0639 130.903 76.0639 130.78C76.0639 130.29 75.4504 130.412 75.3278 130.903C75.3278 131.026 75.2051 131.271 75.2051 131.639C75.2051 131.394 75.2051 131.271 75.2051 131.271C75.2051 130.78 74.5917 130.903 74.469 131.271C74.469 131.394 74.3463 131.639 74.3463 132.13C74.2236 132.621 74.1009 133.111 74.1009 133.479C74.1009 133.848 73.6102 135.81 72.6287 136.056C71.1565 136.424 72.138 133.848 71.0338 133.234C70.6658 133.111 70.4204 135.074 70.2977 136.178C70.2977 137.283 70.2977 137.896 70.4204 138.509C70.5431 139.123 70.9112 140.104 70.7885 140.472C70.6658 141.086 69.9297 142.435 69.9297 142.435L73.6102 143.294C73.6102 143.294 74.469 141.331 74.9597 140.84C76.0638 139.736 76.8 138.509 77.168 136.915C77.4134 135.933 77.5361 134.952 77.5361 133.97C77.6587 133.725 77.6587 132.375 77.6587 132.253Z" fill="#FEAF84"/>
<path d="M43.0619 162.924C43.0619 162.924 54.7168 162.801 61.0963 155.685C66.1263 148.57 71.0336 140.841 71.4017 140.104C72.3832 140.473 74.5915 141.454 74.5915 141.454C74.5915 141.454 67.9666 156.421 65.2675 159.734C62.6912 163.169 57.5385 168.69 46.7424 171.511C41.5897 165.623 43.0619 162.924 43.0619 162.924Z" fill="#FEAF84"/>
<path d="M50.6684 302.169C50.6684 302.169 51.2818 303.641 51.2818 304.745C51.2818 305.727 47.9694 305.972 47.6013 305.482C47.2333 304.991 46.8652 300.329 46.8652 300.329" fill="#FFE1BD"/>
<path d="M46.7422 306.34C46.7422 307.445 47.1102 309.162 47.1102 309.162L50.9134 309.039L51.0361 308.426C51.0361 308.426 52.2629 309.039 53.2444 308.917L56.4342 308.794C58.7652 308.671 60.1147 308.303 60.1147 307.935C60.2373 306.218 57.5383 306.463 56.8022 306.463C54.7166 306.586 52.3856 305.727 51.8949 304.623C51.5268 303.887 51.6495 303.641 51.2815 303.887C51.2815 303.887 50.9134 304.009 50.6681 304.5C50.3 305.236 49.5639 305.727 48.7051 305.604C48.2144 305.482 47.7237 305.359 47.3556 304.991C47.4783 304.991 46.7422 305.359 46.7422 306.34Z" fill="#3A3A3A"/>
<path d="M13.9853 300.083C13.9853 300.083 13.3719 302.905 13.0038 303.764C12.6358 304.745 9.446 303.641 9.32331 303.028C9.20063 302.414 10.5501 297.875 10.5501 297.875" fill="#FFE1BD"/>
<path d="M8.09706 303.764C7.72901 304.745 7.23828 306.708 7.23828 306.708L10.1827 308.303L10.6734 307.812C10.6734 307.812 11.2868 308.794 12.2683 309.285C12.8817 309.653 14.3539 310.143 15.09 310.389C17.6664 310.88 19.752 310.511 19.8747 310.143C20.7334 308.671 17.1756 307.935 16.5622 307.69C14.5993 306.954 13.6178 305.113 13.4951 304.009C13.3724 303.15 13.6178 303.028 13.1271 303.028C13.1271 303.028 12.759 303.028 12.391 303.396C11.7776 304.009 10.9188 304.132 10.1827 303.764C9.81463 303.519 9.44658 303.15 9.20121 302.782C9.3239 302.66 8.46511 302.66 8.09706 303.764Z" fill="#3A3A3A"/>
<path d="M24.1682 226.228C24.1682 226.228 18.5248 214.205 27.1126 205.004C27.1126 205.004 34.8417 208.071 40.9758 208.194C45.7605 208.316 48.2141 207.703 48.2141 207.703C48.2141 207.703 49.6863 216.536 49.6863 230.522L24.1682 226.228Z" fill="#3D38A0"/>
<path d="M46.4971 303.519C46.6198 303.519 46.8651 303.519 46.9878 303.519C50.1776 303.396 51.8951 303.028 51.8951 303.028V302.169C51.159 288.183 51.8951 265.241 51.8951 258.003C51.8951 257.512 51.8951 257.022 51.7725 256.653C51.0364 251.378 45.5156 252.36 43.43 257.267C42.9393 258.371 42.5712 259.721 42.3258 261.07C41.9578 262.665 41.8351 264.505 41.7124 266.345C41.2217 278.368 45.2702 294.563 46.4971 303.519Z" fill="#3D38A0"/>
<path d="M34.1061 231.503C34.1061 231.626 34.2288 231.749 34.2288 231.994C35.701 238.374 40.363 255.427 42.4486 260.947C42.8166 261.683 43.6754 262.297 44.9023 262.665C47.724 263.278 51.7725 262.052 51.8952 256.653C51.8952 256.04 51.8952 255.427 51.7725 254.691C51.2818 250.274 49.1962 225.615 48.9508 223.284C48.7054 220.953 48.092 217.517 46.8652 217.027C40.363 214.941 32.0205 222.67 34.1061 231.503Z" fill="#3D38A0"/>
<path d="M40.9761 256.654C40.9761 256.654 42.2029 261.438 41.8349 266.223C41.3441 271.008 43.9205 261.929 43.9205 261.929L42.2029 258.739L40.9761 256.654Z" fill="#594A5F"/>
<path d="M46.9872 303.519C46.9872 303.519 45.6377 289.287 43.9201 279.35C42.5706 271.744 44.1655 265.119 44.9016 262.542C45.147 261.806 45.2696 261.316 45.2696 261.316L43.5521 257.022C41.5891 251.501 40.9757 238.374 40.9757 238.374C44.7789 228.927 44.9016 217.395 44.9016 217.395L41.3438 218.008L35.2096 225.983L34.1055 231.994C35.3323 237.147 38.5221 249.293 40.853 256.654C40.853 256.654 42.0799 261.438 41.7118 266.223C41.5891 266.959 41.5891 267.327 41.7118 267.45C41.4665 279.473 45.2696 294.808 46.4965 303.519C46.7418 303.519 46.8645 303.519 46.9872 303.519Z" fill="#272789"/>
<path d="M22.5736 257.635C26.6222 253.464 32.6337 255.059 30.18 261.438C27.481 268.186 19.1385 286.956 14.7219 300.206L14.4766 301.065C14.4766 301.065 12.5136 300.82 9.20117 299.593C11.1641 291.005 12.2683 276.283 16.8075 265.855C18.1571 262.42 20.488 259.721 22.5736 257.635Z" fill="#3D38A0"/>
<path d="M44.9018 217.395C45.2698 207.457 33.3695 214.573 27.6034 218.008C25.1498 219.48 24.4137 222.302 24.1683 224.878C23.9229 227.455 21.8373 254.2 21.4693 258.984C20.4878 269.903 29.8117 263.646 30.5478 260.579C32.3881 252.85 44.6564 222.793 44.9018 217.395Z" fill="#3D38A0"/>
<path d="M21.9604 252.237C21.9604 252.237 21.8377 257.512 17.6665 264.137C17.6665 264.137 24.6595 260.579 25.0275 259.966C25.3956 259.475 26.377 254.322 26.2543 253.832C26.009 253.341 21.9604 252.237 21.9604 252.237Z" fill="#3D38A0"/>
<path d="M43.3075 155.072C43.3075 155.808 43.3075 158.752 41.8353 159.366C40.2404 160.102 39.2589 160.347 39.3816 160.592C39.3816 160.715 39.5043 161.206 39.7497 161.697C40.1177 162.801 40.6085 163.046 40.6085 163.046L40.8538 166.727L38.0321 169.548L37.1733 170.407L35.8238 169.18L31.4072 165.132C31.4072 165.132 33.2475 162.923 32.0206 160.47C31.8979 160.102 29.8123 157.893 28.2174 155.685C27.236 154.336 26.4999 152.986 26.2545 152.127C25.6411 149.551 25.1504 146.852 26.6226 145.257C28.0948 143.662 38.2775 136.915 40.3631 144.766C40.3631 144.766 42.6941 149.06 43.4302 149.796C44.1663 150.532 44.0436 151.391 43.3075 151.759C42.4487 152.127 43.1848 154.336 43.3075 155.072Z" fill="#FEAF84"/>
<path d="M40.731 166.972L37.9093 169.794L37.0505 170.162L35.5783 169.426L31.1617 165.377C31.1617 165.377 33.0019 163.169 31.7751 160.715C31.6524 160.347 29.5668 158.139 27.9719 155.93L27.7266 154.336C27.7266 154.336 30.9163 153.477 31.039 153.477C31.1617 153.477 32.6339 155.072 32.6339 155.194C32.6339 155.317 32.3885 157.157 32.3885 157.157C32.3885 157.157 32.7566 159.611 33.2473 161.329C33.4927 162.31 34.4741 163.046 35.5783 163.046C36.1917 163.046 36.9278 163.046 37.5412 163.046C38.6454 162.923 39.2588 162.31 39.6268 161.942C39.9949 163.046 40.4856 163.291 40.4856 163.291L40.731 166.972Z" fill="#F29D77"/>
<path d="M31.2844 152.863C31.2844 152.863 31.0391 158.139 34.8422 160.347C38.6454 162.555 43.7981 160.102 44.4115 159.366C45.025 158.63 46.7425 153.968 43.9208 152.373C41.0991 150.778 38.4001 153.477 38.4001 153.477C38.4001 153.477 36.8052 155.194 36.1918 155.194C35.5783 155.194 33.8608 153.6 33.4927 150.287C33.4927 150.164 33.6154 149.919 33.8608 149.919C34.5969 149.674 36.1918 148.815 35.333 145.625C35.2103 145.38 35.4557 145.134 35.701 145.012C36.6825 144.889 38.8908 144.644 39.3815 144.644C39.3815 144.644 39.7496 144.644 40.1176 144.644C40.2403 144.644 40.363 144.766 40.363 144.766C40.4857 145.012 40.8537 145.748 40.9764 145.871C41.0991 146.116 41.9579 147.588 41.9579 147.588C41.9579 147.588 42.4486 147.22 42.3259 146.607C42.2032 145.993 41.7125 144.766 41.7125 144.521C41.7125 144.276 42.694 143.908 42.694 143.171C42.694 141.577 42.0806 135.688 37.4186 139.368C36.8052 139.859 36.1918 140.472 35.701 140.595C34.9649 140.84 34.2288 140.35 32.6339 140.472C30.4257 140.595 21.1017 142.803 24.1688 151.146C27.1132 159.488 32.0205 160.592 32.0205 160.592C32.0205 160.592 30.303 153.845 31.2844 152.863Z" fill="#2C1E56"/>
<path d="M31.2843 152.863C31.2843 152.863 30.7935 151.391 29.6894 151.882C28.0945 152.495 28.2172 156.421 31.775 155.93C31.6523 155.808 31.1616 154.213 31.2843 152.863Z" fill="#F29D77"/>
<path d="M51.1588 210.156C51.1588 210.156 38.5224 213.224 22.6963 210.279C23.4324 205.372 23.8004 197.643 24.0458 191.999V191.386C24.1685 187.828 24.2912 185.252 24.2912 185.129C24.4139 184.884 23.9231 173.474 24.7819 169.058C24.9046 168.199 25.15 167.708 25.518 167.463C27.3583 165.868 29.5666 164.273 32.0202 163.046C32.0202 163.046 37.6636 169.18 40.608 162.433C43.7978 162.187 45.3927 162.801 46.3742 165.991C51.4042 183.78 51.1588 210.156 51.1588 210.156Z" fill="#49C158"/>
<path d="M42.939 162.433C42.939 162.433 48.2143 162.555 53.6124 160.102C56.6795 163.659 58.3971 170.039 58.3971 170.039C58.3971 170.039 51.1587 174.701 45.7607 175.069C44.6565 167.463 42.939 162.433 42.939 162.433Z" fill="#49C158"/>
<path opacity="0.5" d="M43.9204 163.537C43.9204 163.537 47.2329 167.708 48.2143 174.701C51.8948 173.965 57.6609 170.775 58.2744 170.039C56.6795 170.53 49.8092 173.106 48.8277 171.021C47.2329 167.217 43.9204 163.537 43.9204 163.537Z" fill="#5F52DD"/>
<path d="M42.5707 167.585L65.7579 170.039L61.5867 179.363L41.5893 170.039C40.9759 169.794 40.7305 169.18 40.9759 168.69L41.2212 168.199C41.4666 167.708 41.9573 167.463 42.5707 167.585Z" fill="#FFB127"/>
<path opacity="0.5" d="M42.5707 167.585L65.7579 170.039L61.5867 179.363L41.5893 170.039C40.9759 169.794 40.7305 169.18 40.9759 168.69L41.2212 168.199C41.4666 167.708 41.9573 167.463 42.5707 167.585Z" fill="#FFB127"/>
<path d="M65.39 175.192C64.1632 177.768 62.3229 179.609 61.3414 179.241C60.36 178.873 60.6054 176.664 61.8322 174.088C63.059 171.512 64.8993 169.671 65.8807 170.039C66.8622 170.285 66.6168 172.616 65.39 175.192Z" fill="#FFB127"/>
<path opacity="0.5" d="M65.39 175.192C64.1632 177.768 62.3229 179.609 61.3414 179.241C60.36 178.873 60.6054 176.664 61.8322 174.088C63.059 171.512 64.8993 169.671 65.8807 170.039C66.8622 170.285 66.6168 172.616 65.39 175.192Z" fill="#FFB127"/>
<path opacity="0.5" d="M65.39 175.192C64.1632 177.768 62.3229 179.609 61.3414 179.241C60.36 178.873 60.6054 176.664 61.8322 174.088C63.059 171.512 64.8993 169.671 65.8807 170.039C66.8622 170.285 66.6168 172.616 65.39 175.192Z" fill="#FFB127"/>
<path d="M21.9604 185.129C21.9604 185.129 24.4141 193.594 30.7936 197.52C32.6339 198.624 34.9649 198.011 36.4371 196.416C40.731 191.509 45.1476 180.59 46.4971 176.419C43.9208 175.069 43.1847 175.315 43.1847 175.315C43.1847 175.315 37.0505 183.902 33.4927 189.669L30.7936 185.007" fill="#FEAF84"/>
<path d="M42.9395 175.683C42.9395 175.683 44.0436 173.842 44.1663 172.493C44.289 171.143 43.5529 168.69 44.9024 167.463C45.3931 166.972 47.1107 166.236 49.1963 166.604C52.1407 167.095 52.9995 167.954 52.7541 168.567C52.6314 169.18 50.5458 169.426 50.0551 170.407C49.5643 171.511 49.8097 172.125 49.687 173.229C49.4417 174.947 47.1107 175.683 46.4973 176.541C46.1292 177.278 42.9395 175.683 42.9395 175.683Z" fill="#FEAF84"/>
<path opacity="0.5" d="M25.15 206.353C25.8861 203.777 26.2541 194.944 26.2541 192.613C28.217 192.367 32.0202 190.895 34.3512 187.337C33.4924 185.865 31.4068 180.958 27.6036 176.787L25.3953 168.444C25.3953 168.444 25.15 168.689 24.7819 169.058C23.8004 173.474 24.4139 184.884 24.2912 185.129C24.1685 185.252 24.1685 187.828 24.0458 191.386V191.999C23.8004 197.643 23.4324 205.372 22.6963 210.279C38.5224 213.223 51.1588 210.156 51.1588 210.156C35.3327 211.506 24.2912 209.175 25.15 206.353Z" fill="#5F52DD"/>
<path d="M26.99 166.359C26.99 166.359 20.4878 170.653 20.1198 178.014C19.8744 183.657 23.6776 191.877 23.6776 191.877C23.6776 191.877 30.1798 192.613 33.6149 187.337C32.6335 184.761 31.7747 182.43 29.8118 179.486" fill="#49C158"/>
<path opacity="0.4" d="M250.151 284.38C250.151 285.607 233.834 286.466 213.591 286.466C193.471 286.343 177.154 285.362 177.154 284.135C177.154 282.908 193.471 282.049 213.714 282.049C233.834 282.172 250.151 283.276 250.151 284.38Z" fill="#B0AFFD"/>
<path d="M209.298 152.25C209.298 152.25 210.034 146.116 212.61 143.908C215.923 140.963 223.038 141.822 225.737 144.521C228.804 147.588 230.276 153.845 227.823 158.261C232.853 161.206 232.485 167.585 228.314 168.199L229.786 175.928C230.645 180.713 227.332 185.374 222.179 186.356L212.978 188.196C212.978 188.196 197.152 186.724 195.925 178.872C194.698 171.021 201.937 167.463 201.937 167.463C201.937 167.463 198.502 160.838 202.059 156.299C205.617 151.759 209.298 152.25 209.298 152.25Z" fill="#2C1E56"/>
<path d="M231.871 175.192C231.871 175.192 246.102 177.4 250.028 177.277C253.095 177.4 258.003 160.838 258.493 159.856C260.947 158.384 261.56 156.299 261.438 155.072C261.438 153.968 258.371 152.986 258.003 153.477C258.493 152.005 258.616 151.514 258.739 150.901C258.984 149.796 258.248 148.938 257.021 153.109C255.794 157.157 255.917 156.421 255.672 157.893C253.709 161.574 248.801 170.162 248.556 171.389C242.176 171.266 231.38 168.69 231.38 168.69L231.871 175.192Z" fill="#ED9C80"/>
<path d="M210.033 175.315C210.033 175.315 198.869 184.393 195.679 186.356C193.348 188.196 178.749 177.155 177.768 176.664C174.823 176.787 173.596 175.683 172.86 174.824C172.124 173.842 173.965 171.389 174.578 171.757C173.228 170.775 172.738 170.53 172.37 170.162C171.388 169.426 171.634 168.322 175.191 171.021C178.749 173.597 178.258 173.106 179.363 174.088C183.288 176.051 192.735 180.222 193.839 181.081C198.869 177.523 205.985 169.549 205.985 169.549L210.033 175.315Z" fill="#ED9C80"/>
<path d="M227.086 274.443C227.086 274.443 227.7 277.142 227.7 279.227C227.454 280.7 227.7 281.19 227.7 281.19L233.711 280.7C233.711 280.7 231.012 279.473 231.258 273.707C231.38 267.941 227.086 274.443 227.086 274.443Z" fill="#ED9C80"/>
<path d="M227.577 279.718C227.577 279.718 230.153 280.577 232.852 279.963C235.919 281.313 238.005 281.803 240.827 282.049C243.648 282.417 243.158 284.502 238.373 284.134C233.588 283.766 230.276 284.012 229.294 284.134C228.19 284.257 226.595 284.38 226.473 283.644C226.35 283.153 226.718 279.472 227.577 279.718Z" fill="#2C1E56"/>
<path d="M229.417 200.465C229.417 200.465 233.343 235.429 233.589 239.969C233.834 244.508 233.834 246.103 233.589 248.924C233.343 251.746 235.306 275.056 235.306 275.056C235.306 275.056 226.228 277.142 223.897 275.301C223.897 275.301 224.265 249.783 223.161 245.489C222.056 241.073 217.517 218.99 217.517 218.99L222.67 196.416L229.417 200.465Z" fill="#201D93"/>
<path d="M210.033 233.957C210.033 233.957 209.297 241.441 207.825 242.79C206.844 244.999 206.844 244.999 208.316 245.857C210.524 247.207 214.941 249.783 216.045 248.679C220.216 244.508 220.339 243.158 221.32 237.76C221.688 236.533 227.454 201.323 227.454 201.323C227.454 201.323 209.052 198.747 208.929 203.777C209.052 208.93 211.015 228.068 210.033 233.957Z" fill="#2D24A3"/>
<path d="M187.337 265.487C187.337 265.487 185.374 267.572 183.533 268.799C182.061 269.535 181.938 269.903 181.938 269.903L185.987 274.075C185.987 274.075 185.374 271.375 190.526 268.063C195.679 264.751 187.337 265.487 187.337 265.487Z" fill="#ED9C80"/>
<path d="M183.166 269.045C183.166 269.045 184.024 271.498 186.11 272.971C186.846 276.038 187.705 277.878 189.054 280.086C190.404 282.295 188.318 283.276 185.742 279.595C183.166 275.915 180.957 273.584 180.221 272.971C179.485 272.234 178.381 271.13 178.872 270.64C179.485 270.149 182.798 268.186 183.166 269.045Z" fill="#2C1E56"/>
<path d="M208.561 241.686C200.587 251.746 186.969 259.23 183.166 265.119C182.429 266.959 191.385 271.743 191.385 271.743C191.385 271.743 209.911 254.936 213.714 251.255C215.186 249.783 216.658 248.679 217.762 247.207C214.082 245.98 210.769 238.864 208.561 241.686Z" fill="#2D24A3"/>
<path d="M225.737 179.976C225.246 181.203 229.295 198.87 230.031 202.796C230.031 202.796 229.908 202.796 229.786 202.796C227.945 202.55 217.027 201.078 208.071 204.758L207.212 179.976V178.995C207.212 178.995 207.212 178.014 207.335 176.664C207.58 173.72 208.193 168.69 210.034 165.5C211.015 163.905 212.365 162.678 214.082 162.433C219.603 161.942 219.603 164.15 224.756 165.377L233.098 167.463C233.098 167.463 232.117 173.965 233.098 175.805H227.332C227.332 175.928 226.228 178.75 225.737 179.976Z" fill="#FF66FF"/>
<path d="M224.265 146.852C224.265 146.852 227.823 154.949 225.124 158.629C223.161 161.451 219.603 161.451 219.603 161.451V165.5C219.603 165.5 219.235 165.868 218.499 165.868C217.272 165.99 214.082 164.027 214.082 164.027V148.324L224.265 146.852Z" fill="#ED9C80"/>
<path d="M211.383 175.805C209.543 177.646 208.193 178.995 207.334 179.976V178.995C207.334 178.995 207.334 170.285 210.156 165.5C210.647 165.377 211.015 165.377 211.506 165.377C215.8 165.745 215.554 171.634 211.383 175.805Z" fill="#D33CD3"/>
<path d="M233.098 175.928C233.098 175.928 229.172 175.805 228.804 175.069C228.313 174.333 226.841 171.02 224.387 169.916C224.387 169.916 227.7 173.106 227.332 175.928H233.098V175.928Z" fill="#D33CD3"/>
<path d="M229.786 202.795C227.945 202.55 217.027 201.078 208.071 204.758L207.212 179.976V178.995C207.212 178.995 207.212 178.013 207.335 176.664L209.42 177.277C209.42 177.277 209.543 198.992 210.524 200.342C211.629 201.691 221.075 200.71 223.529 201.078C225.492 201.446 228.436 202.427 229.786 202.795Z" fill="#D33CD3"/>
<path d="M199.851 173.352C199.851 173.352 206.966 164.028 211.383 164.396C215.799 164.764 215.554 170.652 211.383 174.824C207.212 178.995 205.862 180.59 205.862 180.59C205.862 180.59 200.709 178.259 199.851 173.352Z" fill="#FF66FF"/>
<path d="M224.633 145.871C224.633 145.871 223.038 153.109 219.235 155.072C215.431 157.035 218.253 161.697 214.695 165.255C213.591 166.236 211.996 166.113 210.77 165.745C209.052 165.255 206.966 165.623 205.739 166.849C205.617 166.972 205.494 167.095 205.371 167.217C200.709 164.15 212.61 146.852 212.61 146.852L224.633 145.871Z" fill="#2C1E56"/>
</svg>
