<svg width="378" height="338" viewBox="0 0 378 338" fill="none" xmlns="http://www.w3.org/2000/svg">
<path d="M67 68.4099H71.82" stroke="white" stroke-miterlimit="10" stroke-linecap="round"/>
<path d="M69.4099 66V70.81" stroke="white" stroke-miterlimit="10" stroke-linecap="round"/>
<path d="M188.43 274.11H193.24" stroke="white" stroke-miterlimit="10" stroke-linecap="round"/>
<path d="M190.84 271.7V276.52" stroke="white" stroke-miterlimit="10" stroke-linecap="round"/>
<path d="M137.57 52.0201C137.57 53.2401 136.58 54.2301 135.36 54.2301C134.14 54.2301 133.15 53.2401 133.15 52.0201C133.15 50.8001 134.14 49.8101 135.36 49.8101C136.59 49.8201 137.57 50.8001 137.57 52.0201Z" fill="white"/>
<path d="M317.42 74.21C317.42 75.43 316.43 76.42 315.21 76.42C313.99 76.42 313 75.43 313 74.21C313 72.99 313.99 72 315.21 72C316.44 72.01 317.42 72.99 317.42 74.21Z" fill="white"/>
<path d="M365.89 145.03C365.89 146.25 364.9 147.24 363.68 147.24C362.46 147.24 361.47 146.25 361.47 145.03C361.47 143.81 362.46 142.82 363.68 142.82C364.9 142.82 365.89 143.81 365.89 145.03Z" fill="white"/>
<path d="M223.53 204.8C223.53 206.02 222.54 207.01 221.32 207.01C220.1 207.01 219.11 206.02 219.11 204.8C219.11 203.58 220.1 202.59 221.32 202.59C222.54 202.59 223.53 203.58 223.53 204.8Z" fill="#3F49A5"/>
<path d="M185.42 143.21C185.42 144.43 184.43 145.42 183.21 145.42C181.99 145.42 181 144.43 181 143.21C181 141.99 181.99 141 183.21 141C184.43 141 185.42 141.99 185.42 143.21Z" fill="#3F49A5"/>
<path d="M89.65 194.11C89.65 195.33 88.66 196.32 87.44 196.32C86.22 196.32 85.23 195.33 85.23 194.11C85.23 192.89 86.22 191.9 87.44 191.9C88.66 191.9 89.65 192.89 89.65 194.11Z" fill="white"/>
<path d="M4.42 166.21C4.42 167.43 3.43 168.42 2.21 168.42C0.990001 168.42 0 167.43 0 166.21C0 164.99 0.990001 164 2.21 164C3.43 164 4.42 164.99 4.42 166.21Z" fill="#3F49A5"/>
<path d="M182 3.40991H186.82" stroke="#3F49A5" stroke-miterlimit="10" stroke-linecap="round"/>
<path d="M184.41 1V5.81" stroke="#3F49A5" stroke-miterlimit="10" stroke-linecap="round"/>
<path d="M251 129.4H255.81" stroke="white" stroke-miterlimit="10" stroke-linecap="round"/>
<path d="M253.4 127V131.81" stroke="white" stroke-miterlimit="10" stroke-linecap="round"/>
<path d="M278.92 282.97H283.73" stroke="#3F49A5" stroke-miterlimit="10" stroke-linecap="round"/>
<path d="M281.32 280.56V285.37" stroke="#3F49A5" stroke-miterlimit="10" stroke-linecap="round"/>
<path d="M25.5 225.98H30.31" stroke="white" stroke-miterlimit="10" stroke-linecap="round"/>
<path d="M27.9099 223.57V228.39" stroke="white" stroke-miterlimit="10" stroke-linecap="round"/>
<ellipse cx="123.5" cy="335" rx="26.5" ry="3" fill="#C4C4C4" fill-opacity="0.2"/>
<ellipse cx="338" cy="335" rx="30" ry="3" fill="#C4C4C4" fill-opacity="0.2"/>
<path d="M178.87 163.3L99.1799 170.9C97.9699 171.01 96.8999 170.12 96.7899 168.91L94.9999 149C94.8899 147.78 95.7799 146.71 96.9999 146.61L176.69 139.01C177.89 138.9 178.96 139.79 179.07 141L180.86 160.91C180.98 162.12 180.08 163.19 178.87 163.3Z" fill="white"/>
<path d="M109.245 159.227C109.287 159.711 109.2 160.166 108.985 160.594C108.778 161.021 108.444 161.376 107.981 161.66C107.528 161.943 106.96 162.114 106.277 162.173C105.25 162.263 104.382 162.086 103.674 161.643C102.965 161.2 102.542 160.532 102.404 159.639L104.761 159.434C104.825 159.777 104.97 160.038 105.194 160.219C105.427 160.399 105.708 160.474 106.036 160.446C106.321 160.421 106.539 160.324 106.689 160.154C106.84 159.984 106.904 159.77 106.881 159.511C106.861 159.278 106.766 159.09 106.598 158.948C106.437 158.806 106.241 158.697 106.008 158.621C105.775 158.537 105.453 158.443 105.044 158.34C104.448 158.191 103.957 158.043 103.57 157.894C103.191 157.735 102.852 157.486 102.552 157.147C102.261 156.798 102.09 156.33 102.039 155.743C101.992 155.199 102.089 154.716 102.331 154.295C102.573 153.874 102.926 153.539 103.392 153.29C103.865 153.031 104.417 152.874 105.047 152.82C106.066 152.731 106.894 152.903 107.532 153.335C108.179 153.766 108.577 154.401 108.729 155.24L106.333 155.448C106.263 155.15 106.13 154.922 105.934 154.765C105.746 154.599 105.5 154.529 105.198 154.555C104.939 154.578 104.733 154.665 104.581 154.817C104.438 154.969 104.378 155.179 104.401 155.446C104.42 155.662 104.505 155.842 104.657 155.985C104.816 156.119 105.008 156.224 105.232 156.301C105.456 156.377 105.778 156.471 106.196 156.582C106.801 156.73 107.297 156.887 107.686 157.053C108.073 157.211 108.417 157.464 108.717 157.812C109.017 158.16 109.193 158.632 109.245 159.227ZM116.477 151.97L116.63 153.732L114.143 153.948L114.786 161.343L112.558 161.536L111.915 154.141L109.455 154.355L109.302 152.594L116.477 151.97ZM119.778 153.458L119.944 155.375L123.04 155.106L123.185 156.777L120.089 157.046L120.266 159.079L123.75 158.776L123.904 160.551L118.206 161.046L117.41 151.889L123.109 151.394L123.262 153.155L119.778 153.458ZM127.229 158.552L130.182 158.296L130.329 159.992L125.162 160.441L124.366 151.285L126.581 151.092L127.229 158.552ZM133.414 158.015L136.367 157.758L136.514 159.455L131.347 159.904L130.551 150.747L132.766 150.555L133.414 158.015ZM143.059 157.203L139.627 157.501L139.202 159.221L136.871 159.424L139.435 150.041L141.987 149.819L146.131 158.619L143.774 158.824L143.059 157.203ZM142.343 155.569L140.91 152.301L140.05 155.768L142.343 155.569ZM152.548 158.062L150.371 155.38L148.96 158.374L146.422 158.594L148.939 153.626L145.536 149.446L148.165 149.217L150.282 151.813L151.662 148.913L154.187 148.694L151.7 153.556L155.177 157.834L152.548 158.062ZM157.454 148.41L158.249 157.567L156.035 157.759L155.239 148.603L157.454 148.41ZM161.133 148.091L161.592 153.375C161.645 153.979 161.818 154.429 162.114 154.726C162.418 155.021 162.829 155.146 163.347 155.101C163.865 155.056 164.244 154.862 164.484 154.52C164.732 154.176 164.831 153.702 164.778 153.098L164.319 147.814L166.534 147.621L166.993 152.905C167.068 153.769 166.963 154.513 166.678 155.138C166.392 155.754 165.969 156.239 165.408 156.592C164.855 156.936 164.211 157.14 163.478 157.204C162.744 157.268 162.083 157.177 161.497 156.932C160.91 156.687 160.431 156.281 160.06 155.713C159.688 155.145 159.465 154.429 159.39 153.566L158.931 148.282L161.133 148.091ZM175.164 153.5C175.206 153.984 175.12 154.439 174.905 154.867C174.698 155.294 174.364 155.649 173.901 155.933C173.447 156.216 172.879 156.387 172.197 156.446C171.17 156.536 170.302 156.359 169.593 155.916C168.885 155.473 168.462 154.805 168.323 153.912L170.68 153.707C170.745 154.05 170.889 154.311 171.114 154.492C171.347 154.671 171.628 154.747 171.956 154.719C172.241 154.694 172.458 154.597 172.609 154.427C172.759 154.257 172.823 154.043 172.801 153.784C172.781 153.551 172.686 153.363 172.517 153.221C172.357 153.079 172.16 152.97 171.928 152.894C171.694 152.81 171.373 152.716 170.964 152.613C170.368 152.464 169.877 152.316 169.49 152.167C169.11 152.008 168.771 151.759 168.472 151.42C168.181 151.071 168.01 150.603 167.959 150.016C167.911 149.472 168.009 148.989 168.25 148.568C168.492 148.147 168.846 147.812 169.311 147.563C169.785 147.304 170.337 147.147 170.967 147.093C171.986 147.004 172.814 147.176 173.452 147.607C174.098 148.038 174.497 148.674 174.648 149.513L172.252 149.721C172.183 149.423 172.05 149.195 171.854 149.038C171.665 148.872 171.42 148.802 171.118 148.828C170.859 148.851 170.653 148.938 170.501 149.09C170.358 149.242 170.298 149.452 170.321 149.719C170.34 149.935 170.425 150.115 170.576 150.258C170.736 150.392 170.928 150.497 171.152 150.574C171.376 150.65 171.697 150.744 172.116 150.855C172.72 151.003 173.217 151.16 173.605 151.326C173.993 151.484 174.337 151.737 174.637 152.085C174.937 152.433 175.113 152.905 175.164 153.5Z" fill="#F41E3D"/>
<path d="M159.17 170.83C159.17 170.83 159.24 169.79 159.31 168.71C159.38 167.72 158.93 167.07 158.89 166.83C158.78 166.19 158.89 165.1 158.89 165.1L160.28 164.97C160.28 164.97 160.87 164.12 161.45 163.02C161.61 162.72 161.71 162.4 161.71 162.06C161.71 161.19 161.74 161.09 161.79 160.58C161.85 159.88 162.42 159.62 162.63 160.45C162.83 161.22 162.81 162.29 162.81 162.69C162.81 163.09 162.07 164.85 162.07 164.85C162.07 164.85 164.2 166.08 164.26 166.48C164.32 166.88 163.34 168.52 162.59 171.46" fill="#FE9393"/>
<path d="M162.52 160.74C162.52 160.74 162.3 159.76 162.75 159.65C163.12 159.55 163.33 160.32 163.44 160.74C163.55 161.16 163.75 162.51 163.83 162.96C163.91 163.41 162.86 166.04 162.86 166.04L161.66 164.98L162.25 161.91" fill="#FE9393"/>
<path d="M163.35 161.33C163.35 161.33 163.29 160.61 163.63 160.45C163.97 160.29 164.16 160.9 164.27 161.33C164.38 161.75 164.58 163.1 164.66 163.55C164.74 164 163.69 166.63 163.69 166.63L162.49 165.57L163.08 162.5" fill="#FE9393"/>
<path d="M164.66 161.71C164.6 162.1 164.76 162.72 164.8 163C164.84 163.32 164.46 164.01 164.46 164.01L163.67 166.28L164.06 167.26L165.29 164.4L165.5 163.82C165.61 163.48 165.63 163.12 165.55 162.77C165.37 162.02 165.02 160.87 164.66 161.71Z" fill="#FE9393"/>
<path d="M122.38 174.27C122.38 174.27 123.56 171.32 123.54 170.94C123.52 170.56 122.79 168.59 122.68 168.21C122.58 167.83 122.74 165.45 123.05 165.01C123.36 164.57 123.68 164.88 123.8 165.32C123.93 165.76 124.02 166.65 124 166.93C123.98 167.21 124.67 168.18 124.67 168.18L128.12 167.87L129.34 167.76C129.34 167.76 129.12 168.84 128.87 169.49C128.62 170.15 128.12 170.55 127.77 170.88C127.43 171.21 126.52 173.7 126.22 174.65" fill="#FE9393"/>
<path d="M135.55 317.37V322.41C135.55 322.41 137.36 322.97 139.05 322.41L139.71 317.37" fill="#FE9393"/>
<path d="M103.62 313.6L102.3 318.46C102.3 318.46 103.9 319.48 105.68 319.38L107.63 314.69" fill="#FE9393"/>
<path d="M122.34 173.59C122.34 173.59 125.16 173.85 126.78 174.51C126.78 174.51 124.8 186.69 122.84 191.38C121.27 195.15 124.27 205.29 124.27 205.29L118.56 209.17C118.56 209.17 115.89 195.45 115.56 192.03C115.23 188.61 122.34 173.59 122.34 173.59Z" fill="#FD96F3"/>
<path d="M129.84 243.67C129.84 247.83 129.09 253.18 127.98 258.82C127.08 263.36 125.94 268.07 124.74 272.51C123.56 276.97 122.32 281.13 121.23 284.55C117.69 295.64 107.13 316.9 107.13 316.9C104.67 317.11 102.84 315.61 102.84 315.61C102.84 315.61 107.39 290.48 110.97 282.92C111.23 281.03 111.36 270.44 112.31 262.64C112.79 258.67 112.63 254.65 112.14 250.68C111.47 245.36 113.25 240.34 113.25 240.34L129.84 243.67Z" fill="#2034AA"/>
<path d="M127.98 258.82C127.08 263.36 125.94 268.07 124.74 272.51C121.14 262 120.48 250.77 120.48 250.77C120.48 250.77 125.8 256.7 127.98 258.82Z" fill="#102772"/>
<path d="M140.35 241.5C140.35 241.5 142.99 272.53 143.16 284.55C143.33 296.56 139.61 320.22 139.61 320.22C139.61 320.22 138.65 321.14 135.04 320.25C135.04 320.25 131.57 294.52 132.95 284.79C132.95 284.79 126.48 269.88 123.22 259.78C122.6 257.85 121.52 254.14 121.08 252.52C118.33 242.43 125.59 236.17 125.59 236.17" fill="#2034AA"/>
<path d="M158.29 170.42C158.29 170.42 154.79 184.27 151.62 191.61C143.8 196.89 136.02 202.84 136.02 202.84L128 200.71C124 203.07 121.08 208.47 119.32 217.6C117.58 226.73 109.3 244.72 109.3 244.72C125.83 253.48 142.32 248.83 142.32 248.83C142.32 248.83 142.51 232.18 142.53 222.37C142.54 216.06 145.22 210.06 149.86 205.78C153.34 202.57 156.81 198.89 158.37 196.32C161.62 188.1 163.25 171.29 163.25 171.29C161.17 169.8 158.29 170.42 158.29 170.42Z" fill="#FD96F3"/>
<path d="M136.46 199.42C136.16 200.4 135.94 201.59 136.02 202.83C136.02 202.83 133.22 203.91 130.59 202.1C127.96 200.29 130.63 196.89 130.63 196.89H137.52C137.52 196.89 136.91 197.92 136.46 199.42Z" fill="#FE9393"/>
<path d="M137.52 196.89C137.52 196.89 136.91 197.92 136.46 199.42C134.17 199.52 133.09 198.63 133.09 198.63C133.09 198.63 133.72 197.71 134.29 196.89H137.52Z" fill="#E15F60"/>
<path d="M137.28 183.45C137.28 183.45 140.3 189.36 140.2 194.52C138.79 196.38 137.04 197.54 135.57 198.25C133.6 199.2 131.22 198.81 129.68 197.25C128.81 196.37 127.85 195.14 126.96 193.45C123.03 185.97 131.63 177.64 137.28 183.45Z" fill="#FE9393"/>
<path d="M134.6 176.85C139.28 178.02 139.61 182.09 138.47 183.49C136.54 185.87 135.46 185.53 134.28 185.89C130.88 186.93 131.86 194.81 131.65 198.93C131.45 203.05 135.12 220.4 128.02 223.66C126.09 224.54 123.6 223.11 119.74 225.45C115.87 227.79 106.81 225.76 108.65 217.31C110.48 208.86 119.26 205.47 121.81 197.32C122.66 194.62 120.73 192.54 120.19 190.63C118.88 186 120.47 182.9 121.75 180.94C123.93 177.62 129.92 175.68 134.6 176.85Z" fill="#514F1F"/>
<path d="M131.96 190.31C131.96 190.31 131.47 188.92 130.1 189.59C128.43 190.41 130.26 194.1 131.82 193.47" fill="#FE9393"/>
<path d="M130.11 190.41C130.11 190.41 130.7 190.16 131.02 190.65C131.42 191.26 131.92 192.25 131.17 192.4C130.66 192.5 130.18 191.51 130.98 191.2C130.99 191.2 130.75 190.31 130.11 190.41Z" fill="#E15F60"/>
<path d="M134.32 323.92C134.32 323.92 134.42 322.55 135.55 321.84C135.55 321.84 136.06 321.38 137.56 321.84C138.02 321.98 138.65 322.52 139.05 322.4C139.05 322.4 139.98 323.85 140.83 325.56C141.22 326.34 141.73 327.44 142.38 328.16C143.15 329.01 144.31 329.21 144.36 329.8C144.43 330.57 144.49 330.75 142.38 330.75C142.38 330.75 139.5 330.05 138.71 329.23C137.93 328.43 134.32 323.92 134.32 323.92Z" fill="#2034AA"/>
<path d="M138.98 330.76C138.04 330.76 137.16 330.27 136.68 329.46C135.8 327.98 134.61 325.67 134.38 325.01C133.61 322.74 136.61 322.86 137.34 323.68C137.97 324.39 138.88 326.21 139.71 327.84C140.53 329.47 141.14 330.44 142.39 330.77H138.98V330.76Z" fill="#112977"/>
<path d="M105.69 319.38C105.69 319.38 106.04 320.13 105.95 320.96C105.87 321.79 105.25 330 104.23 330.66C104.03 330.79 103.68 330.94 102.71 330.94C101.75 330.94 101.35 329.47 100.44 327.18C99.4998 324.83 100.5 321.07 100.84 319.04C100.98 318.71 101.56 318.04 102.05 317.6C102.4 317.28 102.87 317.14 103.34 317.17C104.03 317.23 104.98 317.52 104.89 318.69C104.87 318.96 104.8 319.16 105.69 319.38Z" fill="#2034AA"/>
<path d="M100.47 319.78C100.72 318.79 101.31 318.44 102.1 318.34C103.01 318.22 104.33 319.11 104.23 321.24C104.14 323.37 104.05 329.11 103.87 329.84C103.45 331.53 101.58 331.08 100.99 329.7C100.44 328.45 99.3897 324.05 100.47 319.78Z" fill="#112977"/>
<path d="M321.164 321.88V327.92C321.164 327.92 322.984 328.42 325.024 327.92L325.314 321.17" fill="#FE9393"/>
<path d="M325.064 327.1C325.064 327.1 324.544 327.64 322.644 327.58C322.644 327.58 321.594 326.72 320.304 327.17C320.304 327.17 318.404 328.83 317.064 329.1C315.714 329.37 314.144 329.53 313.784 330.13C313.424 330.72 313.554 331.11 313.554 331.11C313.554 331.11 313.464 331.36 315.104 331.43C316.744 331.5 322.014 331.27 322.924 331.32C323.834 331.37 325.064 331.39 325.634 331.21C326.214 331.02 326.154 328.16 325.064 327.1Z" fill="#2034AA"/>
<path d="M354.574 320.3L356.354 326.07C356.354 326.07 358.244 326.01 360.044 324.93L358.334 318.39" fill="#FE9393"/>
<path d="M362.244 327.33C361.834 327.76 360.744 328.33 359.914 328.72C359.454 328.93 357.854 329.86 356.274 330.77C355.654 331.12 354.934 331.31 354.224 331.31H351.634C351.154 331.31 350.974 330.98 350.994 330.77C351.024 330.23 351.484 329.77 352.244 329.63C352.434 329.6 352.624 329.54 352.814 329.46C353.664 329.14 354.354 328.5 354.834 327.74C355.314 326.98 355.654 326.31 355.654 326.31C356.564 325.3 357.904 325.56 357.904 325.56C359.604 324.72 359.804 323.99 359.804 323.99C361.254 324.4 362.654 326.9 362.244 327.33Z" fill="#2034AA"/>
<path d="M335.154 257.95C335.074 259.16 334.964 260.21 334.824 261.02C334.524 262.8 333.784 265.61 332.884 268.76C331.324 274.16 329.284 280.53 328.144 284.22C332.554 293.24 326.264 323.12 325.474 325.6C323.274 325.98 321.604 325.65 320.804 325.36C319.864 311.59 318.244 283.6 318.264 282.93C318.634 268.77 320.364 255.71 320.504 253.63C320.654 251.55 320.864 239.91 321.864 239.51C324.064 238.69 329.774 236.79 332.354 240.54C335.054 244.47 335.484 252.67 335.154 257.95Z" fill="#2034AA"/>
<path d="M335.154 257.95C335.074 259.16 334.964 260.21 334.824 261.02C334.524 262.8 333.784 265.61 332.884 268.76C332.614 264.3 332.094 251.91 332.094 251.91L335.154 257.95Z" fill="#102772"/>
<path d="M359.744 322.25C357.874 323.77 355.884 323.71 355.084 323.67C355.474 324.22 342.334 294.74 340.204 288.76C340.074 288.38 339.524 286.78 339.364 286.24C338.354 283.1 335.074 267.13 333.514 260.88L329.084 240.81C329.084 240.81 323.034 241.63 327.364 241.38C332.864 241.05 339.724 238.31 339.724 238.31C348.894 246.13 349.734 255.13 349.354 259.63C349.204 261.45 349.144 263.27 349.234 265.1C349.564 271.82 348.424 280.81 348.694 285.3C358.654 299 359.194 317.3 359.744 322.25Z" fill="#2034AA"/>
<path d="M320.924 201.64C322.564 200.27 325.184 198.95 327.814 198.08C329.674 197.77 332.834 197.91 336.164 198.77C340.024 199.77 344.514 200.62 345.184 202.08C345.814 203.47 346.494 217.73 345.574 222.64C344.874 226.34 343.094 235.49 343.094 237.7C343.094 239.91 344.284 240.86 343.724 241.5C342.484 242.94 334.004 243.54 330.024 243.54C326.484 243.54 320.444 242.6 320.144 241.46C319.694 239.77 320.834 239.84 320.994 238.07C321.134 236.31 319.534 203.24 320.924 201.64Z" fill="white"/>
<path d="M341.084 213.2C341.084 213.2 341.664 222.9 342.294 229.55C342.444 231.14 342.064 233.03 342.294 234.03L346.014 232.93L343.074 216.79L341.084 213.2Z" fill="#3A5ACE"/>
<g filter="url(#filter0_d)">
<path d="M371.564 261.83L302.424 251.33C301.224 251.15 300.394 250.03 300.574 248.82L303.574 229.06C303.754 227.86 304.874 227.03 306.084 227.21L375.224 237.71C376.424 237.89 377.254 239.01 377.074 240.22L374.074 259.98C373.894 261.19 372.774 262.02 371.564 261.83Z" fill="#15A0DB"/>
</g>
<path d="M312.668 242.777C312.611 243.146 312.464 243.471 312.225 243.752C311.993 244.033 311.678 244.238 311.281 244.365C310.89 244.494 310.434 244.519 309.914 244.439C309.13 244.319 308.513 244.028 308.065 243.568C307.616 243.108 307.421 242.532 307.48 241.84L309.279 242.116C309.265 242.383 309.325 242.605 309.46 242.781C309.602 242.958 309.798 243.065 310.048 243.104C310.265 243.137 310.446 243.104 310.589 243.005C310.733 242.905 310.82 242.757 310.85 242.559C310.877 242.381 310.841 242.224 310.74 242.087C310.646 241.951 310.519 241.834 310.359 241.735C310.2 241.63 309.977 241.501 309.69 241.349C309.272 241.13 308.932 240.929 308.669 240.747C308.415 240.56 308.207 240.312 308.045 240.004C307.891 239.69 307.848 239.309 307.917 238.861C307.981 238.446 308.141 238.103 308.399 237.833C308.656 237.562 308.981 237.376 309.375 237.274C309.775 237.167 310.216 237.15 310.697 237.224C311.475 237.344 312.063 237.623 312.461 238.061C312.865 238.501 313.048 239.049 313.008 239.703L311.179 239.423C311.182 239.187 311.124 238.993 311.006 238.84C310.895 238.681 310.725 238.584 310.494 238.549C310.296 238.518 310.127 238.546 309.986 238.633C309.851 238.72 309.768 238.866 309.736 239.07C309.711 239.235 309.742 239.384 309.829 239.519C309.924 239.648 310.048 239.762 310.202 239.86C310.356 239.957 310.579 240.086 310.871 240.246C311.296 240.466 311.638 240.674 311.898 240.869C312.16 241.057 312.371 241.309 312.531 241.623C312.692 241.938 312.738 242.323 312.668 242.777ZM317.825 244.277L315.206 243.875L314.575 245.084L312.796 244.81L316.421 238.265L318.368 238.563L319.864 245.895L318.065 245.619L317.825 244.277ZM317.588 242.926L317.112 240.222L315.838 242.657L317.588 242.926ZM322.409 244.961L324.663 245.306L324.464 246.601L320.52 245.996L321.593 239.008L323.283 239.267L322.409 244.961ZM327.797 241.336L327.573 242.799L329.935 243.161L329.739 244.436L327.377 244.074L327.139 245.626L329.798 246.034L329.59 247.388L325.241 246.72L326.313 239.732L330.662 240.4L330.456 241.744L327.797 241.336ZM335.873 246.339C335.816 246.708 335.668 247.033 335.43 247.313C335.198 247.594 334.883 247.799 334.486 247.927C334.095 248.056 333.639 248.08 333.119 248C332.335 247.88 331.718 247.59 331.269 247.13C330.821 246.67 330.626 246.093 330.685 245.401L332.484 245.677C332.47 245.945 332.53 246.167 332.665 246.342C332.806 246.519 333.002 246.627 333.253 246.665C333.47 246.699 333.651 246.666 333.794 246.566C333.938 246.467 334.024 246.318 334.055 246.121C334.082 245.943 334.045 245.785 333.945 245.648C333.851 245.513 333.724 245.395 333.564 245.297C333.405 245.191 333.182 245.063 332.895 244.911C332.477 244.691 332.136 244.491 331.874 244.309C331.62 244.121 331.412 243.874 331.25 243.566C331.096 243.252 331.053 242.871 331.122 242.423C331.185 242.008 331.346 241.665 331.603 241.394C331.861 241.123 332.186 240.937 332.579 240.836C332.98 240.729 333.421 240.712 333.902 240.786C334.68 240.905 335.268 241.184 335.666 241.623C336.07 242.063 336.253 242.61 336.213 243.265L334.384 242.984C334.387 242.749 334.329 242.554 334.211 242.401C334.1 242.243 333.93 242.146 333.699 242.11C333.501 242.08 333.332 242.108 333.19 242.194C333.056 242.281 332.973 242.427 332.941 242.631C332.916 242.796 332.947 242.946 333.034 243.081C333.129 243.21 333.253 243.323 333.407 243.421C333.56 243.519 333.783 243.647 334.076 243.807C334.501 244.027 334.843 244.235 335.103 244.43C335.364 244.619 335.575 244.87 335.736 245.185C335.897 245.5 335.942 245.884 335.873 246.339ZM342.134 242.16L341.928 243.505L339.062 243.065L338.826 244.597L341.041 244.937L340.843 246.222L338.629 245.882L338.195 248.709L336.505 248.449L337.578 241.461L342.134 242.16ZM346.34 242.695C346.999 242.796 347.572 243.042 348.058 243.434C348.552 243.82 348.912 244.31 349.137 244.905C349.364 245.492 349.425 246.129 349.32 246.814C349.215 247.5 348.962 248.092 348.562 248.59C348.168 249.089 347.677 249.452 347.089 249.679C346.509 249.9 345.893 249.961 345.24 249.861C344.588 249.761 344.015 249.518 343.521 249.132C343.035 248.74 342.676 248.246 342.443 247.651C342.218 247.056 342.157 246.417 342.262 245.731C342.368 245.046 342.617 244.457 343.009 243.964C343.409 243.466 343.9 243.106 344.48 242.885C345.068 242.658 345.688 242.595 346.34 242.695ZM346.099 244.266C345.546 244.181 345.076 244.295 344.691 244.607C344.314 244.913 344.077 245.376 343.982 245.995C343.888 246.608 343.975 247.12 344.242 247.532C344.516 247.945 344.93 248.194 345.483 248.279C346.03 248.363 346.496 248.249 346.881 247.937C347.266 247.626 347.506 247.163 347.6 246.55C347.694 245.938 347.604 245.425 347.33 245.012C347.063 244.6 346.653 244.351 346.099 244.266ZM353.317 251.03L352.21 248.158L351.825 248.099L351.419 250.738L349.729 250.479L350.802 243.491L353.688 243.934C354.242 244.019 354.695 244.186 355.048 244.436C355.4 244.686 355.647 244.993 355.786 245.358C355.927 245.717 355.964 246.111 355.898 246.539C355.82 247.047 355.613 247.456 355.275 247.769C354.943 248.082 354.501 248.264 353.947 248.314L355.185 251.316L353.317 251.03ZM352.002 246.943L353.05 247.104C353.386 247.155 353.644 247.121 353.824 247C354.006 246.873 354.119 246.664 354.163 246.374C354.206 246.097 354.157 245.867 354.016 245.684C353.882 245.501 353.651 245.385 353.321 245.334L352.274 245.173L352.002 246.943ZM360.289 244.876C361.178 245.013 361.877 245.359 362.385 245.916C362.9 246.474 363.182 247.165 363.231 247.988L361.442 247.714C361.359 247.371 361.194 247.086 360.946 246.859C360.704 246.633 360.395 246.491 360.02 246.433C359.525 246.357 359.099 246.477 358.74 246.793C358.381 247.109 358.155 247.57 358.062 248.176C357.969 248.783 358.047 249.29 358.294 249.699C358.543 250.102 358.914 250.341 359.408 250.417C359.784 250.474 360.121 250.431 360.419 250.288C360.724 250.146 360.967 249.927 361.147 249.631L362.936 249.906C362.644 250.67 362.168 251.245 361.509 251.629C360.857 252.008 360.086 252.129 359.197 251.993C358.518 251.888 357.944 251.649 357.476 251.273C357.008 250.891 356.674 250.408 356.474 249.825C356.28 249.242 356.236 248.604 356.343 247.912C356.449 247.221 356.682 246.626 357.041 246.128C357.408 245.631 357.871 245.274 358.43 245.056C358.991 244.832 359.61 244.772 360.289 244.876ZM366.05 247.207L365.826 248.67L368.188 249.032L367.992 250.308L365.63 249.945L365.392 251.497L368.051 251.905L367.843 253.259L363.494 252.591L364.566 245.603L368.915 246.271L368.709 247.615L366.05 247.207Z" fill="white"/>
<path d="M340.354 251.26C340.354 251.26 339.664 253.41 339.414 253.7C339.164 254 336.554 255.18 336.144 256.34C336.144 256.34 336.224 257.09 336.894 257.69C337.554 258.28 339.454 258.79 340.544 258.74C341.644 258.69 342.414 256.78 342.534 256.52C342.644 256.27 343.224 253.94 343.814 252.75" fill="#FE9393"/>
<path d="M337.594 254.87C337.594 254.87 336.334 255.67 335.864 256.48C335.494 257.12 335.354 257.29 335.694 257.46C336.034 257.63 336.714 257.39 337.214 256.96" fill="#FE9393"/>
<path d="M341.024 212.22C341.144 216.79 344.224 229.17 344.224 229.17L339.484 252.77C339.484 252.77 340.004 253.34 341.164 253.81C342.314 254.27 343.764 254.24 343.764 254.24C343.764 254.24 353.294 233.07 353.294 228.55C353.294 223.62 352.714 210.44 347.534 203.65C345.524 201.02 340.914 199.98 340.914 199.98" fill="white"/>
<path d="M287.934 215.26L284.774 214.5C284.774 214.5 284.124 214.14 283.044 212.91C281.964 211.68 280.404 211.82 280.084 211.84C279.754 211.86 279.734 212.27 280.304 212.66C280.694 212.92 281.364 212.8 281.594 213.7C281.694 214.1 280.554 214.12 279.974 213.92C279.384 213.72 277.394 212.77 276.884 212.56C276.374 212.35 275.944 212.67 277.274 213.65C278.514 214.56 278.934 214.74 279.394 215.02C279.394 215.03 279.684 215.62 279.864 215.85C279.914 215.91 280.004 215.96 280.104 216.01C280.184 216.16 280.394 216.59 280.544 216.78C280.574 216.81 280.604 216.84 280.644 216.87C280.764 217.13 280.884 217.37 280.984 217.59C281.404 218.41 283.004 218.18 283.704 218.09C284.404 218 287.414 218.68 287.414 218.68L287.934 215.26Z" fill="#FE9393"/>
<path d="M280.254 214.99C280.254 214.99 279.424 214.96 278.244 214.57C277.064 214.18 275.554 213.34 275.244 213.3C274.934 213.27 274.904 213.66 275.244 213.97C275.584 214.28 276.554 214.84 277.114 215.12C277.764 215.45 280.624 216.18 280.624 216.18" fill="#FE9393"/>
<path d="M280.674 215.82C280.674 215.82 279.844 215.89 278.624 215.63C277.404 215.37 275.814 214.71 275.504 214.71C275.194 214.71 275.204 215.11 275.584 215.37C275.964 215.63 276.984 216.09 277.564 216.3C278.254 216.55 281.174 217.27 281.174 217.27" fill="#FE9393"/>
<path d="M281.664 217.04C281.664 217.04 280.834 217.11 279.614 216.85C278.394 216.59 276.804 215.93 276.494 215.93C276.184 215.93 276.194 216.33 276.574 216.59C276.954 216.86 277.974 217.31 278.554 217.52C279.244 217.77 282.164 218.18 282.164 218.18" fill="#FE9393"/>
<path d="M320.924 201.64C320.924 201.64 308.804 212.32 305.194 216.88C305.194 216.88 306.734 220.16 309.434 221.62C309.434 221.62 317.594 217.76 321.814 214.82" fill="white"/>
<path d="M305.544 216.46L286.874 214.82L286.184 218.69C286.184 218.69 300.294 224.1 305.574 224.1C309.894 224.1 320.454 215.72 320.454 215.72L305.544 216.46Z" fill="white"/>
<path d="M336.164 198.76C336.154 198.77 332.414 201.59 327.814 198.08C327.814 198.08 328.394 196.97 328.494 196.77C328.754 196.32 329.254 195.36 329.564 194C329.594 193.91 329.614 193.8 329.634 193.7C329.724 193.29 329.784 192.85 329.824 192.38C329.904 191.56 329.894 190.65 329.754 189.67L330.194 189.31L337.534 183.54L338.374 182.89C338.374 182.89 338.134 184.29 337.794 186.35C337.614 187.52 337.394 188.88 337.174 190.32C336.764 193.24 336.344 196.45 336.164 198.76Z" fill="#FE9393"/>
<path d="M335.024 190.48C333.964 192.01 331.594 195.06 328.504 196.76C328.764 196.31 329.264 195.35 329.574 193.99C329.084 194.14 328.644 194.21 328.224 194.25C328.244 193.91 328.264 193.57 328.254 193.2L328.744 192.91L329.844 192.37L335.644 189.55C335.634 189.56 335.424 189.91 335.024 190.48Z" fill="#E15F60"/>
<path d="M323.444 178.5C323.444 178.5 322.164 182 324.444 183.99L325.534 178.66L323.444 178.5Z" fill="#BDC3C7"/>
<path d="M336.224 189C335.854 189.52 335.454 190.01 335.024 190.48C335.024 190.48 335.024 190.48 335.014 190.49C334.304 191.26 333.504 191.96 332.634 192.55C331.504 193.31 330.484 193.76 329.564 194C329.074 194.15 328.634 194.22 328.214 194.26C326.264 194.42 325.124 193.67 325.124 193.67C323.294 190.96 323.364 186.55 323.784 183.21C323.944 181.86 324.174 180.68 324.344 179.86C324.504 179.12 324.634 178.67 324.634 178.67C324.644 178.64 324.644 178.61 324.654 178.58C325.444 174.27 331.214 174.12 335.174 176.54C335.404 176.68 335.624 176.83 335.844 177C336.944 177.79 337.854 178.81 338.404 180C339.334 182.04 338.764 184.35 337.814 186.33C337.764 186.43 337.714 186.54 337.654 186.64C337.204 187.54 336.694 188.33 336.224 189Z" fill="#FE9393"/>
<path d="M336.454 176.23C336.454 176.23 331.754 183.47 323.874 179.66C321.574 178.55 321.054 170.71 323.084 172.28C327.234 175.49 330.494 169.38 334.474 171.44C335.754 172.1 337.004 173.71 336.454 176.23Z" fill="#BDC3C7"/>
<path d="M334.894 177.15C334.894 177.15 332.164 191.37 335.054 184.84C335.054 184.84 335.784 183.02 337.114 183.19C338.444 183.36 337.374 188.25 337.194 190.32C337.194 190.32 340.224 188.15 341.344 181.7C342.464 175.25 338.124 172.6 335.724 175.39L334.894 177.15Z" fill="#BDC3C7"/>
<path d="M336.844 184.2C336.844 184.2 336.104 184.3 335.944 185.66C335.784 187.02 336.664 187.3 336.844 186.58C337.024 185.86 336.354 185.43 336.214 185.73C336.204 185.73 336.024 184.93 336.844 184.2Z" fill="#E15F60"/>
<path d="M186 88H146C146.5 86.76 147.46 84.7706 148.37 83.5906C150.12 81.2806 157.11 78.1806 159.18 77.2906C159.3 77.2406 159.4 77.1906 159.48 77.1606C159.67 77.0906 159.77 77.0406 159.77 77.0406L167.34 74.3906V74.3806H167.35C167.35 74.3806 178.28 77.3706 181.12 78.8006C182.5 79.4906 183.93 82.2606 185.03 84.9106C185.11 85.1206 185.21 85.3406 185.3 85.5806C185.55 86.2406 185.79 87.42 186 88Z" fill="#F1C40F"/>
<path d="M167.33 74.3907V74.4007C167.33 74.4007 165.52 77.6307 159.76 77.0507C159.76 77.0507 159.77 76.9307 159.75 76.7107C159.74 76.1907 159.65 75.1107 159.21 73.7907C159.19 73.6907 159.15 73.6007 159.11 73.4907C158.97 73.1007 158.79 72.6907 158.58 72.2607C158.22 71.5207 157.73 70.7507 157.1 69.9907L157.29 69.4507L160.51 60.6907L160.88 59.7007C160.88 59.7007 161.41 61.0207 162.2 62.9407C162.65 64.0307 163.18 65.3107 163.75 66.6507C164.94 69.3807 166.26 72.3307 167.33 74.3907Z" fill="#FE9393"/>
<path d="M162.01 67.9408C162.01 67.9408 162.01 67.9408 162.01 67.9508C161.91 69.8008 161.49 73.6408 159.75 76.7108C159.74 76.1908 159.65 75.1108 159.21 73.7908C158.87 74.1708 158.53 74.4708 158.2 74.7208C158.04 74.4208 157.87 74.1208 157.67 73.8108L157.93 73.3008L158.59 72.2608L162.05 66.8208C162.04 66.8308 162.06 67.2508 162.01 67.9408Z" fill="#E15F60"/>
<path d="M145.87 63.8108C145.87 63.8108 146.62 67.4608 149.6 67.9508L147.73 62.8408L145.87 63.8108Z" fill="#002952"/>
<path d="M162.26 66.0507C162.22 66.6807 162.13 67.3207 162.02 67.9407C162.02 67.9407 162.02 67.9407 162.02 67.9507C161.82 68.9807 161.5 69.9907 161.07 70.9507C160.51 72.1907 159.88 73.1107 159.22 73.7907C158.88 74.1707 158.54 74.4707 158.21 74.7207C156.64 75.8807 155.27 75.8407 155.27 75.8407C152.29 74.4907 150.04 70.7007 148.64 67.6407C148.07 66.4007 147.65 65.2807 147.36 64.4907C147.11 63.7707 146.98 63.3307 146.98 63.3307C146.97 63.3007 146.96 63.2807 146.95 63.2507C145.36 59.1607 150.19 56.0107 154.84 56.0007C155.11 56.0007 155.38 56.0107 155.65 56.0407C157 56.1407 158.31 56.5307 159.4 57.2607C161.26 58.5107 161.99 60.7807 162.21 62.9607C162.22 63.0807 162.23 63.1907 162.24 63.3107C162.33 64.2907 162.31 65.2407 162.26 66.0507Z" fill="#FE9393"/>
<path d="M155.76 55.0507C155.76 55.0507 155.48 66.6607 142 64.3307C142 64.3307 143.94 52.5707 151.56 52.0107C153 51.9007 154.91 52.6207 155.76 55.0507Z" fill="#002952"/>
<path d="M154.91 56.6507C154.91 56.6507 156.25 61.0707 159.07 63.1207C159.07 63.1207 158.74 61.1907 159.95 60.6307C161.17 60.0807 162.82 64.8007 163.76 66.6607C163.76 66.6607 165.2 63.2307 162.77 57.1507C160.34 51.0707 155.25 51.0907 154.67 54.7307L154.91 56.6507Z" fill="#002952"/>
<path d="M160.27 61.6306C160.27 61.6306 159.69 62.1106 160.27 63.3506C160.85 64.5906 161.74 64.3706 161.51 63.6606C161.28 62.9606 160.49 62.9306 160.52 63.2706C160.53 63.2706 159.96 62.6906 160.27 61.6306Z" fill="#E15F60"/>
<path d="M173.39 123.241L171.18 125.621C171.18 125.621 170.55 126.011 168.95 126.351C167.35 126.691 166.71 128.111 166.56 128.401C166.41 128.691 166.76 128.921 167.39 128.611C167.81 128.401 168.03 127.761 168.93 128.001C169.33 128.111 168.78 129.111 168.32 129.521C167.86 129.931 166.06 131.201 165.62 131.541C165.18 131.881 165.26 132.411 166.76 131.731C168.16 131.101 168.52 130.821 168.99 130.551C169 130.551 169.66 130.601 169.94 130.551C170.02 130.541 170.11 130.491 170.19 130.421C170.36 130.431 170.84 130.451 171.08 130.421C171.12 130.411 171.16 130.401 171.2 130.371C171.48 130.391 171.76 130.411 171.99 130.421C172.91 130.471 173.49 128.961 173.76 128.311C174.03 127.651 176.1 125.371 176.1 125.371L173.39 123.241Z" fill="#FE9393"/>
<path d="M173.17 87.3406C175.79 93.3606 183.96 105.761 183.96 105.761C183.96 105.761 182.27 108.051 180.74 110.451C178.5 113.971 175.8 118.891 172.48 123.731C172.48 123.731 172.84 124.641 173.75 125.571C174.41 126.241 175.47 126.691 175.47 126.691C175.47 126.691 189.77 114.871 193.09 107.181C193.3 106.691 193.32 106.141 193.13 105.651C191.9 102.381 186.81 88.9206 184.45 83.6206L173.17 87.3406Z" fill="#F1C40F"/>
<defs>
<filter id="filter0_d" x="298.549" y="227.186" width="78.5491" height="36.6716" filterUnits="userSpaceOnUse" color-interpolation-filters="sRGB">
<feFlood flood-opacity="0" result="BackgroundImageFix"/>
<feColorMatrix in="SourceAlpha" type="matrix" values="0 0 0 0 0 0 0 0 0 0 0 0 0 0 0 0 0 0 127 0"/>
<feOffset dx="-1" dy="1"/>
<feGaussianBlur stdDeviation="0.5"/>
<feColorMatrix type="matrix" values="0 0 0 0 0 0 0 0 0 0 0 0 0 0 0 0 0 0 0.25 0"/>
<feBlend mode="normal" in2="BackgroundImageFix" result="effect1_dropShadow"/>
<feBlend mode="normal" in="SourceGraphic" in2="effect1_dropShadow" result="shape"/>
</filter>
</defs>
</svg>
