<svg width="366" height="289" viewBox="0 0 366 289" fill="none" xmlns="http://www.w3.org/2000/svg">
<path d="M67 68.4097H71.82" stroke="white" stroke-miterlimit="10" stroke-linecap="round"/>
<path d="M69.4099 65.9998V70.8098" stroke="white" stroke-miterlimit="10" stroke-linecap="round"/>
<path d="M188.43 274.11H193.24" stroke="white" stroke-miterlimit="10" stroke-linecap="round"/>
<path d="M190.84 271.7V276.52" stroke="white" stroke-miterlimit="10" stroke-linecap="round"/>
<path d="M137.57 52.0198C137.57 53.2398 136.58 54.2298 135.36 54.2298C134.14 54.2298 133.15 53.2398 133.15 52.0198C133.15 50.7998 134.14 49.8098 135.36 49.8098C136.59 49.8198 137.57 50.7998 137.57 52.0198Z" fill="white"/>
<path d="M317.42 74.2098C317.42 75.4298 316.43 76.4198 315.21 76.4198C313.99 76.4198 313 75.4298 313 74.2098C313 72.9898 313.99 71.9998 315.21 71.9998C316.44 72.0098 317.42 72.9898 317.42 74.2098Z" fill="white"/>
<path d="M365.89 145.03C365.89 146.25 364.9 147.24 363.68 147.24C362.46 147.24 361.47 146.25 361.47 145.03C361.47 143.81 362.46 142.82 363.68 142.82C364.9 142.82 365.89 143.81 365.89 145.03Z" fill="white"/>
<path d="M223.53 204.8C223.53 206.02 222.54 207.01 221.32 207.01C220.1 207.01 219.11 206.02 219.11 204.8C219.11 203.58 220.1 202.59 221.32 202.59C222.54 202.59 223.53 203.58 223.53 204.8Z" fill="#3F49A5"/>
<path d="M185.42 143.21C185.42 144.43 184.43 145.42 183.21 145.42C181.99 145.42 181 144.43 181 143.21C181 141.99 181.99 141 183.21 141C184.43 141 185.42 141.99 185.42 143.21Z" fill="#3F49A5"/>
<path d="M89.65 194.11C89.65 195.33 88.66 196.32 87.44 196.32C86.22 196.32 85.23 195.33 85.23 194.11C85.23 192.89 86.22 191.9 87.44 191.9C88.66 191.9 89.65 192.89 89.65 194.11Z" fill="white"/>
<path d="M4.42 166.21C4.42 167.43 3.43 168.42 2.21 168.42C0.990001 168.42 0 167.43 0 166.21C0 164.99 0.990001 164 2.21 164C3.43 164 4.42 164.99 4.42 166.21Z" fill="#3F49A5"/>
<path d="M182 3.40967H186.82" stroke="#3F49A5" stroke-miterlimit="10" stroke-linecap="round"/>
<path d="M184.41 0.999756V5.80976" stroke="#3F49A5" stroke-miterlimit="10" stroke-linecap="round"/>
<path d="M251 129.4H255.81" stroke="white" stroke-miterlimit="10" stroke-linecap="round"/>
<path d="M253.4 127V131.81" stroke="white" stroke-miterlimit="10" stroke-linecap="round"/>
<path d="M278.92 282.97H283.73" stroke="#3F49A5" stroke-miterlimit="10" stroke-linecap="round"/>
<path d="M281.32 280.56V285.37" stroke="#3F49A5" stroke-miterlimit="10" stroke-linecap="round"/>
<path d="M25.5 225.98H30.31" stroke="white" stroke-miterlimit="10" stroke-linecap="round"/>
<path d="M27.9099 223.57V228.39" stroke="white" stroke-miterlimit="10" stroke-linecap="round"/>
<path d="M169.167 286.442C199.327 286.442 223.776 281.18 223.776 274.69C223.776 268.199 199.327 262.937 169.167 262.937C139.007 262.937 114.558 268.199 114.558 274.69C114.558 281.18 139.007 286.442 169.167 286.442Z" fill="#C4C4C4" fill-opacity="0.2"/>
<path d="M174.355 283.125C174.355 283.125 183.202 287.054 188.119 286.913L188.919 279.395L178.343 278.995L174.355 283.125Z" fill="#EEA886"/>
<path d="M182.272 286.83C183.719 287.289 200.048 289.736 202.365 288.489C206.694 286.16 204.895 281.642 201.165 280.642C198.448 279.913 184.801 278.489 183.719 278.854C183.731 278.854 186.625 283.289 182.272 286.83Z" fill="#DB4F87"/>
<path d="M187.048 279.972C187.048 279.972 188.366 283.124 186.319 286.277C186.319 286.277 180.743 286.136 181.331 282.172C181.919 278.207 187.048 279.972 187.048 279.972Z" fill="#FF5C9D"/>
<path d="M227.129 252.256C228.117 257.62 212.8 265.455 195.871 268.89C178.943 272.325 166.202 278.972 163.45 265.396C162.367 260.055 175.39 252.914 192.307 249.479C209.224 246.044 226.14 246.891 227.129 252.256Z" fill="#02093B"/>
<path d="M114.487 252.255C113.499 257.62 128.816 265.455 145.745 268.89C162.673 272.325 177.237 278.278 178.167 265.396C178.555 259.937 166.226 252.903 149.297 249.467C132.369 246.032 115.464 246.891 114.487 252.255Z" fill="#02093B"/>
<path d="M182.602 275.56L180.072 285.536C180.072 285.536 126.146 275.101 114.652 257.514C114.24 256.891 114.04 256.15 114.005 255.397C113.923 252.903 114.746 247.621 122.193 249.22C122.193 249.22 135.628 250.467 156.65 265.984C164.026 271.925 182.602 275.56 182.602 275.56Z" fill="url(#paint0_linear)"/>
<path d="M161.897 283.936C160.438 284.513 158.944 284.889 157.991 285.183C156.544 285.642 145.027 285.995 142.674 286.454C140.321 286.913 139.863 287.136 137.957 285.324C136.051 283.513 135.533 281.195 138.157 280.207C140.78 279.207 149.733 277.854 151.462 277.678C153.179 277.501 155.45 276.866 156.532 277.219C156.873 277.337 158.273 277.431 160.191 276.772C160.273 277.913 161.897 283.936 161.897 283.936Z" fill="#EEA886"/>
<path d="M158.003 285.183C156.556 285.642 140.227 288.089 137.91 286.842C133.581 284.513 135.38 279.995 139.11 278.995C141.827 278.266 155.473 276.842 156.556 277.207C156.544 277.207 153.65 281.654 158.003 285.183Z" fill="#DB4F87"/>
<path d="M153.226 278.325C153.226 278.325 151.909 281.478 153.956 284.63C153.956 284.63 159.532 284.489 158.944 280.525C158.356 276.56 153.226 278.325 153.226 278.325Z" fill="#FF5C9D"/>
<path d="M159.415 275.56L161.944 285.536C161.944 285.536 215.87 275.101 227.364 257.514C227.776 256.891 227.976 256.15 227.999 255.397C228.082 252.903 227.258 247.621 219.811 249.22C219.811 249.22 203.942 251.173 185.354 265.984C175.555 272.819 159.415 275.56 159.415 275.56Z" fill="#333466"/>
<path d="M153.709 186.177C153.638 188.906 153.803 191.353 154.227 194.047C155.097 199.552 151.38 205.423 153.333 210.552C154.168 212.752 155.944 214.352 157.885 215.316C159.826 216.281 161.944 216.681 164.026 217.069C165.685 217.375 167.697 217.551 168.732 216.046C169.402 215.081 169.391 213.74 169.355 212.505C169.014 201.517 168.673 190.518 167.673 179.577C167.438 177.059 167.108 174.354 165.579 172.495C164.52 171.201 161.532 169.613 160.779 171.46C160.156 173.013 159.191 174.824 158.285 176.107C156.121 179.165 153.815 181.871 153.709 186.177Z" fill="#02093B"/>
<path d="M184.284 186.177C184.354 188.906 184.19 191.353 183.766 194.047C182.896 199.552 186.613 205.423 184.66 210.552C183.825 212.752 182.049 214.352 180.108 215.316C178.167 216.281 176.049 216.681 173.967 217.069C172.308 217.375 170.296 217.551 169.261 216.046C168.591 215.081 168.602 213.74 168.638 212.505C168.979 201.517 169.32 190.518 170.32 179.577C170.555 177.059 170.885 174.354 172.414 172.495C173.473 171.201 176.461 169.613 177.214 171.46C177.837 173.013 178.802 174.824 179.708 176.107C181.872 179.165 184.178 181.871 184.284 186.177Z" fill="#02093B"/>
<path d="M208.177 232.162C208.012 231.845 199.33 218.175 196.977 211.94C194.624 205.705 188.966 202.846 186.295 201.952C185.343 201.635 183.648 201.082 181.849 200.505C178.625 199.458 175.096 198.329 175.096 198.329H163.967C163.967 198.329 160.109 199.623 156.015 201.058C152.238 202.376 148.262 203.823 146.921 204.493C144.121 205.893 139.416 215.881 138.463 217.022C137.51 218.163 130.169 231.762 129.11 236.986C128.298 241.056 152.38 252.938 153.038 254.467C153.803 253.62 157.309 250.256 157.309 250.256C157.309 250.256 156.179 249.55 154.603 248.503C161.061 248.797 176.825 248.244 179.084 248.35C179.543 248.373 180.037 248.362 180.543 248.314C181.249 248.82 185.754 252.808 185.754 252.808C185.754 252.808 196.883 248.185 202 243.021C209.282 235.692 208.977 233.786 208.177 232.162ZM144.898 241.209C142.509 238.35 139.227 236.621 140.051 235.339C140.874 234.068 148.897 219.657 148.897 219.657C148.897 219.657 148.709 229.174 153.379 233.845C156.391 236.856 153.45 240.091 153.015 241.374C152.627 242.527 152.321 243.315 151.98 246.75C149.133 244.809 145.992 242.515 144.898 241.209ZM194.107 239.833C193.166 240.891 189.472 243.244 186.142 245.185C185.895 242.879 185.507 239.244 185.46 237.939C185.401 235.962 186.872 234.68 188.672 230.386C189.883 227.492 188.954 220.069 188.954 220.069C188.954 220.069 197.377 231.515 198.718 232.727C200.059 233.939 197.26 236.245 194.107 239.833Z" fill="#15A0DB"/>
<path d="M146.427 236.609L149.662 257.279H189.154L191.436 236.609H146.427Z" fill="#525252"/>
<path d="M172.002 247.632C172.002 249.279 170.861 250.62 169.461 250.62C168.061 250.62 166.92 249.279 166.92 247.632C166.92 245.985 168.061 244.644 169.461 244.644C170.873 244.644 172.002 245.985 172.002 247.632Z" fill="#6E6E6E"/>
<path d="M175.214 198.364C175.214 198.352 175.202 198.341 175.202 198.329C174.661 197.117 174.919 191.2 174.919 191.2C174.919 191.2 163.838 188.376 164.155 190.541C164.473 192.694 163.202 198.588 163.202 198.588C161.873 199.035 159.014 199.999 156.026 201.058C156.026 201.058 160.826 216.54 169.52 216.54C178.213 216.54 181.86 200.505 181.86 200.505C178.955 199.564 175.814 198.552 175.214 198.364Z" fill="#EEA886"/>
<path d="M163.238 198.388C166.567 201.482 172.414 202.082 175.261 198.376L175.214 198.364C175.214 198.352 175.202 198.341 175.202 198.329C174.661 197.117 174.92 191.2 174.92 191.2C174.92 191.2 163.838 188.376 164.155 190.541C164.438 192.47 163.45 197.376 163.238 198.388Z" fill="#DB9B7B"/>
<path d="M164.12 193C165.144 195.388 167.567 197.035 169.485 197.082C172.567 197.153 173.825 196.129 174.861 193.753C174.872 192.423 174.92 191.353 174.92 191.353C174.92 191.353 163.838 188.529 164.155 190.694C164.238 191.259 164.202 192.082 164.12 193Z" fill="#B88267"/>
<path d="M170.779 167.731C170.779 167.731 179.461 169.095 178.155 182.718C176.978 195.011 169.99 195.4 169.485 195.376C168.967 195.364 160.956 193.976 160.367 178.824C160.367 178.836 160.12 166.542 170.779 167.731Z" fill="#EEA886"/>
<path d="M160.826 180.024C160.826 180.024 159.65 179.424 159.203 180.412C157.45 184.377 160.697 185.659 160.767 185.871C160.767 185.871 160.932 186.271 161.167 186.059C161.403 185.859 160.826 180.024 160.826 180.024Z" fill="#EEA886"/>
<path d="M177.908 179.836C177.908 179.836 178.919 179.318 179.531 180.224C180.966 182.377 178.037 185.471 177.966 185.682C177.966 185.682 177.802 186.082 177.566 185.871C177.331 185.659 177.908 179.836 177.908 179.836Z" fill="#EEA886"/>
<path d="M180.072 183.33L177.096 190.435C177.096 190.435 177.578 179.248 177.378 178.671C177.178 178.095 176.637 176.248 176.072 175.589C175.778 175.248 167.861 172.413 162.356 176.26C162.356 176.26 161.309 177.789 161.579 179.93C162.626 188.33 161.791 191.482 161.791 191.482C161.791 191.482 156.85 186.118 158.567 174.613C159.132 170.813 161.379 165.307 170.755 166.072C182.719 167.048 180.072 183.33 180.072 183.33Z" fill="#020A45"/>
<path d="M171.473 177.977C172.661 178.307 173.908 178.307 175.084 178.659C176.261 179.012 177.414 179.883 177.543 181.106C178.461 179.165 178.319 176.789 177.296 174.907C176.261 173.024 174.402 171.648 172.32 171.095C171.19 170.801 169.979 170.73 168.873 171.107C164.344 172.66 168.732 177.213 171.473 177.977Z" fill="#020A45"/>
<path d="M31.4198 234.57C31.4198 235.99 27.9798 237.14 23.7398 237.14C19.4998 237.14 16.0598 235.99 16.0598 234.57C16.0598 233.15 19.4998 232 23.7398 232C27.9798 232 31.4198 233.15 31.4198 234.57Z" fill="#C4C4C4" fill-opacity="0.2"/>
<path d="M40.7698 171.44C39.5398 171 38.1198 171.15 36.9798 170.49C35.1498 169.43 34.9798 166.73 35.9598 164.86C36.9398 162.99 38.6998 161.44 40.1298 159.89C42.3798 157.44 44.2298 155.88 44.2198 153.04C44.2098 150.21 41.6598 147.84 38.9298 148.6C36.5698 149.26 34.8798 151.74 32.4398 151.54C30.1898 151.36 29.1498 148.61 29.1198 146.36C29.0898 143.87 29.6398 141.41 29.8498 138.92C30.0598 136.44 29.8698 133.79 28.5098 131.7C27.2598 129.78 24.7898 128.56 22.6398 129.15C21.0898 129.43 19.5998 130.43 18.7198 131.78C17.3598 133.87 17.1698 136.51 17.3798 139C17.5898 141.48 18.1398 143.94 18.1098 146.44C18.0798 148.7 17.0398 151.44 14.7898 151.62C12.3398 151.82 10.6598 149.35 8.29981 148.68C5.56981 147.91 3.01981 150.28 3.00981 153.12C2.99981 155.96 4.84981 157.52 7.09981 159.97C8.52981 161.52 10.2898 163.08 11.2698 164.94C12.2498 166.81 12.0798 169.51 10.2498 170.57C9.11981 171.22 7.68981 171.08 6.45981 171.52C4.66981 172.17 3.51981 174.05 3.32981 175.95C3.13981 177.85 3.75981 179.74 4.63981 181.44C8.17981 188.33 27.6998 200.45 42.5998 181.35C43.7698 179.85 44.0998 177.76 43.8998 175.86C43.7098 173.97 42.5598 172.08 40.7698 171.44Z" fill="url(#paint1_linear)"/>
<path d="M30.0797 177.27L24.3997 181.15V164.87L30.7797 160.51C31.0597 160.32 31.1397 159.93 30.9397 159.64C30.7497 159.36 30.3597 159.28 30.0697 159.48L24.3897 163.36V149.4C24.3897 149.06 24.1097 148.78 23.7697 148.78C23.4297 148.78 23.1497 149.06 23.1497 149.4V163.63L16.7497 159.44C16.4597 159.25 16.0697 159.33 15.8897 159.62C15.6997 159.91 15.7797 160.29 16.0697 160.48L23.1297 165.1C23.1397 165.11 23.1497 165.1 23.1597 165.11V181.41L16.7597 177.22C16.4697 177.03 16.0797 177.11 15.8997 177.4C15.7097 177.69 15.7897 178.07 16.0797 178.26L23.1397 182.88C23.1497 182.89 23.1597 182.88 23.1697 182.89V224.16C23.1697 224.5 23.4497 224.78 23.7897 224.78C24.1297 224.78 24.4097 224.5 24.4097 224.16V182.65L30.7897 178.29C31.0697 178.1 31.1497 177.71 30.9497 177.42C30.7497 177.15 30.3597 177.07 30.0797 177.27Z" fill="#8F3358"/>
<path d="M25.6499 234.45H21.5699C20.4599 234.45 19.5099 233.66 19.2999 232.57L17.5799 223.69C17.3699 222.58 18.2199 221.55 19.3499 221.55H27.8799C29.0099 221.55 29.8599 222.58 29.6499 223.69L27.9299 232.57C27.7199 233.67 26.7599 234.45 25.6499 234.45Z" fill="#02093B"/>
<path d="M52.7499 234.57C52.7499 235.99 49.3099 237.14 45.0699 237.14C40.8299 237.14 37.3899 235.99 37.3899 234.57C37.3899 233.15 40.8299 232 45.0699 232C49.3099 232 52.7499 233.15 52.7499 234.57Z" fill="#C4C4C4" fill-opacity="0.2"/>
<path d="M59.8298 179.16C58.7498 178.77 57.5098 178.9 56.5198 178.33C54.9198 177.41 54.7698 175.04 55.6298 173.4C56.4898 171.77 58.0298 170.41 59.2798 169.05C61.2498 166.91 62.8698 165.54 62.8598 163.06C62.8498 160.58 60.6198 158.51 58.2298 159.18C56.1598 159.76 54.6898 161.93 52.5398 161.75C50.5698 161.59 49.6598 159.19 49.6298 157.21C49.5998 155.03 50.0898 152.87 50.2698 150.7C50.4498 148.53 50.2898 146.21 49.0998 144.38C48.0098 142.7 45.8498 141.63 43.9598 142.15C42.5998 142.39 41.2998 143.27 40.5298 144.46C39.3398 146.29 39.1798 148.6 39.3598 150.78C39.5398 152.95 40.0298 155.11 39.9998 157.29C39.9698 159.27 39.0598 161.67 37.0898 161.83C34.9498 162.01 33.4698 159.84 31.3998 159.26C29.0098 158.59 26.7798 160.66 26.7698 163.14C26.7598 165.62 28.3798 166.99 30.3498 169.13C31.5998 170.49 33.1398 171.85 33.9998 173.48C34.8598 175.11 34.7098 177.48 33.1098 178.41C32.1198 178.98 30.8698 178.85 29.7998 179.24C28.2298 179.81 27.2298 181.45 27.0598 183.12C26.8898 184.78 27.4398 186.44 28.1998 187.92C31.2998 193.96 48.3898 204.56 61.4298 187.85C62.4598 186.53 62.7398 184.71 62.5698 183.05C62.4098 181.37 61.3998 179.72 59.8298 179.16Z" fill="url(#paint2_linear)"/>
<path d="M50.4698 184.26L45.4998 187.65V173.41L51.0798 169.6C51.3298 169.43 51.3898 169.09 51.2198 168.84C51.0498 168.59 50.7098 168.53 50.4598 168.7L45.4898 172.09V159.86C45.4898 159.56 45.2498 159.31 44.9398 159.31C44.6398 159.31 44.3898 159.55 44.3898 159.86V172.32L38.7798 168.65C38.5298 168.48 38.1898 168.56 38.0198 168.81C37.8498 169.06 37.9298 169.4 38.1798 169.57L44.3598 173.61C44.3698 173.62 44.3798 173.61 44.3898 173.62V187.89L38.7798 184.22C38.5298 184.05 38.1898 184.13 38.0198 184.38C37.8498 184.63 37.9298 184.97 38.1798 185.14L44.3598 189.18C44.3698 189.19 44.3798 189.18 44.3898 189.19V225.32C44.3898 225.62 44.6298 225.87 44.9398 225.87C45.2398 225.87 45.4898 225.63 45.4898 225.32V188.98L51.0698 185.17C51.3198 185 51.3798 184.66 51.2098 184.41C51.0598 184.15 50.7198 184.09 50.4698 184.26Z" fill="#327A96"/>
<path d="M47.0398 234.45H43.0798C41.9398 234.45 40.9498 233.64 40.7398 232.52L39.0998 224.1C38.8398 222.78 39.8498 221.56 41.1998 221.56H48.9098C50.2498 221.56 51.2598 222.78 51.0098 224.1L49.3798 232.52C49.1598 233.64 48.1798 234.45 47.0398 234.45Z" fill="#02093B"/>
<defs>
<linearGradient id="paint0_linear" x1="114.005" y1="267.234" x2="182.599" y2="267.234" gradientUnits="userSpaceOnUse">
<stop stop-color="#333466"/>
<stop offset="1" stop-color="#28284F"/>
</linearGradient>
<linearGradient id="paint1_linear" x1="23.6121" y1="134.166" x2="23.6121" y2="196.666" gradientUnits="userSpaceOnUse">
<stop stop-color="#FF8AB8"/>
<stop offset="1" stop-color="#FF5C9D"/>
</linearGradient>
<linearGradient id="paint2_linear" x1="44.8161" y1="139.166" x2="44.8161" y2="198.672" gradientUnits="userSpaceOnUse">
<stop stop-color="#54CEFF"/>
<stop offset="0.9827" stop-color="#41A1C7"/>
</linearGradient>
</defs>
</svg>
