<svg width="1920" height="690" viewBox="0 0 1920 690" fill="none" xmlns="http://www.w3.org/2000/svg">
<rect opacity="0.05" width="1920" height="690" fill="#15A0DB"/>
<path opacity="0.05" d="M674 56.9351C293.2 132.929 66.5 64.9742 0 21.4976V0H1920V21.4976V120.92C1842 67.4352 1672.3 -20.2399 1617.5 56.9351C1562.7 134.11 1516.67 115.998 1500.5 97.2945C1490.17 75.3101 1451.7 44.532 1380.5 97.2945C1309.3 150.057 1256.83 112.716 1239.5 87.4508C1211.5 51.5211 1054.8 -19.0586 674 56.9351Z" fill="#15A0DB"/>
<path d="M674 35.2789C293.2 111.273 66.5 43.4766 0 0H1920V99.2633C1842 45.7789 1672.3 -41.8961 1617.5 35.2789C1562.7 112.454 1516.67 94.3414 1500.5 75.6383C1490.17 53.6539 1451.7 22.8758 1380.5 75.6383C1309.3 128.401 1256.83 91.0601 1239.5 65.7945C1211.5 29.8648 1054.8 -40.7149 674 35.2789Z" fill="white"/>
</svg>
