<svg width="1920" height="126" viewBox="0 0 1920 126" fill="none" xmlns="http://www.w3.org/2000/svg">
<path d="M674 68.1614C293.2 -9.03863 66.5 59.9947 0 104.161V126H1920V104.161V3.16136C1842 57.4947 1672.3 146.561 1617.5 68.1614C1562.7 -10.2386 1516.67 8.16137 1500.5 27.1614C1490.17 49.4947 1451.7 80.7614 1380.5 27.1614C1309.3 -26.4386 1256.83 11.4947 1239.5 37.1614C1211.5 73.6614 1054.8 145.361 674 68.1614Z" fill="#15A0DB"/>
<path d="M674 90.1614C293.2 12.9614 66.5 81.8336 0 126H1920V25.1614C1842 79.4947 1672.3 168.561 1617.5 90.1614C1562.7 11.7614 1516.67 30.1614 1500.5 49.1614C1490.17 71.4947 1451.7 102.761 1380.5 49.1614C1309.3 -4.43863 1256.83 33.4947 1239.5 59.1614C1211.5 95.6614 1054.8 167.361 674 90.1614Z" fill="#F3FAFD"/>
</svg>
