<svg width="381" height="414" viewBox="0 0 381 414" fill="none" xmlns="http://www.w3.org/2000/svg">
<path d="M67 68.4097H71.82" stroke="white" stroke-miterlimit="10" stroke-linecap="round"/>
<path d="M69.4102 65.9998V70.8098" stroke="white" stroke-miterlimit="10" stroke-linecap="round"/>
<path d="M188.43 274.11H193.24" stroke="white" stroke-miterlimit="10" stroke-linecap="round"/>
<path d="M190.84 271.7V276.52" stroke="white" stroke-miterlimit="10" stroke-linecap="round"/>
<path d="M137.57 52.0198C137.57 53.2398 136.58 54.2298 135.36 54.2298C134.14 54.2298 133.15 53.2398 133.15 52.0198C133.15 50.7998 134.14 49.8098 135.36 49.8098C136.59 49.8198 137.57 50.7998 137.57 52.0198Z" fill="white"/>
<path d="M317.42 74.2098C317.42 75.4298 316.43 76.4198 315.21 76.4198C313.99 76.4198 313 75.4298 313 74.2098C313 72.9898 313.99 71.9998 315.21 71.9998C316.44 72.0098 317.42 72.9898 317.42 74.2098Z" fill="white"/>
<path d="M365.89 145.03C365.89 146.25 364.9 147.24 363.68 147.24C362.46 147.24 361.47 146.25 361.47 145.03C361.47 143.81 362.46 142.82 363.68 142.82C364.9 142.82 365.89 143.81 365.89 145.03Z" fill="white"/>
<path d="M223.53 204.8C223.53 206.02 222.54 207.01 221.32 207.01C220.1 207.01 219.11 206.02 219.11 204.8C219.11 203.58 220.1 202.59 221.32 202.59C222.54 202.59 223.53 203.58 223.53 204.8Z" fill="#3F49A5"/>
<path d="M185.42 143.21C185.42 144.43 184.43 145.42 183.21 145.42C181.99 145.42 181 144.43 181 143.21C181 141.99 181.99 141 183.21 141C184.43 141 185.42 141.99 185.42 143.21Z" fill="#3F49A5"/>
<path d="M89.65 194.11C89.65 195.33 88.66 196.32 87.44 196.32C86.22 196.32 85.23 195.33 85.23 194.11C85.23 192.89 86.22 191.9 87.44 191.9C88.66 191.9 89.65 192.89 89.65 194.11Z" fill="white"/>
<path d="M4.42 166.21C4.42 167.43 3.43 168.42 2.21 168.42C0.990001 168.42 0 167.43 0 166.21C0 164.99 0.990001 164 2.21 164C3.43 164 4.42 164.99 4.42 166.21Z" fill="#3F49A5"/>
<path d="M182 3.40967H186.82" stroke="#3F49A5" stroke-miterlimit="10" stroke-linecap="round"/>
<path d="M184.41 0.999756V5.80976" stroke="#3F49A5" stroke-miterlimit="10" stroke-linecap="round"/>
<path d="M251 129.4H255.81" stroke="white" stroke-miterlimit="10" stroke-linecap="round"/>
<path d="M253.4 127V131.81" stroke="white" stroke-miterlimit="10" stroke-linecap="round"/>
<path d="M278.92 282.97H283.73" stroke="#3F49A5" stroke-miterlimit="10" stroke-linecap="round"/>
<path d="M281.32 280.56V285.37" stroke="#3F49A5" stroke-miterlimit="10" stroke-linecap="round"/>
<path d="M25.5 225.98H30.31" stroke="white" stroke-miterlimit="10" stroke-linecap="round"/>
<path d="M27.9102 223.57V228.39" stroke="white" stroke-miterlimit="10" stroke-linecap="round"/>
<path d="M82 196.41H86.82" stroke="white" stroke-miterlimit="10" stroke-linecap="round"/>
<path d="M84.4102 194V198.81" stroke="white" stroke-miterlimit="10" stroke-linecap="round"/>
<path d="M203.43 402.11H208.24" stroke="white" stroke-miterlimit="10" stroke-linecap="round"/>
<path d="M205.84 399.7V404.52" stroke="white" stroke-miterlimit="10" stroke-linecap="round"/>
<path d="M152.57 180.02C152.57 181.24 151.58 182.23 150.36 182.23C149.14 182.23 148.15 181.24 148.15 180.02C148.15 178.8 149.14 177.81 150.36 177.81C151.59 177.82 152.57 178.8 152.57 180.02Z" fill="white"/>
<path d="M332.42 202.21C332.42 203.43 331.43 204.42 330.21 204.42C328.99 204.42 328 203.43 328 202.21C328 200.99 328.99 200 330.21 200C331.44 200.01 332.42 200.99 332.42 202.21Z" fill="white"/>
<path d="M380.89 273.03C380.89 274.25 379.9 275.24 378.68 275.24C377.46 275.24 376.47 274.25 376.47 273.03C376.47 271.81 377.46 270.82 378.68 270.82C379.9 270.82 380.89 271.81 380.89 273.03Z" fill="white"/>
<path d="M238.53 332.8C238.53 334.02 237.54 335.01 236.32 335.01C235.1 335.01 234.11 334.02 234.11 332.8C234.11 331.58 235.1 330.59 236.32 330.59C237.54 330.59 238.53 331.58 238.53 332.8Z" fill="#3F49A5"/>
<path d="M200.42 271.21C200.42 272.43 199.43 273.42 198.21 273.42C196.99 273.42 196 272.43 196 271.21C196 269.99 196.99 269 198.21 269C199.43 269 200.42 269.99 200.42 271.21Z" fill="#3F49A5"/>
<path d="M104.65 322.11C104.65 323.33 103.66 324.32 102.44 324.32C101.22 324.32 100.23 323.33 100.23 322.11C100.23 320.89 101.22 319.9 102.44 319.9C103.66 319.9 104.65 320.89 104.65 322.11Z" fill="white"/>
<path d="M19.42 294.21C19.42 295.43 18.43 296.42 17.21 296.42C15.99 296.42 15 295.43 15 294.21C15 292.99 15.99 292 17.21 292C18.43 292 19.42 292.99 19.42 294.21Z" fill="#3F49A5"/>
<path d="M197 131.41H201.82" stroke="#3F49A5" stroke-miterlimit="10" stroke-linecap="round"/>
<path d="M199.41 129V133.81" stroke="#3F49A5" stroke-miterlimit="10" stroke-linecap="round"/>
<path d="M266 257.4H270.81" stroke="white" stroke-miterlimit="10" stroke-linecap="round"/>
<path d="M268.4 255V259.81" stroke="white" stroke-miterlimit="10" stroke-linecap="round"/>
<path d="M293.92 410.97H298.73" stroke="#3F49A5" stroke-miterlimit="10" stroke-linecap="round"/>
<path d="M296.32 408.56V413.37" stroke="#3F49A5" stroke-miterlimit="10" stroke-linecap="round"/>
<path d="M40.5 353.98H45.31" stroke="white" stroke-miterlimit="10" stroke-linecap="round"/>
<path d="M42.9102 351.57V356.39" stroke="white" stroke-miterlimit="10" stroke-linecap="round"/>
<path d="M192.839 64.7241C192.839 64.7241 195.282 89.8563 191.505 97.8645C191.505 97.8645 203.744 94.5277 206.186 86.5196L201.742 67.8339L192.839 64.7241Z" fill="#02093B"/>
<path d="M209.349 70.1295C209.349 70.1295 210.684 88.3213 206.173 94.6477C206.173 94.6477 214.355 91.311 219.36 85.1448C219.36 85.1448 220.694 53.2724 207.347 49.1082L204.344 66.1254C204.344 66.1254 209.016 66.7928 209.349 70.1295Z" fill="#02093B"/>
<path d="M141 280.705C141 285.03 164.504 288.54 193.493 288.54C222.496 288.54 246 285.043 246 280.705C246 276.381 222.496 272.871 193.507 272.871C164.504 272.871 141 276.381 141 280.705Z" fill="#C4C4C4" fill-opacity="0.3"/>
<path d="M194.695 86.1326C194.695 86.1326 190.384 87.4806 187.928 90.8707C185.472 94.2475 185.085 98.9723 184.978 101.388C184.871 103.804 184.204 113.133 184.204 113.133L191.505 115.175L194.695 86.1326Z" fill="#DE4784"/>
<path d="M163.743 273.696C163.743 273.696 158.271 281.064 159.018 282.238C159.766 283.413 165.532 283.573 169.042 282.238C172.552 280.904 172.632 272.255 174.221 268.544C174.888 266.996 173.46 262.405 171.471 262.071C169.469 261.737 167.293 262.712 167.293 262.712C167.293 262.712 169.349 267.944 163.743 273.696Z" fill="#292C47"/>
<path d="M167.24 262.645C167.24 262.645 166.092 265.782 165.665 268.785C165.318 271.267 161.768 276.553 161.928 277.22C162.102 277.887 166.6 278.488 168.441 276.766C170.283 275.044 171.458 270.039 171.858 267.036C172.232 264.247 172.712 262.872 172.712 262.872C172.712 262.872 168.989 260.817 167.24 262.645Z" fill="#EEA886"/>
<path d="M211.418 273.816C211.418 273.816 206.133 281.064 206.894 282.238C207.641 283.413 213.407 283.573 216.917 282.238C220.427 280.904 220.507 272.255 222.096 268.544C222.763 266.996 221.335 262.405 219.346 262.071C217.344 261.737 215.009 262.792 215.009 262.792C215.009 262.792 217.024 268.064 211.418 273.816Z" fill="#292C47"/>
<path d="M214.982 262.778C214.982 262.778 214.568 266.195 213.901 268.624C213.233 271.04 209.643 276.552 209.817 277.22C209.99 277.887 214.488 278.488 216.33 276.766C218.172 275.044 219.587 270.066 219.747 267.036C219.92 264.02 219.333 262.044 219.333 262.044C219.333 262.044 216.73 260.95 214.982 262.778Z" fill="#EEA886"/>
<path d="M188.595 142.737C188.595 142.737 183.897 164.599 182.816 170.111C181.735 175.61 178.718 202.277 178.384 206.815C178.064 211.353 173.486 228.437 173.7 230.052C173.913 231.667 166.906 264.193 166.906 264.193C166.906 264.193 169.295 266.115 171.818 264.367C173.112 263.459 187.193 233.923 187.193 225.821C187.193 214.636 195.469 200.021 196.536 197.512C206.453 174.249 204.504 167.148 205.799 165.627C207.094 164.118 207.2 166.561 207.961 169.911C208.722 173.261 210.337 202.184 211.311 205.854C212.286 209.524 211.525 221.937 212.072 228.197C212.606 234.456 214.982 262.779 214.982 262.779C214.982 262.779 216.824 265.648 219.386 262.859C219.947 262.258 223.831 231.307 223.937 223.859C224.044 216.411 224.164 206.134 224.365 202.918C226.367 172.06 231.278 167.642 223.537 145.806C209.056 104.898 188.595 142.737 188.595 142.737Z" fill="#EEA886"/>
<path d="M220.161 136.624C220.161 136.624 233.547 155.363 227.782 195.23C227.782 195.23 196.016 199.554 179.012 190.238C179.012 190.238 186.046 149.13 188.595 142.737C191.144 136.343 220.161 136.624 220.161 136.624Z" fill="#02093B"/>
<path d="M174.354 267.89V275.618H173.353V269.652L174.354 267.89Z" fill="#292C47"/>
<path d="M222.229 267.89V275.618H221.228V269.652L222.229 267.89Z" fill="#292C47"/>
<path d="M202.196 83.3697C202.196 83.3697 196.403 85.7855 194.695 86.1192C192.986 86.4662 187.194 95.0082 186.032 98.1581C184.871 101.308 186.032 106.033 188.435 111.585C190.837 117.137 188.568 118.979 189.663 124.532C190.757 130.084 187.22 141.909 187.02 144.992C186.82 148.075 219.226 148.569 225.606 142.95C225.606 142.95 219.199 133.354 218.385 131.992C217.558 130.618 218.252 123.157 218.999 121.235C219.747 119.313 224.765 103.003 224.765 103.003C224.765 103.003 228.863 90.4703 225.166 87.6007C221.949 85.1048 213.167 84.2106 211.592 83.6634C210.017 83.1161 205.412 82.8892 202.196 83.3697Z" fill="#FF5C9D"/>
<path d="M199.833 77.684C199.833 77.684 199.966 78.9252 200.127 80.6336C200.193 81.3944 200.273 82.2486 200.34 83.1161C200.54 85.612 200.701 88.3081 200.607 89.6828C200.607 89.6828 205.732 94.8214 211.565 83.6901C211.565 83.6901 209.109 79.0987 210.964 72.8524C212.806 66.5927 199.833 77.684 199.833 77.684Z" fill="#EEA886"/>
<path d="M186.94 119.006L186.086 121.101L187.928 119.78L186.94 119.006Z" fill="#EEA886"/>
<path d="M198.085 49.2416C198.085 49.2416 186.593 52.8587 192.826 72.6921C199.072 92.5256 214.768 70.3965 213.126 58.3042C211.485 46.2252 198.085 49.2416 198.085 49.2416Z" fill="#EEA987"/>
<path d="M191.665 60.8267C191.665 60.8267 197.377 66.4324 206.934 67.1264C206.934 67.1264 210.604 71.4374 210.884 73.1192C210.884 73.1192 220.881 56.4222 208.936 49.8689C196.256 42.9418 187.808 57.2363 191.665 60.8267Z" fill="#02093B"/>
<path d="M200.127 80.6202C200.193 81.381 200.274 82.2352 200.34 83.1027C206.987 79.8194 208.001 75.0946 208.028 74.9478C202.97 80.6335 200.127 80.6202 200.127 80.6202Z" fill="#A77860"/>
<path d="M185.418 101.241C185.418 101.241 185.098 108.221 186.673 112.225L188.115 111.478C188.115 111.478 185.445 104.498 185.418 101.241Z" fill="#1D3B54"/>
<path d="M210.351 123.944C210.351 123.944 207.695 122.182 207.281 121.929C206.867 121.675 205.412 121.755 203.931 122.222C202.476 122.676 200.848 123.317 200.394 123.571C200.154 123.704 199.927 123.744 200.02 124.425C200.127 125.105 200.581 125.626 200.581 125.626C200.581 125.626 200.314 126.534 200.928 127.134C200.928 127.134 200.714 128.002 201.528 128.562C201.528 128.562 201.341 129.403 201.969 129.777C201.969 129.777 203.33 129.964 203.837 129.857C204.558 129.697 208.362 128.829 211.018 128.135C211.031 128.135 212.126 127.481 210.351 123.944Z" fill="#EEA886"/>
<path d="M201.208 123.357C201.208 123.357 194.334 124.865 194.414 125.399C194.534 126.173 196.243 126.453 201.461 125.025C206.533 123.624 201.208 123.357 201.208 123.357Z" fill="#EEA886"/>
<path d="M218.145 86.4661C219.707 85.5184 224.912 85.6252 226.941 90.5102C228.969 95.3951 230.638 100.961 232.066 103.51C233.494 106.059 238.339 117.724 236.897 119.126C235.456 120.527 232.506 122.196 228.048 123.237C223.457 124.318 210.124 129.283 210.124 129.283L208.429 122.062C208.429 122.062 214.288 119.259 217.678 117.911C220.694 116.71 220.321 116.39 225.272 114.628C225.272 114.628 222.429 107.367 221.148 105.432C219.867 103.497 211.125 90.7104 218.145 86.4661Z" fill="#DE4784"/>
<path d="M201.608 136.383L181.721 134.782C181.201 134.742 180.72 134.448 180.44 133.994L160.927 102.322C160.246 101.228 161.034 99.813 162.315 99.7997L183.497 99.5728C184.11 99.5728 184.671 99.8931 184.965 100.44L203.197 133.941C203.824 135.089 202.93 136.477 201.608 136.383Z" fill="#857B77"/>
<path d="M175.035 125.225C175.035 125.225 173.913 124.184 172.912 122.73C171.911 121.275 168.641 115.709 168.948 115.349C169.242 115.002 174.1 114.882 174.981 115.669C175.862 116.457 174.114 116.777 174.114 116.777C174.114 116.777 176.77 117.057 176.583 117.805C176.396 118.552 174.794 118.352 174.794 118.352C174.794 118.352 176.93 118.766 176.609 119.42C176.289 120.074 175.261 120.074 175.261 120.074C175.261 120.074 177.157 120.314 176.916 121.034C176.676 121.755 173.686 122.436 174.087 123.023C174.474 123.61 175.035 125.225 175.035 125.225Z" fill="#EEA886"/>
<path d="M212.419 83.8902C212.419 83.8902 205.986 94.3675 200.874 94.2473C195.762 94.1272 199.246 84.5442 199.246 84.5442C199.246 84.5442 203.17 81.421 212.419 83.8902Z" fill="#EEA886"/>
<path d="M178.879 119.073C180.6 120.794 182.936 121.262 184.084 120.114C185.232 118.966 184.765 116.63 183.043 114.908C181.321 113.187 178.985 112.72 177.837 113.867C176.69 115.015 177.157 117.351 178.879 119.073Z" fill="#918682"/>
<path d="M190.731 58.064C190.731 58.064 190.01 60.8134 191.224 65.6317C191.224 65.6317 191.038 61.0937 191.985 59.8658C192.92 58.6245 190.731 58.064 190.731 58.064Z" fill="#02093B"/>
<path d="M207 67.0196C207.081 65.5782 207.961 62.2948 210.11 63.2158C212.259 64.1367 209.977 70.8235 208.562 70.4098C208.562 70.3964 206.827 70.4231 207 67.0196Z" fill="#EEA987"/>
<path d="M33.1179 388.385C33.1179 393.035 58.3894 396.809 89.559 396.809C120.729 396.809 146 393.035 146 388.385C146 383.736 120.729 379.961 89.559 379.961C58.3894 379.947 33.1179 383.721 33.1179 388.385Z" fill="#C4C4C4" fill-opacity="0.3"/>
<path d="M120.585 229.122C119.581 236.211 117.342 239.986 116.122 240.158C111.085 240.875 106.622 232.38 106.622 232.38L104.039 220.756C104.039 220.756 101.829 195.384 117.787 189.299C118.217 189.457 122.25 217.34 120.585 229.122Z" fill="#020A3D"/>
<path d="M69.7981 210.38L47.9421 222.392L26 187.864L52.5343 178.636L69.7981 210.38Z" fill="#292C47"/>
<path d="M68.4062 209.347L47.971 220.583L27.4496 188.28L52.2761 179.655L68.4062 209.347Z" fill="white"/>
<path d="M75.897 203.305C75.897 203.305 72.0941 201.483 70.4294 200.536C68.7647 199.588 64.4595 198.282 64.1151 197.967C63.7707 197.651 51.3861 196.89 50.6399 196.245C49.8936 195.599 49.1617 197.766 52.3619 198.469C55.5765 199.172 60.0395 200.894 60.2835 202.143C60.5274 203.391 56.9828 203.693 56.6241 204.726C56.2653 205.759 56.7245 205.53 57.2268 205.745C57.7291 205.96 61.4315 203.908 63.0675 204.496C64.7035 205.085 67.1861 204.267 68.4346 204.697C69.6831 205.128 75.7535 207.166 75.7535 207.166L75.897 203.305Z" fill="#EEA886"/>
<path d="M46.8802 218.058C46.8802 218.058 43.68 215.188 42.1445 213.982C40.5946 212.777 37.6958 209.246 37.2653 209.031C36.8348 208.83 31.2954 197.45 30.3913 196.991C29.4873 196.532 31.2524 195.011 33.161 197.752C35.0697 200.507 38.4277 204.037 39.7049 203.779C40.9821 203.521 39.8771 200.062 40.7238 199.33C41.5561 198.584 41.5131 199.115 41.9293 199.502C42.3311 199.89 41.8431 204.181 43.0342 205.487C44.211 206.793 44.4263 209.462 45.316 210.466C46.2057 211.471 50.4966 216.407 50.4966 216.407L46.8802 218.058Z" fill="#EEA886"/>
<path d="M115.691 371.767C115.691 371.767 116.38 376.56 116.466 377.292C116.552 378.01 124.158 376.862 124.158 376.862L124.775 371.15C124.775 371.15 116.639 371.093 115.691 371.767Z" fill="white"/>
<path d="M116.38 376.675C116.38 376.675 113.969 379.56 111.645 380.823C109.32 382.085 105.66 382.588 104.283 383.879C103.292 384.826 100.666 388.873 110.339 388.787C120.011 388.701 124.675 389.361 125.723 387.811C126.756 386.261 124.216 376.345 124.216 376.345C124.216 376.345 121.92 377.178 116.38 376.675Z" fill="#292C47"/>
<path d="M61.2163 371.767C61.2163 371.767 61.9052 376.56 61.9913 377.292C62.0774 378.01 69.6832 376.862 69.6832 376.862L70.3003 371.15C70.3003 371.15 62.1635 371.093 61.2163 371.767Z" fill="white"/>
<path d="M61.9195 376.675C61.9195 376.675 59.5086 379.56 57.1838 380.822C54.859 382.085 46.2773 383.119 44.8997 384.424C43.9095 385.372 42.2448 389.16 55.8636 388.801C65.5359 388.543 70.1998 389.375 71.2474 387.826C72.2807 386.276 69.7406 376.359 69.7406 376.359C69.7406 376.359 67.5737 377.235 61.9195 376.675Z" fill="#292C47"/>
<path d="M109.391 248.495C109.391 248.495 116.538 259.847 116.007 270.107C115.476 280.368 118.59 291.562 119.667 302.282C120.858 314.236 125.766 342.521 125.938 348.907C126.11 355.293 125.349 378.871 125.349 378.871L115.548 379.1C115.548 379.1 107.153 326.491 105.015 321.44C102.876 316.388 92.3142 280.426 91.9555 276.393C91.5967 272.346 109.391 248.495 109.391 248.495Z" fill="#02093B"/>
<path d="M71.793 250.031C71.793 250.031 66.4115 278.144 65.694 284.429C64.9764 290.715 64.5029 314.81 64.1585 318.742C63.7997 322.659 61.5897 372.973 59.6954 378.799H72.2235C72.2235 378.799 82.0393 341.444 82.0393 325.128C82.0393 308.811 89.473 289.667 94.2661 278.904C99.0592 268.141 110.037 267.883 112.994 247.921C112.994 247.921 75.7825 243.702 71.793 250.031Z" fill="#02093B"/>
<path d="M97.4806 153.078C97.4806 153.078 87.8944 149.49 83.4744 156.795C79.0544 164.099 79.4849 178.708 84.3067 180.502C89.1429 182.296 96.4043 181.363 98.8726 176.785C101.341 172.222 103.58 165.62 103.479 161.2C103.364 156.795 99.992 154.355 97.4806 153.078Z" fill="#EEA886"/>
<path d="M85.34 180.832C85.34 180.832 85.7418 183.415 85.0817 184.692C84.4216 185.97 97.5093 185.998 97.5093 185.998C97.5093 185.998 98.5713 179.067 100.58 173.198C102.589 167.343 85.34 180.832 85.34 180.832Z" fill="#EEA886"/>
<path d="M84.3067 184.549C84.3067 184.549 84.3497 182.109 85.4547 181.88C86.5597 181.65 97.6384 180.574 99.0017 181.119V183.961C99.0017 183.946 96.3899 185.554 84.3067 184.549Z" fill="#E2D2CA"/>
<path d="M40.3074 213.336H40.3218C40.25 213.365 40.2357 213.365 40.3074 213.336Z" fill="#323657"/>
<path d="M117.457 275.532C117.457 275.532 111.573 277.268 101.556 278.373C91.5249 279.478 66.4687 277.972 66.3109 276.795C66.153 275.604 71.7067 232.681 71.391 230.471C71.0753 228.261 70.9031 220.383 70.9031 220.383C70.7739 222.535 68.5783 231.361 65.9234 236.168C64.9619 237.905 61.7474 243.344 60.1975 242.109C52.6921 236.111 41.0681 213.537 40.3363 213.351C40.9533 213.078 45.8469 210.825 46.5357 210.595C47.1384 210.394 52.5486 216.135 55.8349 219.679C57.2987 221.258 58.3319 222.42 58.3319 222.42C59.2791 220.282 62.7376 206.864 63.7995 202.215C66.2248 191.739 65.8517 191.294 65.8517 191.294C73.1705 189.055 84.3066 184.549 84.3066 184.549L99.0016 183.946C99.0016 183.946 112.491 186.917 117.801 189.313C118.303 189.543 115.29 213.724 115.29 213.724C115.29 213.724 112.75 232.121 112.219 240.301C111.96 244.061 117.457 275.532 117.457 275.532Z" fill="#030E59"/>
<path opacity="0.46" d="M116.165 212.547C117.055 218.632 116.308 224.831 113.984 230.528L112.778 233.499L115.691 209.318L116.165 212.547Z" fill="#030E59"/>
<path d="M58.3176 222.406L57.0835 227.615C57.0835 227.615 55.7489 222.392 55.8063 219.665C57.2844 221.258 58.3176 222.406 58.3176 222.406Z" fill="#252840"/>
<path d="M36.1028 186.013L34.8256 183.817L44.8854 180.344L46.1626 182.526L36.1028 186.013Z" fill="#292C47"/>
<path d="M86.5596 143.205C89.0567 141.712 88.4252 148.816 95.4857 150.237C95.4857 150.237 102.388 151.184 104.211 155.618C106.148 158.216 106.938 162.693 102.345 170.184C101.9 171.346 101.384 172.337 100.824 173.04C100.824 173.04 99.8914 174.231 96.0311 173.628C87.0763 172.236 88.6405 167.644 87.0189 167.07C85.4116 166.51 84.1631 165.664 84.1631 165.664L83.5173 168.118L82.2258 167.888C82.2258 167.888 83.5173 159.493 81.9961 156.881C79.5422 152.691 81.91 146.018 86.5596 143.205Z" fill="#02093B"/>
<path d="M84.4357 163.712C84.651 162.808 86.9614 160.21 87.8512 162.98C88.7409 165.764 86.5166 169.495 85.2824 169.18C84.0339 168.864 83.8761 166.022 84.4357 163.712Z" fill="#EEA886"/>
<path opacity="0.46" d="M70.9031 220.382L70.0564 198.268L64.5888 238.435C64.5888 238.435 69.1523 232.121 70.9031 220.382Z" fill="#030E59"/>
</svg>
