<svg width="600" height="384" viewBox="0 0 600 384" fill="none" xmlns="http://www.w3.org/2000/svg">
<path d="M590.578 129.022C594.438 141.721 596.775 155.638 597.791 170.775C601.55 225.024 586.616 272.873 573.511 303.451C566.196 320.62 558.577 334.335 552.787 343.782" stroke="#CEDBED" stroke-width="2.1183" stroke-miterlimit="10"/>
<path d="M15.6826 341.04C0.139361 263.628 -2.40038 201.151 7.96176 150.254C12.0253 130.546 18.0191 112.361 25.9431 95.8022" stroke="#CEDBED" stroke-width="2.1183" stroke-miterlimit="10"/>
<path d="M581.536 121.301C587.124 136.133 590.578 152.692 591.797 171.182C595.454 224.11 580.927 270.841 568.025 300.708C559.898 319.604 551.466 334.233 545.777 343.376" stroke="#CEDBED" stroke-width="2.1183" stroke-miterlimit="10"/>
<path d="M21.8799 341.04C6.2351 263.831 3.59377 201.862 13.8543 151.575C18.9338 126.482 27.4673 103.929 39.0485 84.2211" stroke="#CEDBED" stroke-width="2.1183" stroke-miterlimit="10"/>
<path d="M571.581 113.58C579.607 130.241 584.28 149.442 585.804 171.69C589.359 223.196 575.137 268.809 562.641 298.067C553.498 319.299 544.152 334.944 538.768 343.173" stroke="#CEDBED" stroke-width="2.1183" stroke-miterlimit="10"/>
<path d="M28.0765 341.04C12.3301 264.136 9.58717 202.573 19.7461 152.896C26.0447 122.012 37.5243 94.9895 53.9818 72.843" stroke="#CEDBED" stroke-width="2.1183" stroke-miterlimit="10"/>
<path d="M35.1874 345.713H529.421C529.421 345.713 586.412 269.317 579.708 172.198C573.104 75.078 504.328 50.7981 417.774 34.9501C331.321 19.0005 230.036 -26.41 128.65 21.0323C6.94549 77.9225 6.94549 211.411 35.1874 345.713Z" fill="#CEDBED"/>
<path d="M298.407 245.444C289.365 154.724 182.087 157.162 182.087 157.162C144.092 100.374 76.027 99.5611 42.8072 103.117C10.1969 169.252 16.5971 257.33 35.188 345.713H402.841C390.345 249.914 298.407 245.444 298.407 245.444Z" fill="url(#paint0_linear)"/>
<path d="M529.523 345.713C529.523 345.713 586.515 269.317 579.81 172.198C577.981 144.972 571.175 123.536 560.609 106.266C526.78 113.479 472.836 134.609 434.537 195.97C397.66 255.095 377.24 311.274 366.979 345.713H529.523V345.713Z" fill="url(#paint1_linear)"/>
<path d="M463.997 50.1885H142.771V180.325H463.997V50.1885Z" stroke="white" stroke-width="2.114" stroke-miterlimit="10"/>
<path d="M292.615 256.314L282.964 355.973" stroke="#1656BD" stroke-width="3.171" stroke-miterlimit="10"/>
<path d="M323.397 256.314L333.048 355.973" stroke="#1656BD" stroke-width="3.171" stroke-miterlimit="10"/>
<path d="M290.178 281.203H325.937" stroke="#1656BD" stroke-width="3.171" stroke-miterlimit="10"/>
<path d="M288.248 303.147H327.969" stroke="#1656BD" stroke-width="3.3407" stroke-miterlimit="10"/>
<path d="M329.594 259.158H286.418C284.488 259.158 282.964 257.634 282.964 255.704V251.742C282.964 249.812 284.488 248.288 286.418 248.288H329.594C331.524 248.288 333.048 249.812 333.048 251.742V255.704C333.048 257.634 331.524 259.158 329.594 259.158Z" fill="#0C3069"/>
<path d="M372.16 256.314L362.61 355.973" stroke="#1656BD" stroke-width="3.171" stroke-miterlimit="10"/>
<path d="M403.042 256.314L412.693 355.973" stroke="#1656BD" stroke-width="3.171" stroke-miterlimit="10"/>
<path d="M369.823 281.203H405.583" stroke="#1656BD" stroke-width="3.171" stroke-miterlimit="10"/>
<path d="M367.893 303.147H407.513" stroke="#1656BD" stroke-width="3.3407" stroke-miterlimit="10"/>
<path d="M409.24 259.158H366.064C364.134 259.158 362.61 257.634 362.61 255.704V251.742C362.61 249.812 364.134 248.288 366.064 248.288H409.24C411.17 248.288 412.694 249.812 412.694 251.742V255.704C412.694 257.634 411.069 259.158 409.24 259.158Z" fill="#0C3069"/>
<path d="M300.743 368.57C304.614 368.57 307.752 366.842 307.752 364.71C307.752 362.578 304.614 360.849 300.743 360.849C296.871 360.849 293.733 362.578 293.733 364.71C293.733 366.842 296.871 368.57 300.743 368.57Z" fill="#CEDBED"/>
<path d="M301.352 324.379L301.556 344.29C301.556 344.29 302.673 346.932 302.572 350.386C302.572 353.84 305.721 359.224 302.876 361.764C300.133 364.304 296.883 362.17 296.578 358.716C296.375 355.262 296.578 351.808 295.663 349.878C294.749 347.948 294.546 344.9 295.867 343.478L292.514 324.684L301.352 324.379Z" fill="#FF6D6D"/>
<path d="M300.133 351.097C299.828 351.097 299.524 351.198 299.117 351.198C298.203 351.3 297.39 350.792 297.187 349.878L295.765 343.478C294.444 344.9 294.647 347.948 295.562 349.878C296.476 351.808 296.273 355.16 296.476 358.716C296.679 362.17 299.93 364.304 302.775 361.764C305.517 359.224 302.368 353.84 302.47 350.386C302.47 346.932 301.454 344.29 301.454 344.29L301.657 349.268C301.759 350.183 301.048 350.995 300.133 351.097Z" fill="#0C3069"/>
<path d="M345.036 317.471L347.88 337.179C347.88 337.179 349.302 339.617 349.709 343.071C350.115 346.525 353.975 351.503 351.537 354.348C349.099 357.192 345.645 355.567 344.934 352.113C344.223 348.659 344.02 345.306 342.801 343.478C341.581 341.649 341.074 338.601 342.191 337.077L336.4 318.893L345.036 317.471Z" fill="#FF6D6D"/>
<path d="M347.474 343.986C347.169 344.087 346.864 344.189 346.559 344.189C345.747 344.392 344.832 343.985 344.528 343.173L342.293 337.077C341.175 338.601 341.785 341.751 342.902 343.478C344.02 345.205 344.324 348.659 345.036 352.113C345.747 355.567 349.201 357.192 351.639 354.348C354.077 351.503 350.217 346.525 349.81 343.071C349.404 339.617 347.982 337.179 347.982 337.179L348.794 342.055C348.896 342.97 348.388 343.782 347.474 343.986Z" fill="#0C3069"/>
<path d="M292.413 163.461C292.413 163.461 304.298 173.315 317.607 167.118C317.607 167.118 317.607 165.594 318.927 165.594C320.248 165.594 325.632 166.61 332.947 170.064C343.309 174.94 367.081 201.659 366.065 215.068C365.354 224.923 358.141 228.173 351.741 227.869C345.341 227.564 345.849 216.694 345.849 216.694L325.632 199.728L321.873 227.869H278.698L272.603 183.779L257.974 121.098C257.974 121.098 259.193 116.019 263.155 112.564C267.117 109.212 271.383 111.345 271.383 111.345L292.413 163.461Z" fill="#0C3069"/>
<path d="M292.413 163.461L271.383 111.244C271.383 111.244 267.117 109.11 263.155 112.463C259.193 115.815 257.974 120.996 257.974 120.996L272.603 183.677C286.825 194.649 292.413 163.461 292.413 163.461Z" fill="#103F8A"/>
<path d="M351.639 227.869C358.039 228.173 365.252 224.923 365.963 215.068C366.979 201.557 343.207 174.941 332.845 170.064C331.22 169.252 329.696 168.642 328.375 168.134C318.927 183.576 325.531 199.728 325.531 199.728L345.747 216.694C345.747 216.694 345.239 227.564 351.639 227.869Z" fill="#103F8A"/>
<path d="M356.312 217.405C356.414 223.907 354.484 228.377 350.725 227.869C346.966 227.462 345.138 221.265 345.747 216.694L356.312 217.405Z" fill="#08224A"/>
<path d="M337.62 226.345H309.073L315.473 187.03H344.02L337.62 226.345Z" fill="#FFA526"/>
<path d="M333.963 190.281H324.515L325.328 185.303H334.776L333.963 190.281Z" stroke="white" stroke-width="0.7201" stroke-miterlimit="10"/>
<path d="M290.076 243.513C305.619 244.021 303.994 326.512 303.994 326.512H288.146C288.146 326.512 284.387 319.502 284.387 313.305C284.387 306.905 281.34 300.2 280.425 293.394C279.511 286.689 266.507 242.802 290.076 243.513Z" fill="#80371D"/>
<path d="M304.095 320.62H285.708" stroke="#FFA526" stroke-width="0.7201" stroke-miterlimit="10"/>
<path d="M323.194 238.739C338.636 237.113 348.084 319.198 348.084 319.198L332.337 321.331C332.337 321.331 327.664 314.83 326.852 308.734C325.937 302.436 322.077 296.239 320.248 289.534C318.42 282.93 299.626 241.279 323.194 238.739Z" fill="#80371D"/>
<path d="M347.474 314.017L329.797 316.455" stroke="#FFA526" stroke-width="0.7201" stroke-miterlimit="10"/>
<path d="M299.321 152.896L298.508 162.648C298.406 163.664 297.492 164.375 296.476 164.172L292.311 163.461C292.311 163.461 294.749 177.176 305.111 179.207C315.473 181.138 317.505 167.118 317.505 167.118L311.816 166.102L308.87 152.896H299.321Z" fill="#FF6D6D"/>
<path d="M308.87 152.896H299.32L299.016 156.654C300.844 158.788 304.705 161.937 311.003 162.14L308.87 152.896Z" fill="url(#paint2_linear)"/>
<path d="M295.562 146.699C295.562 146.699 290.482 137.149 296.171 133.492C299.117 127.092 311.816 128.108 314.864 135.117C317.912 142.229 312.629 146.495 312.629 146.495L295.562 146.699Z" fill="#D92727"/>
<path d="M300.235 132.984C303.545 132.984 306.228 130.301 306.228 126.99C306.228 123.68 303.545 120.996 300.235 120.996C296.924 120.996 294.241 123.68 294.241 126.99C294.241 130.301 296.924 132.984 300.235 132.984Z" fill="#D92727"/>
<path d="M313.95 145.988C313.137 145.581 312.527 145.784 312.324 145.886C312.629 144.057 312.73 142.533 312.73 142.533C312.73 142.533 304.4 143.651 299.219 138.368C299.219 138.368 298.609 143.041 296.171 144.768C296.171 144.768 296.171 145.175 296.273 145.886C295.968 145.784 295.46 145.683 294.749 146.089C293.632 146.699 294.343 149.442 296.679 149.442C296.984 151.27 297.594 153.2 298.508 154.013C300.54 155.842 303.384 157.366 304.908 157.264C306.432 157.162 310.699 153.708 311.308 152.184C311.511 151.778 311.715 150.661 311.816 149.442C311.918 149.442 312.019 149.442 312.121 149.442C314.457 149.238 315.067 146.597 313.95 145.988Z" fill="#FF6D6D"/>
<path d="M353.366 212.935L321.264 205.722C321.264 205.722 315.778 198.306 314.152 198.001C312.527 197.697 314.863 200.541 314.863 200.541C314.863 200.541 312.527 198.916 312.019 200.033C311.409 201.151 312.019 202.573 312.019 202.573C312.019 202.573 311.308 203.69 313.136 205.519C314.965 207.348 320.146 208.567 320.146 208.567C320.146 208.567 344.02 223.5 349.607 225.532C355.195 227.666 359.563 215.78 353.366 212.935Z" fill="#FF6D6D"/>
<path d="M271.282 111.244C271.282 111.244 267.015 109.11 263.053 112.463C259.091 115.815 257.872 120.996 257.872 120.996C262.952 124.958 270.977 115.612 271.282 111.244Z" fill="#08224A"/>
<path d="M271.078 112.26L265.085 92.8562C265.085 92.8562 267.32 88.2846 266.913 86.964C266.608 85.6433 265.085 86.0496 265.085 86.0496C265.085 86.0496 264.78 84.6274 264.577 84.3226C264.373 84.0179 258.888 86.5576 258.888 86.5576C258.888 86.5576 257.872 89.6053 259.294 90.418C259.294 90.418 258.786 92.9577 261.224 93.4657L266.304 119.269C266.304 119.269 269.758 116.527 271.078 112.26Z" fill="#FF6D6D"/>
<path d="M204.131 256.314L194.582 355.973" stroke="#1656BD" stroke-width="3.171" stroke-miterlimit="10"/>
<path d="M235.014 256.314L244.665 355.973" stroke="#1656BD" stroke-width="3.171" stroke-miterlimit="10"/>
<path d="M201.794 281.203H237.554" stroke="#1656BD" stroke-width="3.171" stroke-miterlimit="10"/>
<path d="M199.763 303.147H239.484" stroke="#1656BD" stroke-width="3.3407" stroke-miterlimit="10"/>
<path d="M241.211 259.158H198.036C196.105 259.158 194.582 257.634 194.582 255.704V251.742C194.582 249.812 196.105 248.288 198.036 248.288H241.211C243.141 248.288 244.665 249.812 244.665 251.742V255.704C244.665 257.634 243.04 259.158 241.211 259.158Z" fill="#0C3069"/>
<path d="M80.5977 367.961C81.8168 370.602 76.1278 375.783 67.899 379.644C59.6703 383.402 52.051 384.418 50.832 381.777C49.6129 379.136 55.3019 373.954 63.5307 370.094C71.7594 366.234 79.3786 365.319 80.5977 367.961Z" fill="#CEDBED"/>
<path d="M127.939 366.539C126.72 369.18 132.409 374.361 140.638 378.221C148.866 381.98 156.486 382.996 157.705 380.355C158.924 377.713 153.235 372.532 145.006 368.672C136.879 364.913 129.158 363.897 127.939 366.539Z" fill="#CEDBED"/>
<path d="M130.986 351.198L132.612 362.678C132.612 362.678 130.783 368.164 132.612 369.993C134.44 371.821 141.348 374.462 141.348 374.462C141.348 374.462 152.726 380.05 154.454 378.831C156.282 377.713 144.599 365.726 144.599 365.726L140.739 356.989L139.825 351.402L130.986 351.198Z" fill="#0C3069"/>
<path d="M142.161 360.037C138.504 361.459 138.606 365.116 138.606 365.116L132.612 362.678C132.612 362.678 130.783 368.164 132.612 369.993C134.441 371.821 141.349 374.462 141.349 374.462C141.349 374.462 152.727 380.05 154.454 378.831C156.282 377.713 144.6 365.726 144.6 365.726L142.161 360.037Z" fill="#16A3BD"/>
<path d="M77.5502 351.198V362.678C77.5502 362.678 79.3788 366.437 77.5502 370.196C75.7216 373.955 54.2862 381.066 53.2703 380.152C52.1528 379.237 63.4292 368.773 63.4292 368.773L68.4071 360.138L68.7119 351.3H77.5502V351.198Z" fill="#0C3069"/>
<path d="M67.5944 361.459L63.4292 368.672C63.4292 368.672 52.1528 379.136 53.2703 380.05C54.3878 380.964 75.7216 373.853 77.5502 370.094C78.4645 368.265 78.4645 366.335 78.2613 364.913L72.5723 366.234C71.8612 363.389 69.5246 362.069 67.5944 361.459Z" fill="#16A3BD"/>
<path d="M119.304 191.297L122.758 220.25C122.758 220.25 127.634 239.552 128.65 252.961C129.767 266.371 143.99 352.824 143.99 352.824H128.142C128.142 352.824 125.704 347.744 126.313 343.173C126.821 338.601 121.234 334.538 122.047 329.458C122.859 324.379 116.459 314.728 115.037 305.28C113.716 295.934 92.9919 230.409 92.9919 230.409L83.3409 308.531C83.3409 308.531 84.9663 322.246 83.3409 328.138C81.7155 334.03 82.8329 342.36 80.09 352.824H64.4452C64.4452 352.824 62.4134 291.058 62.1087 276.022C61.8039 260.987 62.0071 209.989 68.1025 191.195H119.304V191.297Z" fill="#0F3D85"/>
<path d="M63.7339 218.624C80.5978 207.449 109.754 200.744 120.116 198.611L119.202 191.398H68.1022C66.0705 197.697 64.6482 207.652 63.7339 218.624Z" fill="url(#paint3_linear)"/>
<path d="M79.7852 106.876C79.7852 106.876 92.4839 89.9101 109.551 106.876C109.551 106.876 132.002 106.469 137.183 123.943L149.577 158.686L190.01 172.096L188.384 179.207C188.384 179.207 157.603 182.153 144.396 179.207C131.19 176.261 122.351 159.093 122.351 159.093L120.523 187.334C120.523 187.334 123.062 190.687 122.351 192.719C121.64 194.649 116.154 195.055 109.551 195.055C103.049 195.055 66.9849 195.055 66.9849 195.055L57.6387 113.58C57.8419 113.58 67.2897 108.907 79.7852 106.876Z" fill="#1656BD"/>
<path d="M59.5687 191.398C59.5687 191.398 62.718 193.328 64.8514 192.414C66.9848 191.5 68.6102 189.468 72.2674 188.96C75.9246 188.452 76.6358 188.858 76.6358 189.366C76.6358 189.874 71.6579 190.281 69.8293 191.703C69.8293 191.703 77.9564 190.281 78.1596 191.804C78.2612 192.516 71.3531 192.719 69.7277 193.735C69.7277 193.735 77.5501 193.125 77.6517 193.735C77.7532 194.344 70.8452 194.75 69.7277 195.766C69.7277 195.766 75.4167 195.766 75.0103 196.985C74.604 198.103 71.5563 196.579 69.1181 197.798C66.68 199.017 64.953 199.424 62.3116 197.798C59.7719 196.173 58.248 195.766 58.248 195.766L59.5687 191.398Z" fill="#FF6D6D"/>
<path d="M138.707 176.972C138.707 176.972 133.932 166.712 131.393 162.039C128.853 157.366 131.9 150.559 132.713 144.667C133.526 138.775 126.11 133.695 126.11 133.695L122.453 159.093C122.453 158.991 128.751 171.385 138.707 176.972Z" fill="url(#paint4_linear)"/>
<path d="M57.8417 113.58C63.1243 111.244 67.2895 142.737 62.0069 149.746C56.6226 156.756 43.0096 172.401 43.0096 172.401C43.0096 172.401 45.6509 173.214 43.0096 175.652L62.6164 191.398L60.7878 197.9C60.7878 197.9 39.5556 193.125 25.4346 185.607C11.3137 178.09 20.1519 161.124 23.1996 155.232C26.1457 149.238 41.181 132.476 41.181 132.476C41.181 132.476 46.5652 118.457 57.8417 113.58Z" fill="#1656BD"/>
<path d="M52.6606 130.952C52.6606 130.952 53.1686 137.048 61.7021 147.207" stroke="#0C3069" stroke-width="0.8889" stroke-miterlimit="10"/>
<path d="M54.8953 137.251C54.8953 137.251 50.2221 148.324 52.6603 150.661C54.7937 152.794 47.784 161.226 48.5967 165.899C52.965 160.718 58.8572 153.81 62.0065 149.746C62.3113 149.34 62.5145 148.934 62.8192 148.324C60.6859 145.988 56.2159 140.4 54.8953 137.251Z" fill="url(#paint5_linear)"/>
<path d="M142.771 345.713H126.212" stroke="#0C3069" stroke-width="0.8889" stroke-miterlimit="10"/>
<path d="M80.9024 345.713H64.3433" stroke="#0C3069" stroke-width="0.8889" stroke-miterlimit="10"/>
<path d="M92.8901 231.424V195.055" stroke="#0C3069" stroke-width="0.8889" stroke-miterlimit="10"/>
<path d="M98.4776 195.055C98.4776 195.055 98.4776 202.674 98.4776 209.786C98.4776 216.897 92.8901 218.929 92.8901 218.929" stroke="#0C3069" stroke-width="0.8889" stroke-miterlimit="10"/>
<path d="M109.653 195.055C109.653 195.055 109.043 205.824 121.742 211.817" stroke="#0C3069" stroke-width="0.8889" stroke-miterlimit="10"/>
<path d="M75.1123 194.243C75.1123 194.243 70.4392 212.529 64.2422 213.748" stroke="#0C3069" stroke-width="0.8889" stroke-miterlimit="10"/>
<path d="M117.271 271.247C117.271 271.247 119.608 273.889 123.367 274.6" stroke="#0C3069" stroke-width="0.8889" stroke-miterlimit="10"/>
<path d="M79.4802 272.162C79.4802 272.162 73.588 276.327 69.626 277.749" stroke="#0C3069" stroke-width="0.8889" stroke-miterlimit="10"/>
<path d="M86.896 91.4339L79.9879 81.6813C79.9879 81.6813 73.5878 77.0082 77.245 70.608C80.9022 64.2079 92.6866 67.7635 98.274 69.3889C98.274 69.3889 109.55 69.9985 109.55 77.7193C109.55 85.4401 100.814 91.3323 100.814 91.3323H86.896V91.4339Z" fill="#0F3D85"/>
<path d="M89.2329 95.8022L87.6074 107.079C87.4042 108.196 87.8106 109.314 88.7249 109.923C89.7408 110.736 91.3662 111.549 94.0076 111.549C96.4457 111.549 98.1727 110.736 99.2902 109.923C100.205 109.212 100.611 108.095 100.509 106.977L98.8839 95.9038H89.2329V95.8022Z" fill="#FF6D6D"/>
<path d="M87.5059 107.383C92.5853 107.282 97.0553 104.336 99.6966 102.202L98.7823 95.8022H89.2329L87.6074 107.079C87.5059 107.18 87.5059 107.282 87.5059 107.383Z" fill="url(#paint6_linear)"/>
<path d="M96.9534 73.5541C96.9534 73.5541 93.6009 80.7669 85.2706 81.7828C85.2706 81.7828 84.8642 100.171 93.4993 100.171C102.134 100.171 103.658 84.1194 103.658 84.1194C103.658 84.1194 96.7502 78.6336 96.9534 73.5541Z" fill="#FF6D6D"/>
<path d="M60.4829 137.352C60.4829 137.352 65.9687 130.546 76.2293 137.352C76.2293 137.352 84.4581 128.92 94.0075 137.352C94.0075 137.352 104.065 128.92 113.309 137.352C113.309 137.352 121.233 133.39 125.602 137.352L123.062 152.286H62.3115L60.4829 137.352Z" fill="#16A3BD"/>
<path d="M127.024 125.263C127.024 125.263 126.719 128.616 125.907 134.406C125.094 140.197 122.148 156.858 122.148 156.858" stroke="#0C3069" stroke-width="0.8889" stroke-miterlimit="10"/>
<path d="M130.275 134.203C130.275 134.203 128.447 142.229 123.875 146.597" stroke="#0C3069" stroke-width="0.8889" stroke-miterlimit="10"/>
<path d="M62.3116 152.286C62.3116 152.286 60.0766 133.594 60.483 126.178" stroke="#0C3069" stroke-width="0.8889" stroke-miterlimit="10"/>
<path d="M226.379 364.71C226.379 368.062 221.3 370.805 215.103 370.805C208.906 370.805 203.826 368.062 203.826 364.71C203.826 361.357 208.906 358.615 215.103 358.615C221.401 358.615 226.379 361.357 226.379 364.71Z" fill="#CEDBED"/>
<path d="M210.531 343.579L210.226 353.941C210.226 353.941 207.179 361.662 208.703 361.865C210.226 362.068 212.665 362.17 211.649 363.897C210.633 365.624 209.414 367.961 215.712 368.367C222.011 368.875 223.128 366.742 222.316 364.303C221.706 362.373 218.15 356.684 216.83 354.551C216.525 354.043 216.322 353.433 216.423 352.824L217.236 341.039L210.531 343.579Z" fill="#FF6D6D"/>
<path d="M208.703 361.865C210.227 362.068 212.665 362.17 211.649 363.897C210.633 365.624 209.414 367.961 215.712 368.367C222.011 368.875 223.128 366.742 222.316 364.303C221.808 362.576 219.166 358.208 217.541 355.668C215.611 356.075 212.969 356.989 211.954 358.513C211.141 359.833 209.922 358.716 209.007 357.294C208.398 359.529 207.89 361.764 208.703 361.865Z" fill="#0C3069"/>
<path d="M205.96 266.574L207.585 345.611H223.738C223.738 345.611 226.989 341.141 226.583 331.185C226.176 321.128 230.138 319.401 230.545 310.766C230.951 302.131 234.71 263.527 234.71 263.527L205.96 266.574Z" fill="#0F3D85"/>
<path d="M233.796 272.162C233.796 272.162 230.545 278.562 225.465 279.273C220.487 279.984 219.776 285.876 214.9 291.464C210.024 297.051 212.055 302.232 206.773 306.296L205.96 266.574L234.608 263.527L233.796 272.162Z" fill="url(#paint7_linear)"/>
<path d="M235.827 261.089L247.916 260.073C249.034 259.971 250.05 260.377 250.863 261.089C252.082 262.206 253.809 264.238 255.028 267.387C256.958 272.771 257.06 275.717 259.193 276.022C261.225 276.327 258.075 250.117 258.075 250.117L233.491 248.187L235.827 261.089Z" fill="#FF6D6D"/>
<path d="M253.503 249.71L254.824 259.971L251.979 262.206C252.995 263.425 254.214 265.05 255.027 267.387C256.957 272.771 257.059 275.717 259.192 276.022C261.224 276.327 258.075 250.117 258.075 250.117L253.503 249.71Z" fill="#0C3069"/>
<path d="M217.033 157.162C195.597 160.21 185.134 166.813 183 168.337C182.696 168.54 182.594 168.642 182.594 168.642C166.34 180.629 154.86 219.03 155.876 224.11C157.705 233.354 168.473 230.916 171.013 226.954C172.943 223.907 183.61 208.567 188.181 202.065C189.908 215.678 191.229 227.869 191.229 227.869H244.767L247.713 168.845C238.367 157.467 217.033 157.162 217.033 157.162Z" fill="url(#paint8_linear)"/>
<path d="M188.08 202.166L184.423 176.972" stroke="#D92727" stroke-width="0.8889" stroke-miterlimit="10"/>
<path d="M180.055 184.388C180.055 184.388 180.055 193.43 187.471 198.103" stroke="#D92727" stroke-width="0.8889" stroke-miterlimit="10"/>
<path d="M170.911 192.007L172.435 161.023C172.435 161.023 173.756 159.397 174.264 157.264C174.772 155.13 178.632 153.302 178.124 151.88C177.616 150.559 174.772 153.81 174.06 153.505C173.248 153.2 173.451 152.591 173.146 148.527C172.841 144.464 173.248 140.502 172.435 140.502C171.622 140.502 171.114 149.949 171.114 149.949C171.114 149.949 170.403 138.876 168.981 139.079C167.66 139.282 168.473 149.543 168.473 149.543C168.473 149.543 166.441 140.4 165.425 140.4C164.409 140.4 165.933 150.051 165.933 150.051C165.933 150.051 162.378 143.956 161.768 144.26C161.159 144.565 165.019 151.575 165.019 151.575C165.019 151.575 163.901 157.67 166.543 160.616L159.939 191.398L170.911 192.007Z" fill="#FF6D6D"/>
<path d="M187.979 202.268L184.931 181.137C184.931 181.137 179.75 184.998 179.953 193.938C180.156 202.878 173.147 201.557 172.74 207.043C172.334 212.529 167.458 216.592 167.458 216.592L170.2 227.97C170.404 227.665 170.708 227.462 170.81 227.158C172.842 224.008 183.509 208.668 187.979 202.268Z" fill="url(#paint9_linear)"/>
<path d="M212.055 227.97H244.665L247.002 180.833L233.999 177.785C228.208 182.255 226.582 187.538 226.786 191.195C226.887 194.852 220.792 198.205 219.979 203.386C219.37 207.551 214.189 222.078 212.055 227.97Z" fill="url(#paint10_linear)"/>
<path d="M225.871 217.71L202.81 224.11C202.81 224.11 193.566 224.11 192.448 227.97H227.801L225.871 217.71Z" fill="#F04F4F"/>
<path d="M149.273 266.879C145.92 254.384 155.775 242.802 186.251 242.802C223.23 242.802 237.859 244.936 237.859 244.936V264.644C237.859 264.644 154.047 285.064 149.273 266.879Z" fill="#0F3D85"/>
<path d="M216.017 146.699L219.471 157.67C219.878 158.889 219.471 160.108 218.557 161.023C215.611 163.664 209.414 168.845 207.789 167.423C205.757 165.594 205.554 153.099 205.554 153.099L216.017 146.699Z" fill="#FF6D6D"/>
<path d="M217.033 149.848L216.017 146.597L205.452 152.997C205.452 152.997 205.553 158.381 206.163 162.547C211.852 160.21 215.407 153.505 217.033 149.848Z" fill="url(#paint11_linear)"/>
<path d="M198.747 143.549C198.747 143.549 199.966 155.131 202.607 156.35C205.249 157.569 214.493 151.067 216.423 147.207C216.423 147.207 221.401 144.159 218.963 139.994L207.687 130.343L197.731 133.695L198.747 143.549Z" fill="#FF6D6D"/>
<path d="M204.335 134.305C204.335 134.305 207.281 132.273 208.703 135.422C210.125 138.571 210.531 141.619 215.713 141.517C215.713 141.517 216.22 139.181 218.963 139.994C218.963 139.994 219.776 136.235 220.081 132.679C220.386 129.123 214.189 119.472 203.725 128.92C203.725 128.92 197.934 126.787 195.496 132.273C193.058 137.86 194.988 143.956 194.988 143.956C194.988 143.956 197.63 145.784 202.811 143.956C202.709 143.956 198.544 132.578 204.335 134.305Z" fill="#0C3069"/>
<path d="M172.841 188.35L171.419 226.345H156.485C156.485 226.345 151.507 224.516 152.218 212.325C152.93 200.135 158.009 187.639 158.009 187.639L172.841 188.35Z" fill="url(#paint12_linear)"/>
<path d="M247.611 168.947C252.487 175.042 260.716 196.884 263.053 217.71C263.662 223.094 259.396 227.869 253.91 227.869H224.042C224.042 227.869 221.604 220.656 222.823 215.678L235.319 213.24C235.319 213.24 234.404 210.294 237.046 209.989C237.046 209.989 235.725 203.386 232.373 191.296C228.919 179.106 242.328 162.343 247.611 168.947Z" fill="url(#paint13_linear)"/>
<path d="M235.929 174.229C235.929 174.229 229.63 180.426 232.982 193.836" stroke="#D92727" stroke-width="0.8889" stroke-miterlimit="10"/>
<path d="M294.342 226.345H238.875L245.681 188.35H301.149L294.342 226.345Z" fill="url(#paint14_linear)"/>
<path d="M274.233 212.018C277.297 209.216 277.879 204.864 275.532 202.296C273.185 199.729 268.798 199.918 265.733 202.72C262.669 205.521 262.087 209.873 264.434 212.441C266.781 215.008 271.168 214.819 274.233 212.018Z" fill="#0C3069"/>
<path d="M349.912 212.224C349.912 212.224 352.655 209.176 357.531 211.919" stroke="#0C3069" stroke-width="0.7201" stroke-miterlimit="10"/>
<path d="M380.084 361.865C380.287 363.999 375.208 366.132 368.706 366.64C362.204 367.25 356.82 365.929 356.718 363.897C356.515 361.764 361.595 359.63 368.096 359.122C374.496 358.513 379.881 359.732 380.084 361.865Z" fill="#CEDBED"/>
<path d="M432.809 361.865C433.012 363.999 427.933 366.132 421.431 366.64C414.929 367.25 409.545 365.929 409.443 363.897C409.24 361.764 414.32 359.63 420.821 359.122C427.323 358.513 432.707 359.732 432.809 361.865Z" fill="#CEDBED"/>
<path d="M376.325 318.69L372.363 354.246L365.252 359.224C365.252 359.224 357.938 360.341 357.938 361.764C357.938 363.288 373.481 361.459 377.24 361.357C380.998 361.256 377.849 358.614 378.154 355.668C378.459 352.722 387.094 318.487 387.094 318.487L376.325 318.69Z" fill="#FF6D6D"/>
<path d="M180.359 85.6432L181.883 83.6114C182.594 84.1193 183.203 84.4241 184.016 84.6273C184.727 84.8305 185.54 84.9321 186.353 84.9321C187.369 84.9321 188.181 84.7289 188.791 84.3225C189.4 83.9162 189.705 83.205 189.705 82.3923C189.705 81.7828 189.604 81.2748 189.299 80.8685C188.994 80.4621 188.588 80.1573 187.978 79.9542C187.47 79.751 186.657 79.4462 185.743 79.243C184.118 78.8367 183 78.2271 182.188 77.4144C181.375 76.6017 180.968 75.5858 180.968 74.1636C180.968 73.1477 181.273 72.2334 181.781 71.5222C182.289 70.8111 183.102 70.2016 184.016 69.7952C184.93 69.3888 185.946 69.1857 187.165 69.1857C189.299 69.1857 191.229 69.7952 192.854 70.9127L191.432 73.0461C190.721 72.6397 190.111 72.3349 189.4 72.1318C188.791 71.9286 188.08 71.827 187.267 71.827C186.353 71.827 185.642 72.0302 185.032 72.3349C184.524 72.6397 184.219 73.2493 184.219 73.9604C184.219 74.6715 184.524 75.281 185.032 75.5858C185.54 75.8906 186.556 76.2969 187.775 76.7033C189.502 77.1097 190.823 77.8208 191.737 78.6335C192.651 79.4462 193.058 80.6653 193.058 82.2907C193.058 83.5098 192.753 84.4241 192.143 85.2368C191.534 86.0495 190.721 86.6591 189.705 87.0654C188.689 87.4718 187.572 87.675 186.353 87.675C185.235 87.675 184.118 87.4718 183.102 87.167C182.086 86.8623 181.172 86.3543 180.359 85.6432Z" fill="#009DDA"/>
<path d="M205.655 83.5098H198.544L197.121 87.2686H193.769L200.474 69.7952H203.826L210.531 87.2686H207.077L205.655 83.5098ZM199.356 81.0716H204.741L202.099 73.1476L199.356 81.0716Z" fill="#009DDA"/>
<path d="M215.611 84.6273H223.128V87.2686H212.36V69.7952H215.611V84.6273Z" fill="#009DDA"/>
<path d="M236.233 72.4365H228.411V77.1096H235.116V79.6494H228.411V84.7288H236.64V87.3702H225.16V69.7952H236.233V72.4365Z" fill="#009DDA"/>
<path d="M237.859 85.6432L239.383 83.6114C240.094 84.1193 240.703 84.4241 241.516 84.6273C242.227 84.8305 243.04 84.9321 243.853 84.9321C244.869 84.9321 245.681 84.7289 246.291 84.3225C246.9 83.9162 247.205 83.205 247.205 82.3923C247.205 81.7828 247.104 81.2748 246.799 80.8685C246.494 80.4621 246.088 80.1573 245.478 79.9542C244.97 79.751 244.157 79.4462 243.243 79.243C241.618 78.8367 240.5 78.2271 239.688 77.4144C238.875 76.6017 238.468 75.5858 238.468 74.1636C238.468 73.1477 238.773 72.2334 239.281 71.5222C239.789 70.8111 240.602 70.2016 241.516 69.7952C242.43 69.3888 243.446 69.1857 244.665 69.1857C246.799 69.1857 248.729 69.7952 250.354 70.9127L248.932 73.0461C248.221 72.6397 247.611 72.3349 246.9 72.1318C246.291 71.9286 245.58 71.827 244.767 71.827C243.853 71.827 243.142 72.0302 242.532 72.3349C242.024 72.6397 241.719 73.2493 241.719 73.9604C241.719 74.6715 242.024 75.281 242.532 75.5858C243.04 75.8906 244.056 76.2969 245.275 76.7033C247.002 77.1097 248.323 77.8208 249.237 78.6335C250.151 79.4462 250.558 80.6653 250.558 82.2907C250.558 83.5098 250.253 84.4241 249.643 85.2368C249.034 86.0495 248.221 86.6591 247.205 87.0654C246.189 87.4718 245.072 87.675 243.853 87.675C242.735 87.675 241.618 87.4718 240.602 87.167C239.586 86.8623 238.672 86.3543 237.859 85.6432Z" fill="#009DDA"/>
<path d="M264.475 72.4365H256.653V77.3128H263.459V79.9541H256.653V87.2686H253.402V69.7952H264.475V72.4365Z" fill="#009DDA"/>
<path d="M265.39 78.5319C265.39 76.7032 265.694 75.0778 266.406 73.7571C267.117 72.3349 268.133 71.319 269.453 70.5063C270.774 69.6936 272.399 69.3888 274.228 69.3888C276.057 69.3888 277.682 69.7952 279.003 70.5063C280.323 71.319 281.339 72.3349 282.05 73.7571C282.761 75.1794 283.066 76.7032 283.066 78.5319C283.066 80.3605 282.761 81.9859 282.05 83.3066C281.339 84.7288 280.323 85.7447 279.003 86.5574C277.682 87.3701 276.057 87.6749 274.228 87.6749C272.399 87.6749 270.774 87.2686 269.453 86.5574C268.133 85.7447 267.117 84.7288 266.406 83.3066C265.796 81.9859 265.39 80.3605 265.39 78.5319ZM280.019 78.5319C280.019 76.6017 279.511 74.9762 278.596 73.8587C277.682 72.7412 276.26 72.1317 274.33 72.1317C272.501 72.1317 271.079 72.7412 270.164 73.8587C269.25 74.9762 268.742 76.6017 268.742 78.5319C268.742 80.4621 269.25 82.0875 270.164 83.205C271.079 84.3225 272.501 84.932 274.33 84.932C276.158 84.932 277.58 84.3225 278.596 83.205C279.511 82.0875 280.019 80.4621 280.019 78.5319Z" fill="#009DDA"/>
<path d="M295.968 87.2686L292.514 81.3764H289.568V87.2686H286.317V69.7952H292.412C294.342 69.7952 295.968 70.3031 297.187 71.319C298.406 72.3349 299.016 73.7572 299.016 75.6874C299.016 78.1255 297.797 79.8525 295.46 80.7668L299.625 87.3702H295.968V87.2686ZM292.311 78.8366C293.327 78.8366 294.139 78.5319 294.749 78.0239C295.358 77.516 295.663 76.7033 295.663 75.5858C295.663 74.4683 295.358 73.6556 294.647 73.1476C294.038 72.6397 293.123 72.3349 292.107 72.3349H289.466V78.8366H292.311Z" fill="#009DDA"/>
<path d="M316.083 71.5222L314.254 73.554C313.644 73.0461 313.035 72.7413 312.324 72.4365C311.613 72.1318 310.8 72.0302 310.089 72.0302C308.159 72.0302 306.736 72.6397 305.822 73.7572C304.908 74.8747 304.501 76.5001 304.501 78.4303C304.501 80.3605 304.908 81.8844 305.822 83.1034C306.736 84.2209 308.159 84.8305 309.987 84.8305C310.902 84.8305 311.714 84.6273 312.425 84.3225C313.137 84.0177 313.848 83.6114 314.356 83.0019L316.286 85.1352C315.575 85.8464 314.66 86.4559 313.543 86.9638C312.425 87.4718 311.206 87.675 309.886 87.675C308.057 87.675 306.432 87.2686 305.111 86.4559C303.79 85.6432 302.774 84.6273 302.165 83.205C301.454 81.7828 301.149 80.2589 301.149 78.4303C301.149 76.6017 301.454 74.9763 302.165 73.554C302.876 72.1318 303.892 71.1159 305.213 70.3032C306.533 69.4904 308.159 69.1857 309.987 69.1857C311.206 69.1857 312.324 69.3888 313.441 69.7952C314.559 70.3032 315.371 70.8111 316.083 71.5222Z" fill="#009DDA"/>
<path d="M329.797 72.4365H321.975V77.1096H328.68V79.6494H321.975V84.7288H330.204V87.3702H318.724V69.7952H329.797V72.4365Z" fill="#009DDA"/>
<path d="M353.468 71.5222L351.639 73.554C351.03 73.0461 350.42 72.7413 349.709 72.4365C348.998 72.1318 348.185 72.0302 347.474 72.0302C345.544 72.0302 344.122 72.6397 343.207 73.7572C342.293 74.8747 341.887 76.5001 341.887 78.4303C341.887 80.3605 342.293 81.8844 343.207 83.1034C344.122 84.2209 345.442 84.8305 347.372 84.8305C348.287 84.8305 349.1 84.6273 349.811 84.3225C350.522 84.0177 351.233 83.6114 351.741 83.0019L353.671 85.1352C352.96 85.8464 352.046 86.4559 350.928 86.9638C349.811 87.4718 348.592 87.675 347.271 87.675C345.442 87.675 343.817 87.2686 342.496 86.4559C341.176 85.6432 340.16 84.6273 339.55 83.205C338.839 81.7828 338.534 80.2589 338.534 78.4303C338.534 76.6017 338.839 74.9763 339.55 73.554C340.261 72.1318 341.277 71.1159 342.598 70.3032C343.918 69.4904 345.544 69.1857 347.372 69.1857C348.592 69.1857 349.709 69.3888 350.827 69.7952C351.842 70.3032 352.757 70.8111 353.468 71.5222Z" fill="#009DDA"/>
<path d="M359.36 84.6273H366.877V87.2686H356.109V69.7952H359.36V84.6273V84.6273Z" fill="#009DDA"/>
<path d="M373.379 84.8304H375.411V87.2686H368.198V84.8304H370.23V72.1317H368.198V69.7952H375.411V72.1317H373.379V84.8304Z" fill="#009DDA"/>
<path d="M378.561 69.7952H382.218L390.853 82.7986L390.751 69.7952H393.697V87.2686H390.04L381.608 74.2651L381.71 87.2686H378.662V69.7952H378.561Z" fill="#009DDA"/>
<path d="M402.23 84.8304H404.262V87.2686H397.049V84.8304H399.081V72.1317H397.049V69.7952H404.262V72.1317H402.23V84.8304Z" fill="#009DDA"/>
<path d="M421.126 71.5222L419.297 73.554C418.688 73.0461 418.078 72.7413 417.367 72.4365C416.656 72.1318 415.843 72.0302 415.132 72.0302C413.202 72.0302 411.78 72.6397 410.865 73.7572C409.951 74.8747 409.545 76.5001 409.545 78.4303C409.545 80.3605 409.951 81.8844 410.865 83.1034C411.78 84.2209 413.1 84.8305 415.031 84.8305C415.945 84.8305 416.758 84.6273 417.469 84.3225C418.18 84.0177 418.891 83.6114 419.399 83.0019L421.329 85.1352C420.618 85.8464 419.704 86.4559 418.586 86.9638C417.469 87.4718 416.25 87.675 414.929 87.675C413.1 87.675 411.475 87.2686 410.154 86.4559C408.834 85.6432 407.818 84.6273 407.208 83.205C406.497 81.7828 406.192 80.2589 406.192 78.4303C406.192 76.6017 406.497 74.9763 407.208 73.554C407.919 72.1318 408.935 71.1159 410.256 70.3032C411.577 69.4904 413.202 69.1857 415.031 69.1857C416.25 69.1857 417.367 69.3888 418.485 69.7952C419.501 70.3032 420.415 70.8111 421.126 71.5222Z" fill="#009DDA"/>
<path d="M419.806 318.69L425.088 354.246L417.977 359.224C417.977 359.224 410.663 360.341 410.663 361.764C410.663 363.288 426.206 361.459 429.965 361.357C433.723 361.256 430.574 358.614 430.879 355.668C431.184 352.722 430.574 318.487 430.574 318.487L419.806 318.69Z" fill="#FF6D6D"/>
<path d="M424.377 182.661C424.377 182.661 432.199 194.141 431.895 225.837L433.52 321.331H415.64L402.027 230.51L394.002 279.984C394.002 279.984 397.862 291.769 389.125 321.229H373.176L376.122 272.771C376.122 272.771 373.887 230.51 385.367 182.56H424.377V182.661Z" fill="#456B4B"/>
<path d="M402.027 230.51C402.027 230.51 397.354 203.792 398.573 181.341" stroke="#38573D" stroke-width="0.7201" stroke-miterlimit="10"/>
<path d="M393.9 181.442C393.9 181.442 392.579 204.706 399.081 205.011" stroke="#38573D" stroke-width="0.7201" stroke-miterlimit="10"/>
<path opacity="0.5" d="M424.377 182.661H385.366C384.655 185.709 383.944 188.655 383.334 191.601C385.569 192.211 389.125 192.719 393.9 192.008C402.433 190.687 420.11 203.081 430.37 202.979C428.339 188.452 424.377 182.661 424.377 182.661Z" fill="url(#paint15_linear)"/>
<path d="M383.843 125.771L360.376 142.533L350.725 130.343L351.74 129.733L348.286 121.301L343.512 124.247C342.496 124.958 341.886 126.177 342.191 127.397C342.801 129.733 344.121 133.086 347.067 133.289C347.067 133.289 350.115 153.099 358.344 155.638C366.573 158.178 392.579 135.727 392.579 135.727L383.843 125.771Z" fill="#FF6D6D"/>
<path d="M383.843 125.771L368.096 136.946C373.379 137.048 382.014 138.063 383.538 142.838C388.719 138.876 392.579 135.625 392.579 135.625L383.843 125.771Z" fill="url(#paint16_linear)"/>
<path d="M395.627 115.917L383.335 124.654C382.522 125.263 382.42 126.381 383.03 127.193L392.681 137.759L395.627 115.917Z" fill="#1656BD"/>
<path d="M399.691 115.003C394.814 117.746 386.078 131.562 386.078 131.562C385.366 124.857 388.211 118.66 388.211 118.66C388.211 118.66 382.116 118.558 381.404 117.136C379.068 112.463 386.382 101.898 386.382 101.898C376.427 99.561 372.871 93.5673 379.373 89.6053C385.874 85.6433 393.29 82.1892 393.29 82.1892C393.29 82.1892 397.151 76.0938 404.872 81.2749C409.748 84.6274 409.24 90.7227 410.967 92.9577C412.694 95.1927 417.57 98.1388 415.843 99.3579C415.843 99.3579 423.869 102.101 425.596 109.517C425.596 109.517 417.469 107.993 412.897 110.837L399.691 115.003Z" fill="#FFA526"/>
<path d="M412.999 111.041C418.18 106.774 426.104 106.164 429.659 109.923C433.215 113.783 433.52 126.787 433.52 126.787H428.542C428.542 126.787 422.65 145.479 422.447 153.505C422.243 161.531 429.05 183.372 429.05 183.372C429.964 186.623 425.799 186.826 418.992 186.826C412.186 186.826 392.681 186.826 385.976 186.826C379.271 186.826 382.319 181.239 383.741 175.448C385.062 169.658 389.735 151.981 389.836 148.222C389.938 144.464 383.03 138.775 386.179 131.358C389.227 124.044 394.611 114.19 399.792 114.799L412.999 111.041Z" fill="#1656BD"/>
<path d="M413.608 121.301L412.389 128.514C412.389 128.514 413.913 130.241 417.469 130.343" stroke="#0C3069" stroke-width="0.7201" stroke-miterlimit="10"/>
<path d="M408.529 124.146C408.529 124.146 407.818 131.968 416.555 133.797" stroke="#0C3069" stroke-width="0.7201" stroke-miterlimit="10"/>
<path opacity="0.57" d="M422.447 153.708C422.447 151.778 422.853 149.238 423.361 146.495L415.031 130.038L412.288 128.616L412.999 124.247C408.936 125.771 410.866 131.054 411.577 134.508C412.288 137.962 411.069 139.587 405.989 139.384C400.91 139.079 401.012 139.689 403.958 144.464C406.904 149.34 408.732 155.74 407.513 165.29C406.802 170.877 403.653 182.458 402.027 187.131C408.732 187.131 415.437 187.131 418.891 187.131C425.698 187.131 429.863 186.826 428.949 183.677C429.05 183.576 422.244 161.734 422.447 153.708Z" fill="url(#paint17_linear)"/>
<path d="M360.376 142.533C360.376 142.533 362.205 143.448 362.509 145.886" stroke="#D92727" stroke-width="0.5285" stroke-miterlimit="10"/>
<path d="M353.264 133.593C351.537 133.593 348.896 133.492 347.067 133.289C347.067 133.289 347.575 136.336 348.591 140.095C351.842 138.673 356.617 139.994 359.157 141.01L353.264 133.593Z" fill="url(#paint18_linear)"/>
<path opacity="0.5" d="M375.512 283.133L373.176 321.433H389.125C397.862 291.87 394.002 280.187 394.002 280.187L402.027 230.713L400.402 219.437C396.846 233.558 383.639 264.746 375.512 283.133Z" fill="url(#paint19_linear)"/>
<path d="M357.836 361.662C357.836 363.186 373.379 361.357 377.138 361.256C380.287 361.154 378.662 359.326 378.154 356.989C371.652 360.342 374.497 354.043 372.262 354.043L365.15 359.021C365.15 359.122 357.734 360.24 357.836 361.662Z" fill="#0C3069"/>
<path d="M410.561 361.662C410.561 363.186 426.104 361.357 429.863 361.256C433.012 361.154 431.387 359.326 430.879 356.989C424.377 360.342 427.222 354.043 424.987 354.043L417.875 359.021C417.875 359.122 410.561 360.24 410.561 361.662Z" fill="#0C3069"/>
<path d="M359.055 121.301C359.055 121.301 350.724 117.644 353.873 107.485C357.023 97.3261 369.315 99.2563 368.604 89.91C367.893 80.3606 358.343 82.7987 353.873 80.1574C349.404 77.5161 353.67 69.7953 346.965 66.646C340.26 63.3951 333.759 68.2714 324.616 69.8969C315.473 71.5223 307.549 72.9446 307.853 69.8969C308.158 66.8492 312.526 66.4428 311.104 62.684C309.58 58.9252 302.063 58.9252 301.047 60.0427C301.047 60.0427 309.276 60.0427 309.479 62.8872C309.784 65.7317 303.383 67.0524 303.688 72.1318C303.993 77.2113 315.066 76.1954 325.936 75.4843C336.806 74.7732 335.791 79.1415 334.978 84.5258C334.165 89.91 335.892 93.5672 343.003 94.4815C350.115 95.3959 353.467 96.3102 349.403 104.133C345.949 110.939 348.692 117.136 355.093 121.606H359.055V121.301Z" fill="url(#paint20_linear)"/>
<path d="M389.735 99.6626C389.735 99.6626 390.446 100.882 391.97 104.336C393.494 107.688 395.323 109.212 398.98 108.907L399.691 115.104C399.691 115.104 392.58 120.895 396.44 122.622C400.301 124.45 405.786 116.323 412.999 111.142C412.999 111.142 407.31 108.501 405.685 103.523C402.84 94.8879 398.472 97.2245 396.339 88.183C396.339 88.183 393.697 97.1229 389.735 99.6626Z" fill="#FF6D6D"/>
<path d="M405.685 103.421C405.583 103.117 405.482 102.71 405.279 102.406C403.958 105.352 401.012 108.501 398.98 108.806L399.285 111.345L411.171 110.025C409.342 108.806 406.701 106.571 405.685 103.421Z" fill="url(#paint21_linear)"/>
<path d="M431.895 126.889C431.895 126.889 423.564 122.622 415.336 128.108L402.231 223.094C402.231 223.094 400.402 225.329 401.519 226.243C402.738 227.259 405.583 226.853 408.732 226.853C411.983 226.853 417.571 226.853 417.571 226.853C417.571 226.853 411.78 222.992 410.358 222.18C408.834 221.469 408.326 219.132 408.326 219.132C408.326 219.132 420.72 189.366 419.501 172.807C419.501 172.909 427.222 152.184 431.895 126.889Z" fill="#FF6D6D"/>
<path d="M346.052 120.692C346.661 126.381 348.591 130.038 349.709 131.663C350.115 132.273 350.826 132.679 351.537 132.679H358.953C359.665 132.679 360.376 132.273 360.782 131.663C361.9 130.038 363.83 126.381 364.439 120.692C364.541 120.082 364.033 119.574 363.423 119.574H347.067C346.458 119.574 345.95 120.082 346.052 120.692Z" fill="#967C45"/>
<path d="M494.88 361.053C511.151 361.053 524.341 359.643 524.341 357.903C524.341 356.164 511.151 354.754 494.88 354.754C478.61 354.754 465.419 356.164 465.419 357.903C465.419 359.643 478.61 361.053 494.88 361.053Z" fill="#CEDBED"/>
<path d="M518.144 242.193H471.514V357.903H518.144V242.193Z" fill="#786337"/>
<path d="M518.245 280.187H471.514" stroke="#4F4124" stroke-width="0.8351" stroke-miterlimit="10"/>
<path d="M518.245 319.299H471.514" stroke="#4F4124" stroke-width="0.8351" stroke-miterlimit="10"/>
<path d="M518.245 283.54H471.514" stroke="#4F4124" stroke-width="0.8351" stroke-miterlimit="10"/>
<path d="M518.245 245.444H471.514" stroke="#4F4124" stroke-width="0.8351" stroke-miterlimit="10"/>
<path d="M518.245 322.55H471.514" stroke="#4F4124" stroke-width="0.8351" stroke-miterlimit="10"/>
<path d="M497.927 252.25C497.927 253.876 496.607 255.196 494.88 255.196C493.153 255.196 491.832 253.876 491.832 252.25C491.832 250.625 493.153 249.304 494.88 249.304C496.607 249.304 497.927 250.625 497.927 252.25Z" fill="white"/>
<path d="M497.927 290.956C497.927 292.581 496.607 293.902 494.88 293.902C493.153 293.902 491.832 292.581 491.832 290.956C491.832 289.33 493.153 288.01 494.88 288.01C496.607 288.01 497.927 289.33 497.927 290.956Z" fill="white"/>
<path d="M497.927 329.763C497.927 331.388 496.607 332.709 494.88 332.709C493.153 332.709 491.832 331.388 491.832 329.763C491.832 328.138 493.153 326.817 494.88 326.817C496.607 326.715 497.927 328.036 497.927 329.763Z" fill="white"/>
<path opacity="0.4" d="M471.514 260.987V357.903H484.924L471.514 260.987Z" fill="url(#paint22_linear)"/>
<path d="M485.737 221.977C485.737 221.977 477.509 214.865 480.048 202.471C480.048 202.471 467.553 190.281 475.883 182.865C475.883 182.865 471.007 152.388 480.963 150.559C490.918 148.73 491.934 176.363 491.934 176.363C491.934 176.363 497.522 175.347 493.966 193.735C493.966 193.735 501.788 194.446 496.506 222.078L485.737 221.977Z" fill="url(#paint23_linear)"/>
<path d="M480.962 150.559C480.962 150.559 483.502 191.297 491.223 222.078" stroke="#0C3069" stroke-width="1.092" stroke-miterlimit="10"/>
<path d="M491.833 222.078H504.633C504.633 222.078 518.855 199.627 514.792 191.296C514.792 191.296 523.021 172.604 517.636 170.064C512.252 167.524 505.547 182.865 505.547 182.865C505.547 182.865 493.255 182.56 491.833 222.078Z" fill="url(#paint24_linear)"/>
<path d="M517.636 170.064C517.636 170.064 503.312 196.071 498.334 222.078" stroke="#0C3069" stroke-width="1.092" stroke-miterlimit="10"/>
<path d="M494.881 218.827C488.074 218.827 482.588 219.64 482.69 220.656L484.823 242.193H504.938L507.071 220.656C507.173 219.64 501.687 218.827 494.881 218.827Z" fill="#0C3069"/>
<path d="M453.534 373.751C457.461 373.751 460.645 372.66 460.645 371.313C460.645 369.967 457.461 368.875 453.534 368.875C449.606 368.875 446.422 369.967 446.422 371.313C446.422 372.66 449.606 373.751 453.534 373.751Z" fill="#CEDBED"/>
<path d="M155.774 373.751C159.702 373.751 162.886 372.66 162.886 371.313C162.886 369.967 159.702 368.875 155.774 368.875C151.847 368.875 148.663 369.967 148.663 371.313C148.663 372.66 151.847 373.751 155.774 373.751Z" fill="#CEDBED"/>
<path d="M441.343 233.456H167.559V256.009H441.343V233.456Z" fill="#967C45"/>
<path d="M160.956 233.456L153.438 370.805H158.416L177.21 233.456H160.956Z" fill="#786337"/>
<path d="M447.844 233.456L455.362 370.805H450.282L431.59 233.456H447.844Z" fill="#786337"/>
<path opacity="0.4" d="M160.65 238.739L448.86 252.047L447.844 233.456H160.955L160.65 238.739Z" fill="url(#paint25_linear)"/>
<path d="M460.137 225.837H148.663V235.691H460.137V225.837Z" fill="#967C45"/>
<path opacity="0.4" d="M455.362 109.009C468.603 109.009 479.338 98.275 479.338 85.0339C479.338 71.7928 468.603 61.0587 455.362 61.0587C442.121 61.0587 431.387 71.7928 431.387 85.0339C431.387 98.275 442.121 109.009 455.362 109.009Z" fill="url(#paint26_linear)"/>
<path d="M477.426 88.3414C480.068 75.3664 471.691 62.7067 458.716 60.0651C445.741 57.4235 433.081 65.8003 430.44 78.7753C427.798 91.7503 436.175 104.41 449.15 107.052C462.125 109.693 474.785 101.316 477.426 88.3414Z" fill="#1656BD"/>
<path d="M471.422 87.6311C473.686 77.9615 467.683 68.2872 458.013 66.0229C448.343 63.7587 438.669 69.762 436.405 79.4316C434.141 89.1013 440.144 98.7756 449.814 101.04C459.483 103.304 469.158 97.3008 471.422 87.6311Z" fill="white"/>
<path d="M453.94 68.881V84.3226L463.997 76.5002" stroke="#5D94DE" stroke-width="0.7592" stroke-miterlimit="10"/>
<defs>
<linearGradient id="paint0_linear" x1="249.144" y1="172.148" x2="151.429" y2="366.182" gradientUnits="userSpaceOnUse">
<stop offset="0.0531851" stop-color="#A1C1ED"/>
<stop offset="1" stop-color="#A1C1ED" stop-opacity="0"/>
</linearGradient>
<linearGradient id="paint1_linear" x1="444.482" y1="60.3174" x2="474.587" y2="265.141" gradientUnits="userSpaceOnUse">
<stop offset="0.0531851" stop-color="#A1C1ED"/>
<stop offset="1" stop-color="#A1C1ED" stop-opacity="0"/>
</linearGradient>
<linearGradient id="paint2_linear" x1="298.97" y1="157.539" x2="310.947" y2="157.539" gradientUnits="userSpaceOnUse">
<stop stop-color="#F04F4F"/>
<stop offset="0.9465" stop-color="#F04F4F" stop-opacity="0.0534571"/>
<stop offset="1" stop-color="#F04F4F" stop-opacity="0"/>
</linearGradient>
<linearGradient id="paint3_linear" x1="91.9546" y1="169.548" x2="91.9546" y2="216.726" gradientUnits="userSpaceOnUse">
<stop offset="0.0267829" stop-color="#0C3069"/>
<stop offset="1" stop-color="#0C3069" stop-opacity="0"/>
</linearGradient>
<linearGradient id="paint4_linear" x1="116.484" y1="135.361" x2="141.468" y2="169.259" gradientUnits="userSpaceOnUse">
<stop stop-color="#0C3069"/>
<stop offset="1" stop-color="#0C3069" stop-opacity="0"/>
</linearGradient>
<linearGradient id="paint5_linear" x1="65.8611" y1="134.483" x2="40.2654" y2="165.618" gradientUnits="userSpaceOnUse">
<stop stop-color="#0C3069"/>
<stop offset="1" stop-color="#0C3069" stop-opacity="0"/>
</linearGradient>
<linearGradient id="paint6_linear" x1="87.5299" y1="101.601" x2="99.7039" y2="101.601" gradientUnits="userSpaceOnUse">
<stop stop-color="#F04F4F"/>
<stop offset="0.9465" stop-color="#F04F4F" stop-opacity="0.0534571"/>
<stop offset="1" stop-color="#F04F4F" stop-opacity="0"/>
</linearGradient>
<linearGradient id="paint7_linear" x1="220.209" y1="266.484" x2="213.766" y2="326.079" gradientUnits="userSpaceOnUse">
<stop stop-color="#0C3069"/>
<stop offset="1" stop-color="#0C3069" stop-opacity="0"/>
</linearGradient>
<linearGradient id="paint8_linear" x1="155.73" y1="193.839" x2="247.6" y2="193.839" gradientUnits="userSpaceOnUse">
<stop offset="0.0428285" stop-color="#FFA526"/>
<stop offset="1" stop-color="#FF6026"/>
</linearGradient>
<linearGradient id="paint9_linear" x1="188.62" y1="215.677" x2="169.56" y2="196.215" gradientUnits="userSpaceOnUse">
<stop stop-color="#80371D"/>
<stop offset="1" stop-color="#80371D" stop-opacity="0"/>
</linearGradient>
<linearGradient id="paint10_linear" x1="232.814" y1="219.363" x2="224.403" y2="181.243" gradientUnits="userSpaceOnUse">
<stop stop-color="#80371D"/>
<stop offset="1" stop-color="#80371D" stop-opacity="0"/>
</linearGradient>
<linearGradient id="paint11_linear" x1="212.026" y1="145.4" x2="209.946" y2="161.842" gradientUnits="userSpaceOnUse">
<stop stop-color="#F04F4F"/>
<stop offset="0.9465" stop-color="#F04F4F" stop-opacity="0.0534571"/>
<stop offset="1" stop-color="#F04F4F" stop-opacity="0"/>
</linearGradient>
<linearGradient id="paint12_linear" x1="152.104" y1="206.961" x2="172.837" y2="206.961" gradientUnits="userSpaceOnUse">
<stop offset="0.0428285" stop-color="#FFA526"/>
<stop offset="1" stop-color="#FF6026"/>
</linearGradient>
<linearGradient id="paint13_linear" x1="273.799" y1="197.457" x2="227.984" y2="197.815" gradientUnits="userSpaceOnUse">
<stop offset="0.0428285" stop-color="#FFA526"/>
<stop offset="1" stop-color="#FF6026"/>
</linearGradient>
<linearGradient id="paint14_linear" x1="270.006" y1="238.857" x2="270.006" y2="194.158" gradientUnits="userSpaceOnUse">
<stop offset="0.0439103" stop-color="#87B2ED"/>
<stop offset="1" stop-color="white"/>
</linearGradient>
<linearGradient id="paint15_linear" x1="406.922" y1="181.409" x2="406.922" y2="207.538" gradientUnits="userSpaceOnUse">
<stop offset="0.0333734"/>
<stop offset="1" stop-opacity="0"/>
</linearGradient>
<linearGradient id="paint16_linear" x1="368.111" y1="134.368" x2="392.544" y2="134.368" gradientUnits="userSpaceOnUse">
<stop stop-color="#F04F4F"/>
<stop offset="0.9465" stop-color="#F04F4F" stop-opacity="0.0534571"/>
<stop offset="1" stop-color="#F04F4F" stop-opacity="0"/>
</linearGradient>
<linearGradient id="paint17_linear" x1="421.724" y1="112.284" x2="410.974" y2="200.242" gradientUnits="userSpaceOnUse">
<stop stop-color="#0C3069"/>
<stop offset="1" stop-color="#0C3069" stop-opacity="0"/>
</linearGradient>
<linearGradient id="paint18_linear" x1="346.998" y1="137.128" x2="359.102" y2="137.128" gradientUnits="userSpaceOnUse">
<stop stop-color="#F04F4F"/>
<stop offset="0.9465" stop-color="#F04F4F" stop-opacity="0.0534571"/>
<stop offset="1" stop-color="#F04F4F" stop-opacity="0"/>
</linearGradient>
<linearGradient id="paint19_linear" x1="424.67" y1="225.453" x2="366.685" y2="312.431" gradientUnits="userSpaceOnUse">
<stop offset="0.0333734"/>
<stop offset="1" stop-opacity="0"/>
</linearGradient>
<linearGradient id="paint20_linear" x1="333.745" y1="114.888" x2="335.624" y2="46.9707" gradientUnits="userSpaceOnUse">
<stop offset="0.0492588" stop-color="white"/>
<stop offset="1" stop-color="white" stop-opacity="0"/>
</linearGradient>
<linearGradient id="paint21_linear" x1="398.988" y1="106.905" x2="411.152" y2="106.905" gradientUnits="userSpaceOnUse">
<stop stop-color="#F04F4F"/>
<stop offset="0.9465" stop-color="#F04F4F" stop-opacity="0.0534571"/>
<stop offset="1" stop-color="#F04F4F" stop-opacity="0"/>
</linearGradient>
<linearGradient id="paint22_linear" x1="493.491" y1="235.705" x2="457.519" y2="409.391" gradientUnits="userSpaceOnUse">
<stop/>
<stop offset="0.9315" stop-opacity="0"/>
</linearGradient>
<linearGradient id="paint23_linear" x1="473.042" y1="186.291" x2="498.383" y2="186.291" gradientUnits="userSpaceOnUse">
<stop offset="0.0428285" stop-color="#FFA526"/>
<stop offset="1" stop-color="#FF6026"/>
</linearGradient>
<linearGradient id="paint24_linear" x1="491.875" y1="195.892" x2="519.471" y2="195.892" gradientUnits="userSpaceOnUse">
<stop offset="0.0428285" stop-color="#FFA526"/>
<stop offset="1" stop-color="#FF6026"/>
</linearGradient>
<linearGradient id="paint25_linear" x1="304.75" y1="198.186" x2="304.75" y2="336.267" gradientUnits="userSpaceOnUse">
<stop/>
<stop offset="0.9315" stop-opacity="0"/>
</linearGradient>
<linearGradient id="paint26_linear" x1="449.43" y1="55.131" x2="463.393" y2="125.322" gradientUnits="userSpaceOnUse">
<stop/>
<stop offset="0.9315" stop-opacity="0"/>
</linearGradient>
</defs>
</svg>
